<mxfile host="app.diagrams.net" modified="2021-02-23T09:59:49.494Z" agent="5.0 (Windows NT 10.0; WOW64) AppleWebKit/537.36 (KHTML, like Gecko) Chrome/70.0.3538.25 Safari/537.36 Core/1.70.3861.400 QQBrowser/10.7.4313.400" etag="SOjHZuCEXJ1FbkmKdIa9" version="14.4.2" type="github">
  <diagram name="Page-1" id="7a6c530e-6e37-e111-ec74-82921da8cc10">
    <mxGraphModel dx="2031" dy="1143" grid="1" gridSize="10" guides="1" tooltips="1" connect="1" arrows="1" fold="1" page="1" pageScale="1.5" pageWidth="1169" pageHeight="826" background="none" math="0" shadow="0">
      <root>
        <mxCell id="0" style=";html=1;" />
        <mxCell id="1" style=";html=1;" parent="0" />
        <mxCell id="YkJw-nBbiL5EOXAajBYS-80" value="" style="shape=table;html=1;whiteSpace=wrap;startSize=0;container=1;collapsible=0;childLayout=tableLayout;fillColor=#f5f5f5;strokeColor=#666666;fontColor=#333333;" vertex="1" parent="1">
          <mxGeometry x="790" y="440" width="340" height="290" as="geometry" />
        </mxCell>
        <mxCell id="YkJw-nBbiL5EOXAajBYS-81" value="" style="shape=partialRectangle;html=1;whiteSpace=wrap;collapsible=0;dropTarget=0;pointerEvents=0;fillColor=none;top=0;left=0;bottom=0;right=0;points=[[0,0.5],[1,0.5]];portConstraint=eastwest;" vertex="1" parent="YkJw-nBbiL5EOXAajBYS-80">
          <mxGeometry width="340" height="290" as="geometry" />
        </mxCell>
        <mxCell id="YkJw-nBbiL5EOXAajBYS-82" value="" style="shape=partialRectangle;html=1;whiteSpace=wrap;connectable=0;overflow=hidden;fillColor=none;top=0;left=0;bottom=0;right=0;" vertex="1" parent="YkJw-nBbiL5EOXAajBYS-81">
          <mxGeometry width="340" height="290" as="geometry" />
        </mxCell>
        <mxCell id="YkJw-nBbiL5EOXAajBYS-76" value="" style="shape=table;html=1;whiteSpace=wrap;startSize=0;container=1;collapsible=0;childLayout=tableLayout;fillColor=#f5f5f5;strokeColor=#666666;fontColor=#333333;labelPosition=center;verticalLabelPosition=top;align=center;verticalAlign=bottom;" vertex="1" parent="1">
          <mxGeometry x="230" y="430" width="320" height="300" as="geometry" />
        </mxCell>
        <mxCell id="YkJw-nBbiL5EOXAajBYS-77" value="" style="shape=partialRectangle;html=1;whiteSpace=wrap;collapsible=0;dropTarget=0;pointerEvents=0;fillColor=none;top=0;left=0;bottom=0;right=0;points=[[0,0.5],[1,0.5]];portConstraint=eastwest;" vertex="1" parent="YkJw-nBbiL5EOXAajBYS-76">
          <mxGeometry width="320" height="300" as="geometry" />
        </mxCell>
        <mxCell id="YkJw-nBbiL5EOXAajBYS-78" value="" style="shape=partialRectangle;html=1;whiteSpace=wrap;connectable=0;overflow=hidden;fillColor=none;top=0;left=0;bottom=0;right=0;" vertex="1" parent="YkJw-nBbiL5EOXAajBYS-77">
          <mxGeometry width="320" height="300" as="geometry" />
        </mxCell>
        <mxCell id="YkJw-nBbiL5EOXAajBYS-57" style="edgeStyle=orthogonalEdgeStyle;rounded=0;orthogonalLoop=1;jettySize=auto;html=1;" edge="1" parent="1" source="YkJw-nBbiL5EOXAajBYS-47" target="YkJw-nBbiL5EOXAajBYS-42">
          <mxGeometry relative="1" as="geometry" />
        </mxCell>
        <mxCell id="YkJw-nBbiL5EOXAajBYS-58" style="edgeStyle=orthogonalEdgeStyle;rounded=0;orthogonalLoop=1;jettySize=auto;html=1;" edge="1" parent="1" source="YkJw-nBbiL5EOXAajBYS-47" target="YkJw-nBbiL5EOXAajBYS-43">
          <mxGeometry relative="1" as="geometry" />
        </mxCell>
        <mxCell id="YkJw-nBbiL5EOXAajBYS-47" value="" style="shape=table;html=1;whiteSpace=wrap;startSize=0;container=1;collapsible=0;childLayout=tableLayout;fillColor=#d5e8d4;strokeColor=#82b366;" vertex="1" parent="1">
          <mxGeometry x="990" y="950" width="290" height="120" as="geometry" />
        </mxCell>
        <mxCell id="YkJw-nBbiL5EOXAajBYS-48" value="" style="shape=partialRectangle;html=1;whiteSpace=wrap;collapsible=0;dropTarget=0;pointerEvents=0;fillColor=none;top=0;left=0;bottom=0;right=0;points=[[0,0.5],[1,0.5]];portConstraint=eastwest;" vertex="1" parent="YkJw-nBbiL5EOXAajBYS-47">
          <mxGeometry width="290" height="120" as="geometry" />
        </mxCell>
        <mxCell id="YkJw-nBbiL5EOXAajBYS-49" value="" style="shape=partialRectangle;html=1;whiteSpace=wrap;connectable=0;overflow=hidden;fillColor=none;top=0;left=0;bottom=0;right=0;" vertex="1" parent="YkJw-nBbiL5EOXAajBYS-48">
          <mxGeometry width="290" height="120" as="geometry" />
        </mxCell>
        <mxCell id="YkJw-nBbiL5EOXAajBYS-40" style="edgeStyle=orthogonalEdgeStyle;rounded=0;orthogonalLoop=1;jettySize=auto;html=1;" edge="1" parent="1" source="YkJw-nBbiL5EOXAajBYS-37" target="YkJw-nBbiL5EOXAajBYS-34">
          <mxGeometry relative="1" as="geometry" />
        </mxCell>
        <mxCell id="YkJw-nBbiL5EOXAajBYS-56" style="edgeStyle=orthogonalEdgeStyle;rounded=0;orthogonalLoop=1;jettySize=auto;html=1;" edge="1" parent="1" source="YkJw-nBbiL5EOXAajBYS-37" target="YkJw-nBbiL5EOXAajBYS-51">
          <mxGeometry relative="1" as="geometry" />
        </mxCell>
        <mxCell id="YkJw-nBbiL5EOXAajBYS-37" value="" style="shape=table;html=1;whiteSpace=wrap;startSize=0;container=1;collapsible=0;childLayout=tableLayout;fillColor=#dae8fc;strokeColor=#6c8ebf;" vertex="1" parent="1">
          <mxGeometry x="470" y="760" width="380" height="120" as="geometry" />
        </mxCell>
        <mxCell id="YkJw-nBbiL5EOXAajBYS-38" value="" style="shape=partialRectangle;html=1;whiteSpace=wrap;collapsible=0;dropTarget=0;pointerEvents=0;fillColor=none;top=0;left=0;bottom=0;right=0;points=[[0,0.5],[1,0.5]];portConstraint=eastwest;" vertex="1" parent="YkJw-nBbiL5EOXAajBYS-37">
          <mxGeometry width="380" height="120" as="geometry" />
        </mxCell>
        <mxCell id="YkJw-nBbiL5EOXAajBYS-39" value="" style="shape=partialRectangle;html=1;whiteSpace=wrap;connectable=0;overflow=hidden;fillColor=none;top=0;left=0;bottom=0;right=0;" vertex="1" parent="YkJw-nBbiL5EOXAajBYS-38">
          <mxGeometry width="380" height="120" as="geometry" />
        </mxCell>
        <mxCell id="YkJw-nBbiL5EOXAajBYS-27" style="edgeStyle=orthogonalEdgeStyle;rounded=0;orthogonalLoop=1;jettySize=auto;html=1;entryX=0.5;entryY=0;entryDx=0;entryDy=0;" edge="1" parent="1" source="YkJw-nBbiL5EOXAajBYS-3" target="YkJw-nBbiL5EOXAajBYS-26">
          <mxGeometry relative="1" as="geometry" />
        </mxCell>
        <mxCell id="YkJw-nBbiL5EOXAajBYS-3" value="app master server" style="shape=image;verticalLabelPosition=bottom;labelBackgroundColor=#ffffff;verticalAlign=top;aspect=fixed;imageAspect=0;image=data:image/svg+xml,PHN2ZyB4bWxuczpjYz0iaHR0cDovL2NyZWF0aXZlY29tbW9ucy5vcmcvbnMjIiB4bWxuczpkYz0iaHR0cDovL3B1cmwub3JnL2RjL2VsZW1lbnRzLzEuMS8iIHhtbG5zOmlua3NjYXBlPSJodHRwOi8vd3d3Lmlua3NjYXBlLm9yZy9uYW1lc3BhY2VzL2lua3NjYXBlIiB4bWxuczpyZGY9Imh0dHA6Ly93d3cudzMub3JnLzE5OTkvMDIvMjItcmRmLXN5bnRheC1ucyMiIHhtbG5zOnNvZGlwb2RpPSJodHRwOi8vc29kaXBvZGkuc291cmNlZm9yZ2UubmV0L0RURC9zb2RpcG9kaS0wLmR0ZCIgeG1sbnM6c3ZnPSJodHRwOi8vd3d3LnczLm9yZy8yMDAwL3N2ZyIgeG1sbnM9Imh0dHA6Ly93d3cudzMub3JnLzIwMDAvc3ZnIiB4bWxuczp4bGluaz0iaHR0cDovL3d3dy53My5vcmcvMTk5OS94bGluayIgdmVyc2lvbj0iMS4xIiBpZD0ic3ZnNzkzNCIgaW5rc2NhcGU6dmVyc2lvbj0iMC45Mi4zICgyNDA1NTQ2LCAyMDE4LTAzLTExKSIgc29kaXBvZGk6ZG9jbmFtZT0ic2VydmVyXzQuc3ZnIiB4PSIwcHgiIHk9IjBweCIgdmlld0JveD0iMCAwIDM5Ljk3IDYzLjUxIiBzdHlsZT0iZW5hYmxlLWJhY2tncm91bmQ6bmV3IDAgMCAzOS45NyA2My41MTsiIHhtbDpzcGFjZT0icHJlc2VydmUiPiYjeGE7PHNvZGlwb2RpOm5hbWVkdmlldyBib3JkZXJjb2xvcj0iIzY2NjY2NiIgYm9yZGVyb3BhY2l0eT0iMSIgZml0LW1hcmdpbi1ib3R0b209IjAiIGZpdC1tYXJnaW4tbGVmdD0iMCIgZml0LW1hcmdpbi1yaWdodD0iMCIgZml0LW1hcmdpbi10b3A9IjAiIGdyaWR0b2xlcmFuY2U9IjEwIiBndWlkZXRvbGVyYW5jZT0iMTAiIGlkPSJuYW1lZHZpZXc3OTM2IiBpbmtzY2FwZTpjdXJyZW50LWxheWVyPSJzdmc3OTM0IiBpbmtzY2FwZTpjeD0iMjYuNjQ4OTkzIiBpbmtzY2FwZTpjeT0iNDIuMzQwNDk4IiBpbmtzY2FwZTpwYWdlb3BhY2l0eT0iMCIgaW5rc2NhcGU6cGFnZXNoYWRvdz0iMiIgaW5rc2NhcGU6d2luZG93LWhlaWdodD0iMTAxNyIgaW5rc2NhcGU6d2luZG93LW1heGltaXplZD0iMSIgaW5rc2NhcGU6d2luZG93LXdpZHRoPSIxOTIwIiBpbmtzY2FwZTp3aW5kb3cteD0iLTgiIGlua3NjYXBlOndpbmRvdy15PSItOCIgaW5rc2NhcGU6em9vbT0iMTAuMjU5ODExIiBvYmplY3R0b2xlcmFuY2U9IjEwIiBwYWdlY29sb3I9IiNmZmZmZmYiIHNob3dncmlkPSJmYWxzZSI+JiN4YTsJPC9zb2RpcG9kaTpuYW1lZHZpZXc+JiN4YTs8ZyBpZD0iZzc5MzIiIHRyYW5zZm9ybT0idHJhbnNsYXRlKDAuMDY0NjMzLDAuMDY1MzI3ODcpIj4mI3hhOwk8dGl0bGUgaWQ9InRpdGxlNzkwNyI+UGFnZS0xPC90aXRsZT4mI3hhOwk8ZyBpZD0iZ3JvdXA3NjUzLTEiIHRyYW5zZm9ybT0idHJhbnNsYXRlKDAuMzEwMzY3LC0wLjMxMDM2NykiPiYjeGE7CQk8dGl0bGUgaWQ9InRpdGxlNzkwOSI+U2VydmVyICM0PC90aXRsZT4mI3hhOwkJPGcgaWQ9InNoYXBlNzY1NC0yIj4mI3hhOwkJCTx0aXRsZSBpZD0idGl0bGU3OTExIj5TaGVldC43NjU0PC90aXRsZT4mI3hhOwkJCSYjeGE7CQkJCTxwYXRoIGlkPSJwYXRoNzkxMyIgaW5rc2NhcGU6Y29ubmVjdG9yLWN1cnZhdHVyZT0iMCIgc3R5bGU9ImZpbGw6IzNGNTc2NTtzdHJva2U6IzNGNTc2NTtzdHJva2Utd2lkdGg6MC43NTtzdHJva2UtbGluZWNhcDpyb3VuZDtzdHJva2UtbGluZWpvaW46cm91bmQ7c3Ryb2tlLW1pdGVybGltaXQ6MzsiIGQ9IiAgICAgTTAsMC42MnY2Mi43NmgzOS4yMlYwLjYySDB6Ii8+JiN4YTsJCTwvZz4mI3hhOwkJPGcgaWQ9InNoYXBlNzY1NS00Ij4mI3hhOwkJCTx0aXRsZSBpZD0idGl0bGU3OTE2Ij5TaGVldC43NjU1PC90aXRsZT4mI3hhOwkJCSYjeGE7CQkJCTxwYXRoIGlkPSJwYXRoNzkxOCIgaW5rc2NhcGU6Y29ubmVjdG9yLWN1cnZhdHVyZT0iMCIgc3R5bGU9ImZpbGw6bm9uZTtzdHJva2U6I0ZGRkZGRjtzdHJva2Utd2lkdGg6MC42MjA3O3N0cm9rZS1saW5lY2FwOnJvdW5kO3N0cm9rZS1saW5lam9pbjpyb3VuZDtzdHJva2UtbWl0ZXJsaW1pdDozOyIgZD0iICAgICBNMCw2My4zOGgzOS4yMlYwLjYySDBWNjMuMzhMMCw2My4zOCIvPiYjeGE7CQk8L2c+JiN4YTsJCTxnIGlkPSJzaGFwZTc2NTYtNyIgdHJhbnNmb3JtPSJ0cmFuc2xhdGUoMjkuMzA3NywtMjYuNTE2NykiPiYjeGE7CQkJPHRpdGxlIGlkPSJ0aXRsZTc5MjEiPlNoZWV0Ljc2NTY8L3RpdGxlPiYjeGE7CQkJJiN4YTsJCQkJPHBhdGggaWQ9InBhdGg3OTIzIiBpbmtzY2FwZTpjb25uZWN0b3ItY3VydmF0dXJlPSIwIiBzdHlsZT0iZmlsbDojRkZGRkZGO3N0cm9rZTojRkZGRkZGO3N0cm9rZS13aWR0aDowLjc1O3N0cm9rZS1saW5lY2FwOnNxdWFyZTtzdHJva2UtbWl0ZXJsaW1pdDozOyIgZD0iICAgICBNNC43Niw2MC45N2MwLTEuMzUtMS4wOC0yLjQ1LTIuMzYtMi40NWMtMS4zMiwwLTIuNCwxLjEtMi40LDIuNDVjMCwxLjMxLDEuMDgsMi40MSwyLjQsMi40MUMzLjY4LDYzLjM4LDQuNzYsNjIuMjgsNC43Niw2MC45N3oiLz4mI3hhOwkJPC9nPiYjeGE7CQk8ZyBpZD0ic2hhcGU3NjU3LTkiIHRyYW5zZm9ybT0idHJhbnNsYXRlKDE0Ljk1MzcsLTEwLjI1NTMpIj4mI3hhOwkJCTx0aXRsZSBpZD0idGl0bGU3OTI2Ij5TaGVldC43NjU3PC90aXRsZT4mI3hhOwkJCTxwYXRoIGlkPSJwYXRoNzkyOCIgaW5rc2NhcGU6Y29ubmVjdG9yLWN1cnZhdHVyZT0iMCIgc3R5bGU9ImZpbGw6I0ZGRkZGRjsiIGQ9Ik0wLDYzLjM4aDE5LjExdi0xLjZIMFY2My4zOHogTTAsNTguNmgxOS4xMSAgICAgdi0xLjU1SDBWNTguNnogTTAsNTMuODZoMTkuMTF2LTEuNTlIMFY1My44NnoiLz4mI3hhOwkJPC9nPiYjeGE7CTwvZz4mI3hhOzwvZz4mI3hhOzwvc3ZnPg==;" vertex="1" parent="1">
          <mxGeometry x="269.9999999999999" y="539" width="40" height="64" as="geometry" />
        </mxCell>
        <mxCell id="YkJw-nBbiL5EOXAajBYS-14" style="edgeStyle=orthogonalEdgeStyle;rounded=0;orthogonalLoop=1;jettySize=auto;html=1;entryX=0.5;entryY=0;entryDx=0;entryDy=0;" edge="1" parent="1" source="YkJw-nBbiL5EOXAajBYS-4" target="YkJw-nBbiL5EOXAajBYS-3">
          <mxGeometry relative="1" as="geometry" />
        </mxCell>
        <mxCell id="YkJw-nBbiL5EOXAajBYS-15" style="edgeStyle=orthogonalEdgeStyle;rounded=0;orthogonalLoop=1;jettySize=auto;html=1;entryX=0.5;entryY=0;entryDx=0;entryDy=0;" edge="1" parent="1" source="YkJw-nBbiL5EOXAajBYS-4" target="YkJw-nBbiL5EOXAajBYS-8">
          <mxGeometry relative="1" as="geometry" />
        </mxCell>
        <mxCell id="YkJw-nBbiL5EOXAajBYS-4" value="ribbon" style="shape=image;verticalLabelPosition=bottom;labelBackgroundColor=#ffffff;verticalAlign=top;aspect=fixed;imageAspect=0;image=data:image/svg+xml,PHN2ZyB4bWxuczpjYz0iaHR0cDovL2NyZWF0aXZlY29tbW9ucy5vcmcvbnMjIiB4bWxuczpkYz0iaHR0cDovL3B1cmwub3JnL2RjL2VsZW1lbnRzLzEuMS8iIHhtbG5zOmlua3NjYXBlPSJodHRwOi8vd3d3Lmlua3NjYXBlLm9yZy9uYW1lc3BhY2VzL2lua3NjYXBlIiB4bWxuczpyZGY9Imh0dHA6Ly93d3cudzMub3JnLzE5OTkvMDIvMjItcmRmLXN5bnRheC1ucyMiIHhtbG5zOnNvZGlwb2RpPSJodHRwOi8vc29kaXBvZGkuc291cmNlZm9yZ2UubmV0L0RURC9zb2RpcG9kaS0wLmR0ZCIgeG1sbnM6c3ZnPSJodHRwOi8vd3d3LnczLm9yZy8yMDAwL3N2ZyIgeG1sbnM9Imh0dHA6Ly93d3cudzMub3JnLzIwMDAvc3ZnIiB4bWxuczp4bGluaz0iaHR0cDovL3d3dy53My5vcmcvMTk5OS94bGluayIgdmVyc2lvbj0iMS4xIiBpZD0ic3ZnNzkzNCIgaW5rc2NhcGU6dmVyc2lvbj0iMC45Mi4zICgyNDA1NTQ2LCAyMDE4LTAzLTExKSIgc29kaXBvZGk6ZG9jbmFtZT0ic2VydmVyXzQuc3ZnIiB4PSIwcHgiIHk9IjBweCIgdmlld0JveD0iMCAwIDM5Ljk3IDYzLjUxIiBzdHlsZT0iZW5hYmxlLWJhY2tncm91bmQ6bmV3IDAgMCAzOS45NyA2My41MTsiIHhtbDpzcGFjZT0icHJlc2VydmUiPiYjeGE7PHNvZGlwb2RpOm5hbWVkdmlldyBib3JkZXJjb2xvcj0iIzY2NjY2NiIgYm9yZGVyb3BhY2l0eT0iMSIgZml0LW1hcmdpbi1ib3R0b209IjAiIGZpdC1tYXJnaW4tbGVmdD0iMCIgZml0LW1hcmdpbi1yaWdodD0iMCIgZml0LW1hcmdpbi10b3A9IjAiIGdyaWR0b2xlcmFuY2U9IjEwIiBndWlkZXRvbGVyYW5jZT0iMTAiIGlkPSJuYW1lZHZpZXc3OTM2IiBpbmtzY2FwZTpjdXJyZW50LWxheWVyPSJzdmc3OTM0IiBpbmtzY2FwZTpjeD0iMjYuNjQ4OTkzIiBpbmtzY2FwZTpjeT0iNDIuMzQwNDk4IiBpbmtzY2FwZTpwYWdlb3BhY2l0eT0iMCIgaW5rc2NhcGU6cGFnZXNoYWRvdz0iMiIgaW5rc2NhcGU6d2luZG93LWhlaWdodD0iMTAxNyIgaW5rc2NhcGU6d2luZG93LW1heGltaXplZD0iMSIgaW5rc2NhcGU6d2luZG93LXdpZHRoPSIxOTIwIiBpbmtzY2FwZTp3aW5kb3cteD0iLTgiIGlua3NjYXBlOndpbmRvdy15PSItOCIgaW5rc2NhcGU6em9vbT0iMTAuMjU5ODExIiBvYmplY3R0b2xlcmFuY2U9IjEwIiBwYWdlY29sb3I9IiNmZmZmZmYiIHNob3dncmlkPSJmYWxzZSI+JiN4YTsJPC9zb2RpcG9kaTpuYW1lZHZpZXc+JiN4YTs8ZyBpZD0iZzc5MzIiIHRyYW5zZm9ybT0idHJhbnNsYXRlKDAuMDY0NjMzLDAuMDY1MzI3ODcpIj4mI3hhOwk8dGl0bGUgaWQ9InRpdGxlNzkwNyI+UGFnZS0xPC90aXRsZT4mI3hhOwk8ZyBpZD0iZ3JvdXA3NjUzLTEiIHRyYW5zZm9ybT0idHJhbnNsYXRlKDAuMzEwMzY3LC0wLjMxMDM2NykiPiYjeGE7CQk8dGl0bGUgaWQ9InRpdGxlNzkwOSI+U2VydmVyICM0PC90aXRsZT4mI3hhOwkJPGcgaWQ9InNoYXBlNzY1NC0yIj4mI3hhOwkJCTx0aXRsZSBpZD0idGl0bGU3OTExIj5TaGVldC43NjU0PC90aXRsZT4mI3hhOwkJCSYjeGE7CQkJCTxwYXRoIGlkPSJwYXRoNzkxMyIgaW5rc2NhcGU6Y29ubmVjdG9yLWN1cnZhdHVyZT0iMCIgc3R5bGU9ImZpbGw6IzNGNTc2NTtzdHJva2U6IzNGNTc2NTtzdHJva2Utd2lkdGg6MC43NTtzdHJva2UtbGluZWNhcDpyb3VuZDtzdHJva2UtbGluZWpvaW46cm91bmQ7c3Ryb2tlLW1pdGVybGltaXQ6MzsiIGQ9IiAgICAgTTAsMC42MnY2Mi43NmgzOS4yMlYwLjYySDB6Ii8+JiN4YTsJCTwvZz4mI3hhOwkJPGcgaWQ9InNoYXBlNzY1NS00Ij4mI3hhOwkJCTx0aXRsZSBpZD0idGl0bGU3OTE2Ij5TaGVldC43NjU1PC90aXRsZT4mI3hhOwkJCSYjeGE7CQkJCTxwYXRoIGlkPSJwYXRoNzkxOCIgaW5rc2NhcGU6Y29ubmVjdG9yLWN1cnZhdHVyZT0iMCIgc3R5bGU9ImZpbGw6bm9uZTtzdHJva2U6I0ZGRkZGRjtzdHJva2Utd2lkdGg6MC42MjA3O3N0cm9rZS1saW5lY2FwOnJvdW5kO3N0cm9rZS1saW5lam9pbjpyb3VuZDtzdHJva2UtbWl0ZXJsaW1pdDozOyIgZD0iICAgICBNMCw2My4zOGgzOS4yMlYwLjYySDBWNjMuMzhMMCw2My4zOCIvPiYjeGE7CQk8L2c+JiN4YTsJCTxnIGlkPSJzaGFwZTc2NTYtNyIgdHJhbnNmb3JtPSJ0cmFuc2xhdGUoMjkuMzA3NywtMjYuNTE2NykiPiYjeGE7CQkJPHRpdGxlIGlkPSJ0aXRsZTc5MjEiPlNoZWV0Ljc2NTY8L3RpdGxlPiYjeGE7CQkJJiN4YTsJCQkJPHBhdGggaWQ9InBhdGg3OTIzIiBpbmtzY2FwZTpjb25uZWN0b3ItY3VydmF0dXJlPSIwIiBzdHlsZT0iZmlsbDojRkZGRkZGO3N0cm9rZTojRkZGRkZGO3N0cm9rZS13aWR0aDowLjc1O3N0cm9rZS1saW5lY2FwOnNxdWFyZTtzdHJva2UtbWl0ZXJsaW1pdDozOyIgZD0iICAgICBNNC43Niw2MC45N2MwLTEuMzUtMS4wOC0yLjQ1LTIuMzYtMi40NWMtMS4zMiwwLTIuNCwxLjEtMi40LDIuNDVjMCwxLjMxLDEuMDgsMi40MSwyLjQsMi40MUMzLjY4LDYzLjM4LDQuNzYsNjIuMjgsNC43Niw2MC45N3oiLz4mI3hhOwkJPC9nPiYjeGE7CQk8ZyBpZD0ic2hhcGU3NjU3LTkiIHRyYW5zZm9ybT0idHJhbnNsYXRlKDE0Ljk1MzcsLTEwLjI1NTMpIj4mI3hhOwkJCTx0aXRsZSBpZD0idGl0bGU3OTI2Ij5TaGVldC43NjU3PC90aXRsZT4mI3hhOwkJCTxwYXRoIGlkPSJwYXRoNzkyOCIgaW5rc2NhcGU6Y29ubmVjdG9yLWN1cnZhdHVyZT0iMCIgc3R5bGU9ImZpbGw6I0ZGRkZGRjsiIGQ9Ik0wLDYzLjM4aDE5LjExdi0xLjZIMFY2My4zOHogTTAsNTguNmgxOS4xMSAgICAgdi0xLjU1SDBWNTguNnogTTAsNTMuODZoMTkuMTF2LTEuNTlIMFY1My44NnoiLz4mI3hhOwkJPC9nPiYjeGE7CTwvZz4mI3hhOzwvZz4mI3hhOzwvc3ZnPg==;" vertex="1" parent="1">
          <mxGeometry x="329.9999999999999" y="450" width="40" height="64" as="geometry" />
        </mxCell>
        <mxCell id="YkJw-nBbiL5EOXAajBYS-13" style="edgeStyle=orthogonalEdgeStyle;rounded=0;orthogonalLoop=1;jettySize=auto;html=1;entryX=0.5;entryY=0;entryDx=0;entryDy=0;" edge="1" parent="1" source="YkJw-nBbiL5EOXAajBYS-5" target="YkJw-nBbiL5EOXAajBYS-4">
          <mxGeometry relative="1" as="geometry">
            <mxPoint x="350" y="380" as="targetPoint" />
          </mxGeometry>
        </mxCell>
        <mxCell id="YkJw-nBbiL5EOXAajBYS-74" style="edgeStyle=orthogonalEdgeStyle;rounded=0;orthogonalLoop=1;jettySize=auto;html=1;entryX=0.5;entryY=0;entryDx=0;entryDy=0;" edge="1" parent="1" source="YkJw-nBbiL5EOXAajBYS-5" target="YkJw-nBbiL5EOXAajBYS-68">
          <mxGeometry relative="1" as="geometry" />
        </mxCell>
        <mxCell id="YkJw-nBbiL5EOXAajBYS-5" value="zuul" style="shape=image;verticalLabelPosition=bottom;labelBackgroundColor=#ffffff;verticalAlign=top;aspect=fixed;imageAspect=0;image=data:image/svg+xml,PHN2ZyB4bWxuczpjYz0iaHR0cDovL2NyZWF0aXZlY29tbW9ucy5vcmcvbnMjIiB4bWxuczpkYz0iaHR0cDovL3B1cmwub3JnL2RjL2VsZW1lbnRzLzEuMS8iIHhtbG5zOmlua3NjYXBlPSJodHRwOi8vd3d3Lmlua3NjYXBlLm9yZy9uYW1lc3BhY2VzL2lua3NjYXBlIiB4bWxuczpyZGY9Imh0dHA6Ly93d3cudzMub3JnLzE5OTkvMDIvMjItcmRmLXN5bnRheC1ucyMiIHhtbG5zOnNvZGlwb2RpPSJodHRwOi8vc29kaXBvZGkuc291cmNlZm9yZ2UubmV0L0RURC9zb2RpcG9kaS0wLmR0ZCIgeG1sbnM6c3ZnPSJodHRwOi8vd3d3LnczLm9yZy8yMDAwL3N2ZyIgeG1sbnM9Imh0dHA6Ly93d3cudzMub3JnLzIwMDAvc3ZnIiB4bWxuczp4bGluaz0iaHR0cDovL3d3dy53My5vcmcvMTk5OS94bGluayIgdmVyc2lvbj0iMS4xIiBpZD0ic3ZnNzkzNCIgaW5rc2NhcGU6dmVyc2lvbj0iMC45Mi4zICgyNDA1NTQ2LCAyMDE4LTAzLTExKSIgc29kaXBvZGk6ZG9jbmFtZT0ic2VydmVyXzQuc3ZnIiB4PSIwcHgiIHk9IjBweCIgdmlld0JveD0iMCAwIDM5Ljk3IDYzLjUxIiBzdHlsZT0iZW5hYmxlLWJhY2tncm91bmQ6bmV3IDAgMCAzOS45NyA2My41MTsiIHhtbDpzcGFjZT0icHJlc2VydmUiPiYjeGE7PHNvZGlwb2RpOm5hbWVkdmlldyBib3JkZXJjb2xvcj0iIzY2NjY2NiIgYm9yZGVyb3BhY2l0eT0iMSIgZml0LW1hcmdpbi1ib3R0b209IjAiIGZpdC1tYXJnaW4tbGVmdD0iMCIgZml0LW1hcmdpbi1yaWdodD0iMCIgZml0LW1hcmdpbi10b3A9IjAiIGdyaWR0b2xlcmFuY2U9IjEwIiBndWlkZXRvbGVyYW5jZT0iMTAiIGlkPSJuYW1lZHZpZXc3OTM2IiBpbmtzY2FwZTpjdXJyZW50LWxheWVyPSJzdmc3OTM0IiBpbmtzY2FwZTpjeD0iMjYuNjQ4OTkzIiBpbmtzY2FwZTpjeT0iNDIuMzQwNDk4IiBpbmtzY2FwZTpwYWdlb3BhY2l0eT0iMCIgaW5rc2NhcGU6cGFnZXNoYWRvdz0iMiIgaW5rc2NhcGU6d2luZG93LWhlaWdodD0iMTAxNyIgaW5rc2NhcGU6d2luZG93LW1heGltaXplZD0iMSIgaW5rc2NhcGU6d2luZG93LXdpZHRoPSIxOTIwIiBpbmtzY2FwZTp3aW5kb3cteD0iLTgiIGlua3NjYXBlOndpbmRvdy15PSItOCIgaW5rc2NhcGU6em9vbT0iMTAuMjU5ODExIiBvYmplY3R0b2xlcmFuY2U9IjEwIiBwYWdlY29sb3I9IiNmZmZmZmYiIHNob3dncmlkPSJmYWxzZSI+JiN4YTsJPC9zb2RpcG9kaTpuYW1lZHZpZXc+JiN4YTs8ZyBpZD0iZzc5MzIiIHRyYW5zZm9ybT0idHJhbnNsYXRlKDAuMDY0NjMzLDAuMDY1MzI3ODcpIj4mI3hhOwk8dGl0bGUgaWQ9InRpdGxlNzkwNyI+UGFnZS0xPC90aXRsZT4mI3hhOwk8ZyBpZD0iZ3JvdXA3NjUzLTEiIHRyYW5zZm9ybT0idHJhbnNsYXRlKDAuMzEwMzY3LC0wLjMxMDM2NykiPiYjeGE7CQk8dGl0bGUgaWQ9InRpdGxlNzkwOSI+U2VydmVyICM0PC90aXRsZT4mI3hhOwkJPGcgaWQ9InNoYXBlNzY1NC0yIj4mI3hhOwkJCTx0aXRsZSBpZD0idGl0bGU3OTExIj5TaGVldC43NjU0PC90aXRsZT4mI3hhOwkJCSYjeGE7CQkJCTxwYXRoIGlkPSJwYXRoNzkxMyIgaW5rc2NhcGU6Y29ubmVjdG9yLWN1cnZhdHVyZT0iMCIgc3R5bGU9ImZpbGw6IzNGNTc2NTtzdHJva2U6IzNGNTc2NTtzdHJva2Utd2lkdGg6MC43NTtzdHJva2UtbGluZWNhcDpyb3VuZDtzdHJva2UtbGluZWpvaW46cm91bmQ7c3Ryb2tlLW1pdGVybGltaXQ6MzsiIGQ9IiAgICAgTTAsMC42MnY2Mi43NmgzOS4yMlYwLjYySDB6Ii8+JiN4YTsJCTwvZz4mI3hhOwkJPGcgaWQ9InNoYXBlNzY1NS00Ij4mI3hhOwkJCTx0aXRsZSBpZD0idGl0bGU3OTE2Ij5TaGVldC43NjU1PC90aXRsZT4mI3hhOwkJCSYjeGE7CQkJCTxwYXRoIGlkPSJwYXRoNzkxOCIgaW5rc2NhcGU6Y29ubmVjdG9yLWN1cnZhdHVyZT0iMCIgc3R5bGU9ImZpbGw6bm9uZTtzdHJva2U6I0ZGRkZGRjtzdHJva2Utd2lkdGg6MC42MjA3O3N0cm9rZS1saW5lY2FwOnJvdW5kO3N0cm9rZS1saW5lam9pbjpyb3VuZDtzdHJva2UtbWl0ZXJsaW1pdDozOyIgZD0iICAgICBNMCw2My4zOGgzOS4yMlYwLjYySDBWNjMuMzhMMCw2My4zOCIvPiYjeGE7CQk8L2c+JiN4YTsJCTxnIGlkPSJzaGFwZTc2NTYtNyIgdHJhbnNmb3JtPSJ0cmFuc2xhdGUoMjkuMzA3NywtMjYuNTE2NykiPiYjeGE7CQkJPHRpdGxlIGlkPSJ0aXRsZTc5MjEiPlNoZWV0Ljc2NTY8L3RpdGxlPiYjeGE7CQkJJiN4YTsJCQkJPHBhdGggaWQ9InBhdGg3OTIzIiBpbmtzY2FwZTpjb25uZWN0b3ItY3VydmF0dXJlPSIwIiBzdHlsZT0iZmlsbDojRkZGRkZGO3N0cm9rZTojRkZGRkZGO3N0cm9rZS13aWR0aDowLjc1O3N0cm9rZS1saW5lY2FwOnNxdWFyZTtzdHJva2UtbWl0ZXJsaW1pdDozOyIgZD0iICAgICBNNC43Niw2MC45N2MwLTEuMzUtMS4wOC0yLjQ1LTIuMzYtMi40NWMtMS4zMiwwLTIuNCwxLjEtMi40LDIuNDVjMCwxLjMxLDEuMDgsMi40MSwyLjQsMi40MUMzLjY4LDYzLjM4LDQuNzYsNjIuMjgsNC43Niw2MC45N3oiLz4mI3hhOwkJPC9nPiYjeGE7CQk8ZyBpZD0ic2hhcGU3NjU3LTkiIHRyYW5zZm9ybT0idHJhbnNsYXRlKDE0Ljk1MzcsLTEwLjI1NTMpIj4mI3hhOwkJCTx0aXRsZSBpZD0idGl0bGU3OTI2Ij5TaGVldC43NjU3PC90aXRsZT4mI3hhOwkJCTxwYXRoIGlkPSJwYXRoNzkyOCIgaW5rc2NhcGU6Y29ubmVjdG9yLWN1cnZhdHVyZT0iMCIgc3R5bGU9ImZpbGw6I0ZGRkZGRjsiIGQ9Ik0wLDYzLjM4aDE5LjExdi0xLjZIMFY2My4zOHogTTAsNTguNmgxOS4xMSAgICAgdi0xLjU1SDBWNTguNnogTTAsNTMuODZoMTkuMTF2LTEuNTlIMFY1My44NnoiLz4mI3hhOwkJPC9nPiYjeGE7CTwvZz4mI3hhOzwvZz4mI3hhOzwvc3ZnPg==;" vertex="1" parent="1">
          <mxGeometry x="649.9999999999999" y="340" width="40" height="64" as="geometry" />
        </mxCell>
        <mxCell id="YkJw-nBbiL5EOXAajBYS-6" value="eurake" style="shape=image;verticalLabelPosition=bottom;labelBackgroundColor=#ffffff;verticalAlign=top;aspect=fixed;imageAspect=0;image=data:image/svg+xml,PHN2ZyB4bWxuczpjYz0iaHR0cDovL2NyZWF0aXZlY29tbW9ucy5vcmcvbnMjIiB4bWxuczpkYz0iaHR0cDovL3B1cmwub3JnL2RjL2VsZW1lbnRzLzEuMS8iIHhtbG5zOmlua3NjYXBlPSJodHRwOi8vd3d3Lmlua3NjYXBlLm9yZy9uYW1lc3BhY2VzL2lua3NjYXBlIiB4bWxuczpyZGY9Imh0dHA6Ly93d3cudzMub3JnLzE5OTkvMDIvMjItcmRmLXN5bnRheC1ucyMiIHhtbG5zOnNvZGlwb2RpPSJodHRwOi8vc29kaXBvZGkuc291cmNlZm9yZ2UubmV0L0RURC9zb2RpcG9kaS0wLmR0ZCIgeG1sbnM6c3ZnPSJodHRwOi8vd3d3LnczLm9yZy8yMDAwL3N2ZyIgeG1sbnM9Imh0dHA6Ly93d3cudzMub3JnLzIwMDAvc3ZnIiB4bWxuczp4bGluaz0iaHR0cDovL3d3dy53My5vcmcvMTk5OS94bGluayIgdmVyc2lvbj0iMS4xIiBpZD0ic3ZnNzkzNCIgaW5rc2NhcGU6dmVyc2lvbj0iMC45Mi4zICgyNDA1NTQ2LCAyMDE4LTAzLTExKSIgc29kaXBvZGk6ZG9jbmFtZT0ic2VydmVyXzQuc3ZnIiB4PSIwcHgiIHk9IjBweCIgdmlld0JveD0iMCAwIDM5Ljk3IDYzLjUxIiBzdHlsZT0iZW5hYmxlLWJhY2tncm91bmQ6bmV3IDAgMCAzOS45NyA2My41MTsiIHhtbDpzcGFjZT0icHJlc2VydmUiPiYjeGE7PHNvZGlwb2RpOm5hbWVkdmlldyBib3JkZXJjb2xvcj0iIzY2NjY2NiIgYm9yZGVyb3BhY2l0eT0iMSIgZml0LW1hcmdpbi1ib3R0b209IjAiIGZpdC1tYXJnaW4tbGVmdD0iMCIgZml0LW1hcmdpbi1yaWdodD0iMCIgZml0LW1hcmdpbi10b3A9IjAiIGdyaWR0b2xlcmFuY2U9IjEwIiBndWlkZXRvbGVyYW5jZT0iMTAiIGlkPSJuYW1lZHZpZXc3OTM2IiBpbmtzY2FwZTpjdXJyZW50LWxheWVyPSJzdmc3OTM0IiBpbmtzY2FwZTpjeD0iMjYuNjQ4OTkzIiBpbmtzY2FwZTpjeT0iNDIuMzQwNDk4IiBpbmtzY2FwZTpwYWdlb3BhY2l0eT0iMCIgaW5rc2NhcGU6cGFnZXNoYWRvdz0iMiIgaW5rc2NhcGU6d2luZG93LWhlaWdodD0iMTAxNyIgaW5rc2NhcGU6d2luZG93LW1heGltaXplZD0iMSIgaW5rc2NhcGU6d2luZG93LXdpZHRoPSIxOTIwIiBpbmtzY2FwZTp3aW5kb3cteD0iLTgiIGlua3NjYXBlOndpbmRvdy15PSItOCIgaW5rc2NhcGU6em9vbT0iMTAuMjU5ODExIiBvYmplY3R0b2xlcmFuY2U9IjEwIiBwYWdlY29sb3I9IiNmZmZmZmYiIHNob3dncmlkPSJmYWxzZSI+JiN4YTsJPC9zb2RpcG9kaTpuYW1lZHZpZXc+JiN4YTs8ZyBpZD0iZzc5MzIiIHRyYW5zZm9ybT0idHJhbnNsYXRlKDAuMDY0NjMzLDAuMDY1MzI3ODcpIj4mI3hhOwk8dGl0bGUgaWQ9InRpdGxlNzkwNyI+UGFnZS0xPC90aXRsZT4mI3hhOwk8ZyBpZD0iZ3JvdXA3NjUzLTEiIHRyYW5zZm9ybT0idHJhbnNsYXRlKDAuMzEwMzY3LC0wLjMxMDM2NykiPiYjeGE7CQk8dGl0bGUgaWQ9InRpdGxlNzkwOSI+U2VydmVyICM0PC90aXRsZT4mI3hhOwkJPGcgaWQ9InNoYXBlNzY1NC0yIj4mI3hhOwkJCTx0aXRsZSBpZD0idGl0bGU3OTExIj5TaGVldC43NjU0PC90aXRsZT4mI3hhOwkJCSYjeGE7CQkJCTxwYXRoIGlkPSJwYXRoNzkxMyIgaW5rc2NhcGU6Y29ubmVjdG9yLWN1cnZhdHVyZT0iMCIgc3R5bGU9ImZpbGw6IzNGNTc2NTtzdHJva2U6IzNGNTc2NTtzdHJva2Utd2lkdGg6MC43NTtzdHJva2UtbGluZWNhcDpyb3VuZDtzdHJva2UtbGluZWpvaW46cm91bmQ7c3Ryb2tlLW1pdGVybGltaXQ6MzsiIGQ9IiAgICAgTTAsMC42MnY2Mi43NmgzOS4yMlYwLjYySDB6Ii8+JiN4YTsJCTwvZz4mI3hhOwkJPGcgaWQ9InNoYXBlNzY1NS00Ij4mI3hhOwkJCTx0aXRsZSBpZD0idGl0bGU3OTE2Ij5TaGVldC43NjU1PC90aXRsZT4mI3hhOwkJCSYjeGE7CQkJCTxwYXRoIGlkPSJwYXRoNzkxOCIgaW5rc2NhcGU6Y29ubmVjdG9yLWN1cnZhdHVyZT0iMCIgc3R5bGU9ImZpbGw6bm9uZTtzdHJva2U6I0ZGRkZGRjtzdHJva2Utd2lkdGg6MC42MjA3O3N0cm9rZS1saW5lY2FwOnJvdW5kO3N0cm9rZS1saW5lam9pbjpyb3VuZDtzdHJva2UtbWl0ZXJsaW1pdDozOyIgZD0iICAgICBNMCw2My4zOGgzOS4yMlYwLjYySDBWNjMuMzhMMCw2My4zOCIvPiYjeGE7CQk8L2c+JiN4YTsJCTxnIGlkPSJzaGFwZTc2NTYtNyIgdHJhbnNmb3JtPSJ0cmFuc2xhdGUoMjkuMzA3NywtMjYuNTE2NykiPiYjeGE7CQkJPHRpdGxlIGlkPSJ0aXRsZTc5MjEiPlNoZWV0Ljc2NTY8L3RpdGxlPiYjeGE7CQkJJiN4YTsJCQkJPHBhdGggaWQ9InBhdGg3OTIzIiBpbmtzY2FwZTpjb25uZWN0b3ItY3VydmF0dXJlPSIwIiBzdHlsZT0iZmlsbDojRkZGRkZGO3N0cm9rZTojRkZGRkZGO3N0cm9rZS13aWR0aDowLjc1O3N0cm9rZS1saW5lY2FwOnNxdWFyZTtzdHJva2UtbWl0ZXJsaW1pdDozOyIgZD0iICAgICBNNC43Niw2MC45N2MwLTEuMzUtMS4wOC0yLjQ1LTIuMzYtMi40NWMtMS4zMiwwLTIuNCwxLjEtMi40LDIuNDVjMCwxLjMxLDEuMDgsMi40MSwyLjQsMi40MUMzLjY4LDYzLjM4LDQuNzYsNjIuMjgsNC43Niw2MC45N3oiLz4mI3hhOwkJPC9nPiYjeGE7CQk8ZyBpZD0ic2hhcGU3NjU3LTkiIHRyYW5zZm9ybT0idHJhbnNsYXRlKDE0Ljk1MzcsLTEwLjI1NTMpIj4mI3hhOwkJCTx0aXRsZSBpZD0idGl0bGU3OTI2Ij5TaGVldC43NjU3PC90aXRsZT4mI3hhOwkJCTxwYXRoIGlkPSJwYXRoNzkyOCIgaW5rc2NhcGU6Y29ubmVjdG9yLWN1cnZhdHVyZT0iMCIgc3R5bGU9ImZpbGw6I0ZGRkZGRjsiIGQ9Ik0wLDYzLjM4aDE5LjExdi0xLjZIMFY2My4zOHogTTAsNTguNmgxOS4xMSAgICAgdi0xLjU1SDBWNTguNnogTTAsNTMuODZoMTkuMTF2LTEuNTlIMFY1My44NnoiLz4mI3hhOwkJPC9nPiYjeGE7CTwvZz4mI3hhOzwvZz4mI3hhOzwvc3ZnPg==;" vertex="1" parent="1">
          <mxGeometry x="160" y="340" width="40" height="64" as="geometry" />
        </mxCell>
        <mxCell id="YkJw-nBbiL5EOXAajBYS-28" style="edgeStyle=orthogonalEdgeStyle;rounded=0;orthogonalLoop=1;jettySize=auto;html=1;entryX=0.5;entryY=0;entryDx=0;entryDy=0;" edge="1" parent="1" source="YkJw-nBbiL5EOXAajBYS-8" target="YkJw-nBbiL5EOXAajBYS-26">
          <mxGeometry relative="1" as="geometry" />
        </mxCell>
        <mxCell id="YkJw-nBbiL5EOXAajBYS-8" value="app slave server" style="shape=image;verticalLabelPosition=bottom;labelBackgroundColor=#ffffff;verticalAlign=top;aspect=fixed;imageAspect=0;image=data:image/svg+xml,PHN2ZyB4bWxuczpjYz0iaHR0cDovL2NyZWF0aXZlY29tbW9ucy5vcmcvbnMjIiB4bWxuczpkYz0iaHR0cDovL3B1cmwub3JnL2RjL2VsZW1lbnRzLzEuMS8iIHhtbG5zOmlua3NjYXBlPSJodHRwOi8vd3d3Lmlua3NjYXBlLm9yZy9uYW1lc3BhY2VzL2lua3NjYXBlIiB4bWxuczpyZGY9Imh0dHA6Ly93d3cudzMub3JnLzE5OTkvMDIvMjItcmRmLXN5bnRheC1ucyMiIHhtbG5zOnNvZGlwb2RpPSJodHRwOi8vc29kaXBvZGkuc291cmNlZm9yZ2UubmV0L0RURC9zb2RpcG9kaS0wLmR0ZCIgeG1sbnM6c3ZnPSJodHRwOi8vd3d3LnczLm9yZy8yMDAwL3N2ZyIgeG1sbnM9Imh0dHA6Ly93d3cudzMub3JnLzIwMDAvc3ZnIiB4bWxuczp4bGluaz0iaHR0cDovL3d3dy53My5vcmcvMTk5OS94bGluayIgdmVyc2lvbj0iMS4xIiBpZD0ic3ZnNzkzNCIgaW5rc2NhcGU6dmVyc2lvbj0iMC45Mi4zICgyNDA1NTQ2LCAyMDE4LTAzLTExKSIgc29kaXBvZGk6ZG9jbmFtZT0ic2VydmVyXzQuc3ZnIiB4PSIwcHgiIHk9IjBweCIgdmlld0JveD0iMCAwIDM5Ljk3IDYzLjUxIiBzdHlsZT0iZW5hYmxlLWJhY2tncm91bmQ6bmV3IDAgMCAzOS45NyA2My41MTsiIHhtbDpzcGFjZT0icHJlc2VydmUiPiYjeGE7PHNvZGlwb2RpOm5hbWVkdmlldyBib3JkZXJjb2xvcj0iIzY2NjY2NiIgYm9yZGVyb3BhY2l0eT0iMSIgZml0LW1hcmdpbi1ib3R0b209IjAiIGZpdC1tYXJnaW4tbGVmdD0iMCIgZml0LW1hcmdpbi1yaWdodD0iMCIgZml0LW1hcmdpbi10b3A9IjAiIGdyaWR0b2xlcmFuY2U9IjEwIiBndWlkZXRvbGVyYW5jZT0iMTAiIGlkPSJuYW1lZHZpZXc3OTM2IiBpbmtzY2FwZTpjdXJyZW50LWxheWVyPSJzdmc3OTM0IiBpbmtzY2FwZTpjeD0iMjYuNjQ4OTkzIiBpbmtzY2FwZTpjeT0iNDIuMzQwNDk4IiBpbmtzY2FwZTpwYWdlb3BhY2l0eT0iMCIgaW5rc2NhcGU6cGFnZXNoYWRvdz0iMiIgaW5rc2NhcGU6d2luZG93LWhlaWdodD0iMTAxNyIgaW5rc2NhcGU6d2luZG93LW1heGltaXplZD0iMSIgaW5rc2NhcGU6d2luZG93LXdpZHRoPSIxOTIwIiBpbmtzY2FwZTp3aW5kb3cteD0iLTgiIGlua3NjYXBlOndpbmRvdy15PSItOCIgaW5rc2NhcGU6em9vbT0iMTAuMjU5ODExIiBvYmplY3R0b2xlcmFuY2U9IjEwIiBwYWdlY29sb3I9IiNmZmZmZmYiIHNob3dncmlkPSJmYWxzZSI+JiN4YTsJPC9zb2RpcG9kaTpuYW1lZHZpZXc+JiN4YTs8ZyBpZD0iZzc5MzIiIHRyYW5zZm9ybT0idHJhbnNsYXRlKDAuMDY0NjMzLDAuMDY1MzI3ODcpIj4mI3hhOwk8dGl0bGUgaWQ9InRpdGxlNzkwNyI+UGFnZS0xPC90aXRsZT4mI3hhOwk8ZyBpZD0iZ3JvdXA3NjUzLTEiIHRyYW5zZm9ybT0idHJhbnNsYXRlKDAuMzEwMzY3LC0wLjMxMDM2NykiPiYjeGE7CQk8dGl0bGUgaWQ9InRpdGxlNzkwOSI+U2VydmVyICM0PC90aXRsZT4mI3hhOwkJPGcgaWQ9InNoYXBlNzY1NC0yIj4mI3hhOwkJCTx0aXRsZSBpZD0idGl0bGU3OTExIj5TaGVldC43NjU0PC90aXRsZT4mI3hhOwkJCSYjeGE7CQkJCTxwYXRoIGlkPSJwYXRoNzkxMyIgaW5rc2NhcGU6Y29ubmVjdG9yLWN1cnZhdHVyZT0iMCIgc3R5bGU9ImZpbGw6IzNGNTc2NTtzdHJva2U6IzNGNTc2NTtzdHJva2Utd2lkdGg6MC43NTtzdHJva2UtbGluZWNhcDpyb3VuZDtzdHJva2UtbGluZWpvaW46cm91bmQ7c3Ryb2tlLW1pdGVybGltaXQ6MzsiIGQ9IiAgICAgTTAsMC42MnY2Mi43NmgzOS4yMlYwLjYySDB6Ii8+JiN4YTsJCTwvZz4mI3hhOwkJPGcgaWQ9InNoYXBlNzY1NS00Ij4mI3hhOwkJCTx0aXRsZSBpZD0idGl0bGU3OTE2Ij5TaGVldC43NjU1PC90aXRsZT4mI3hhOwkJCSYjeGE7CQkJCTxwYXRoIGlkPSJwYXRoNzkxOCIgaW5rc2NhcGU6Y29ubmVjdG9yLWN1cnZhdHVyZT0iMCIgc3R5bGU9ImZpbGw6bm9uZTtzdHJva2U6I0ZGRkZGRjtzdHJva2Utd2lkdGg6MC42MjA3O3N0cm9rZS1saW5lY2FwOnJvdW5kO3N0cm9rZS1saW5lam9pbjpyb3VuZDtzdHJva2UtbWl0ZXJsaW1pdDozOyIgZD0iICAgICBNMCw2My4zOGgzOS4yMlYwLjYySDBWNjMuMzhMMCw2My4zOCIvPiYjeGE7CQk8L2c+JiN4YTsJCTxnIGlkPSJzaGFwZTc2NTYtNyIgdHJhbnNmb3JtPSJ0cmFuc2xhdGUoMjkuMzA3NywtMjYuNTE2NykiPiYjeGE7CQkJPHRpdGxlIGlkPSJ0aXRsZTc5MjEiPlNoZWV0Ljc2NTY8L3RpdGxlPiYjeGE7CQkJJiN4YTsJCQkJPHBhdGggaWQ9InBhdGg3OTIzIiBpbmtzY2FwZTpjb25uZWN0b3ItY3VydmF0dXJlPSIwIiBzdHlsZT0iZmlsbDojRkZGRkZGO3N0cm9rZTojRkZGRkZGO3N0cm9rZS13aWR0aDowLjc1O3N0cm9rZS1saW5lY2FwOnNxdWFyZTtzdHJva2UtbWl0ZXJsaW1pdDozOyIgZD0iICAgICBNNC43Niw2MC45N2MwLTEuMzUtMS4wOC0yLjQ1LTIuMzYtMi40NWMtMS4zMiwwLTIuNCwxLjEtMi40LDIuNDVjMCwxLjMxLDEuMDgsMi40MSwyLjQsMi40MUMzLjY4LDYzLjM4LDQuNzYsNjIuMjgsNC43Niw2MC45N3oiLz4mI3hhOwkJPC9nPiYjeGE7CQk8ZyBpZD0ic2hhcGU3NjU3LTkiIHRyYW5zZm9ybT0idHJhbnNsYXRlKDE0Ljk1MzcsLTEwLjI1NTMpIj4mI3hhOwkJCTx0aXRsZSBpZD0idGl0bGU3OTI2Ij5TaGVldC43NjU3PC90aXRsZT4mI3hhOwkJCTxwYXRoIGlkPSJwYXRoNzkyOCIgaW5rc2NhcGU6Y29ubmVjdG9yLWN1cnZhdHVyZT0iMCIgc3R5bGU9ImZpbGw6I0ZGRkZGRjsiIGQ9Ik0wLDYzLjM4aDE5LjExdi0xLjZIMFY2My4zOHogTTAsNTguNmgxOS4xMSAgICAgdi0xLjU1SDBWNTguNnogTTAsNTMuODZoMTkuMTF2LTEuNTlIMFY1My44NnoiLz4mI3hhOwkJPC9nPiYjeGE7CTwvZz4mI3hhOzwvZz4mI3hhOzwvc3ZnPg==;" vertex="1" parent="1">
          <mxGeometry x="389.9999999999999" y="539" width="40" height="64" as="geometry" />
        </mxCell>
        <mxCell id="YkJw-nBbiL5EOXAajBYS-22" value="mqtt master broker" style="shape=image;verticalLabelPosition=bottom;labelBackgroundColor=#ffffff;verticalAlign=top;aspect=fixed;imageAspect=0;image=data:image/svg+xml,PHN2ZyB4bWxuczpjYz0iaHR0cDovL2NyZWF0aXZlY29tbW9ucy5vcmcvbnMjIiB4bWxuczpkYz0iaHR0cDovL3B1cmwub3JnL2RjL2VsZW1lbnRzLzEuMS8iIHhtbG5zOmlua3NjYXBlPSJodHRwOi8vd3d3Lmlua3NjYXBlLm9yZy9uYW1lc3BhY2VzL2lua3NjYXBlIiB4bWxuczpyZGY9Imh0dHA6Ly93d3cudzMub3JnLzE5OTkvMDIvMjItcmRmLXN5bnRheC1ucyMiIHhtbG5zOnNvZGlwb2RpPSJodHRwOi8vc29kaXBvZGkuc291cmNlZm9yZ2UubmV0L0RURC9zb2RpcG9kaS0wLmR0ZCIgeG1sbnM6c3ZnPSJodHRwOi8vd3d3LnczLm9yZy8yMDAwL3N2ZyIgeG1sbnM9Imh0dHA6Ly93d3cudzMub3JnLzIwMDAvc3ZnIiB4bWxuczp4bGluaz0iaHR0cDovL3d3dy53My5vcmcvMTk5OS94bGluayIgdmVyc2lvbj0iMS4xIiBpZD0ic3ZnNzkzNCIgaW5rc2NhcGU6dmVyc2lvbj0iMC45Mi4zICgyNDA1NTQ2LCAyMDE4LTAzLTExKSIgc29kaXBvZGk6ZG9jbmFtZT0ic2VydmVyXzQuc3ZnIiB4PSIwcHgiIHk9IjBweCIgdmlld0JveD0iMCAwIDM5Ljk3IDYzLjUxIiBzdHlsZT0iZW5hYmxlLWJhY2tncm91bmQ6bmV3IDAgMCAzOS45NyA2My41MTsiIHhtbDpzcGFjZT0icHJlc2VydmUiPiYjeGE7PHNvZGlwb2RpOm5hbWVkdmlldyBib3JkZXJjb2xvcj0iIzY2NjY2NiIgYm9yZGVyb3BhY2l0eT0iMSIgZml0LW1hcmdpbi1ib3R0b209IjAiIGZpdC1tYXJnaW4tbGVmdD0iMCIgZml0LW1hcmdpbi1yaWdodD0iMCIgZml0LW1hcmdpbi10b3A9IjAiIGdyaWR0b2xlcmFuY2U9IjEwIiBndWlkZXRvbGVyYW5jZT0iMTAiIGlkPSJuYW1lZHZpZXc3OTM2IiBpbmtzY2FwZTpjdXJyZW50LWxheWVyPSJzdmc3OTM0IiBpbmtzY2FwZTpjeD0iMjYuNjQ4OTkzIiBpbmtzY2FwZTpjeT0iNDIuMzQwNDk4IiBpbmtzY2FwZTpwYWdlb3BhY2l0eT0iMCIgaW5rc2NhcGU6cGFnZXNoYWRvdz0iMiIgaW5rc2NhcGU6d2luZG93LWhlaWdodD0iMTAxNyIgaW5rc2NhcGU6d2luZG93LW1heGltaXplZD0iMSIgaW5rc2NhcGU6d2luZG93LXdpZHRoPSIxOTIwIiBpbmtzY2FwZTp3aW5kb3cteD0iLTgiIGlua3NjYXBlOndpbmRvdy15PSItOCIgaW5rc2NhcGU6em9vbT0iMTAuMjU5ODExIiBvYmplY3R0b2xlcmFuY2U9IjEwIiBwYWdlY29sb3I9IiNmZmZmZmYiIHNob3dncmlkPSJmYWxzZSI+JiN4YTsJPC9zb2RpcG9kaTpuYW1lZHZpZXc+JiN4YTs8ZyBpZD0iZzc5MzIiIHRyYW5zZm9ybT0idHJhbnNsYXRlKDAuMDY0NjMzLDAuMDY1MzI3ODcpIj4mI3hhOwk8dGl0bGUgaWQ9InRpdGxlNzkwNyI+UGFnZS0xPC90aXRsZT4mI3hhOwk8ZyBpZD0iZ3JvdXA3NjUzLTEiIHRyYW5zZm9ybT0idHJhbnNsYXRlKDAuMzEwMzY3LC0wLjMxMDM2NykiPiYjeGE7CQk8dGl0bGUgaWQ9InRpdGxlNzkwOSI+U2VydmVyICM0PC90aXRsZT4mI3hhOwkJPGcgaWQ9InNoYXBlNzY1NC0yIj4mI3hhOwkJCTx0aXRsZSBpZD0idGl0bGU3OTExIj5TaGVldC43NjU0PC90aXRsZT4mI3hhOwkJCSYjeGE7CQkJCTxwYXRoIGlkPSJwYXRoNzkxMyIgaW5rc2NhcGU6Y29ubmVjdG9yLWN1cnZhdHVyZT0iMCIgc3R5bGU9ImZpbGw6IzNGNTc2NTtzdHJva2U6IzNGNTc2NTtzdHJva2Utd2lkdGg6MC43NTtzdHJva2UtbGluZWNhcDpyb3VuZDtzdHJva2UtbGluZWpvaW46cm91bmQ7c3Ryb2tlLW1pdGVybGltaXQ6MzsiIGQ9IiAgICAgTTAsMC42MnY2Mi43NmgzOS4yMlYwLjYySDB6Ii8+JiN4YTsJCTwvZz4mI3hhOwkJPGcgaWQ9InNoYXBlNzY1NS00Ij4mI3hhOwkJCTx0aXRsZSBpZD0idGl0bGU3OTE2Ij5TaGVldC43NjU1PC90aXRsZT4mI3hhOwkJCSYjeGE7CQkJCTxwYXRoIGlkPSJwYXRoNzkxOCIgaW5rc2NhcGU6Y29ubmVjdG9yLWN1cnZhdHVyZT0iMCIgc3R5bGU9ImZpbGw6bm9uZTtzdHJva2U6I0ZGRkZGRjtzdHJva2Utd2lkdGg6MC42MjA3O3N0cm9rZS1saW5lY2FwOnJvdW5kO3N0cm9rZS1saW5lam9pbjpyb3VuZDtzdHJva2UtbWl0ZXJsaW1pdDozOyIgZD0iICAgICBNMCw2My4zOGgzOS4yMlYwLjYySDBWNjMuMzhMMCw2My4zOCIvPiYjeGE7CQk8L2c+JiN4YTsJCTxnIGlkPSJzaGFwZTc2NTYtNyIgdHJhbnNmb3JtPSJ0cmFuc2xhdGUoMjkuMzA3NywtMjYuNTE2NykiPiYjeGE7CQkJPHRpdGxlIGlkPSJ0aXRsZTc5MjEiPlNoZWV0Ljc2NTY8L3RpdGxlPiYjeGE7CQkJJiN4YTsJCQkJPHBhdGggaWQ9InBhdGg3OTIzIiBpbmtzY2FwZTpjb25uZWN0b3ItY3VydmF0dXJlPSIwIiBzdHlsZT0iZmlsbDojRkZGRkZGO3N0cm9rZTojRkZGRkZGO3N0cm9rZS13aWR0aDowLjc1O3N0cm9rZS1saW5lY2FwOnNxdWFyZTtzdHJva2UtbWl0ZXJsaW1pdDozOyIgZD0iICAgICBNNC43Niw2MC45N2MwLTEuMzUtMS4wOC0yLjQ1LTIuMzYtMi40NWMtMS4zMiwwLTIuNCwxLjEtMi40LDIuNDVjMCwxLjMxLDEuMDgsMi40MSwyLjQsMi40MUMzLjY4LDYzLjM4LDQuNzYsNjIuMjgsNC43Niw2MC45N3oiLz4mI3hhOwkJPC9nPiYjeGE7CQk8ZyBpZD0ic2hhcGU3NjU3LTkiIHRyYW5zZm9ybT0idHJhbnNsYXRlKDE0Ljk1MzcsLTEwLjI1NTMpIj4mI3hhOwkJCTx0aXRsZSBpZD0idGl0bGU3OTI2Ij5TaGVldC43NjU3PC90aXRsZT4mI3hhOwkJCTxwYXRoIGlkPSJwYXRoNzkyOCIgaW5rc2NhcGU6Y29ubmVjdG9yLWN1cnZhdHVyZT0iMCIgc3R5bGU9ImZpbGw6I0ZGRkZGRjsiIGQ9Ik0wLDYzLjM4aDE5LjExdi0xLjZIMFY2My4zOHogTTAsNTguNmgxOS4xMSAgICAgdi0xLjU1SDBWNTguNnogTTAsNTMuODZoMTkuMTF2LTEuNTlIMFY1My44NnoiLz4mI3hhOwkJPC9nPiYjeGE7CTwvZz4mI3hhOzwvZz4mI3hhOzwvc3ZnPg==;" vertex="1" parent="1">
          <mxGeometry x="529.9999999999999" y="780" width="40" height="64" as="geometry" />
        </mxCell>
        <mxCell id="YkJw-nBbiL5EOXAajBYS-23" value="master\slave" style="shape=image;verticalLabelPosition=bottom;labelBackgroundColor=#ffffff;verticalAlign=top;aspect=fixed;imageAspect=0;image=data:image/svg+xml,PHN2ZyB4bWxuczpkYz0iaHR0cDovL3B1cmwub3JnL2RjL2VsZW1lbnRzLzEuMS8iIHhtbG5zOmNjPSJodHRwOi8vY3JlYXRpdmVjb21tb25zLm9yZy9ucyMiIHhtbG5zOnJkZj0iaHR0cDovL3d3dy53My5vcmcvMTk5OS8wMi8yMi1yZGYtc3ludGF4LW5zIyIgeG1sbnM6c3ZnPSJodHRwOi8vd3d3LnczLm9yZy8yMDAwL3N2ZyIgeG1sbnM9Imh0dHA6Ly93d3cudzMub3JnLzIwMDAvc3ZnIiB4bWxuczpzb2RpcG9kaT0iaHR0cDovL3NvZGlwb2RpLnNvdXJjZWZvcmdlLm5ldC9EVEQvc29kaXBvZGktMC5kdGQiIHhtbG5zOmlua3NjYXBlPSJodHRwOi8vd3d3Lmlua3NjYXBlLm9yZy9uYW1lc3BhY2VzL2lua3NjYXBlIiB2ZXJzaW9uPSIxLjEiIGlkPSJzdmc5NzA4NCIgaW5rc2NhcGU6dmVyc2lvbj0iMC45Mi4zICgyNDA1NTQ2LCAyMDE4LTAzLTExKSIgc29kaXBvZGk6ZG9jbmFtZT0ic3FsX2RhdGFiYXNlLnN2ZyIgeD0iMHB4IiB5PSIwcHgiIHZpZXdCb3g9IjAgMCA3NS41MiAxMDAuMTEiIHhtbDpzcGFjZT0icHJlc2VydmUiIHdpZHRoPSI3NS41MTk5OTciIGhlaWdodD0iMTAwLjExIj48bWV0YWRhdGEgaWQ9Im1ldGFkYXRhMTcyNiI+PHJkZjpSREY+PGNjOldvcmsgcmRmOmFib3V0PSIiPjxkYzpmb3JtYXQ+aW1hZ2Uvc3ZnK3htbDwvZGM6Zm9ybWF0PjxkYzp0eXBlIHJkZjpyZXNvdXJjZT0iaHR0cDovL3B1cmwub3JnL2RjL2RjbWl0eXBlL1N0aWxsSW1hZ2UiLz48ZGM6dGl0bGUvPjwvY2M6V29yaz48L3JkZjpSREY+PC9tZXRhZGF0YT48ZGVmcyBpZD0iZGVmczE3MjQiPiYjeGE7CSYjeGE7JiN4YTsJJiN4YTsmI3hhOwkmI3hhOyYjeGE7CSYjeGE7JiN4YTsJJiN4YTsmI3hhOwkmI3hhOyYjeGE7CSYjeGE7JiN4YTsJJiN4YTsmI3hhOwkmI3hhOyYjeGE7CQkmI3hhOwkmI3hhOwkJJiN4YTsJJiN4YTsJCSYjeGE7CSYjeGE7CQkmI3hhOwkmI3hhOwkJJiN4YTsJJiN4YTsJCSYjeGE7CSYjeGE7CQkmI3hhOwkmI3hhOwkJJiN4YTsJPC9kZWZzPiYjeGE7PGZpbHRlciBpZD0iZmlsdGVyXzIiPiYjeGE7CTxmZUdhdXNzaWFuQmx1ciBpZD0iZmVHYXVzc2lhbkJsdXI5NzAwMSIgc3RkRGV2aWF0aW9uPSIyIi8+JiN4YTs8L2ZpbHRlcj4mI3hhOzxzb2RpcG9kaTpuYW1lZHZpZXcgYm9yZGVyY29sb3I9IiM2NjY2NjYiIGJvcmRlcm9wYWNpdHk9IjEiIGZpdC1tYXJnaW4tYm90dG9tPSIwIiBmaXQtbWFyZ2luLWxlZnQ9IjAiIGZpdC1tYXJnaW4tcmlnaHQ9IjAiIGZpdC1tYXJnaW4tdG9wPSIwIiBncmlkdG9sZXJhbmNlPSIxMCIgZ3VpZGV0b2xlcmFuY2U9IjEwIiBpZD0ibmFtZWR2aWV3OTcwODYiIGlua3NjYXBlOmN1cnJlbnQtbGF5ZXI9InN2Zzk3MDg0IiBpbmtzY2FwZTpjeD0iLTQ2LjkyMDI2NSIgaW5rc2NhcGU6Y3k9IjM4LjczMTY2NiIgaW5rc2NhcGU6cGFnZW9wYWNpdHk9IjAiIGlua3NjYXBlOnBhZ2VzaGFkb3c9IjIiIGlua3NjYXBlOndpbmRvdy1oZWlnaHQ9IjEwMTciIGlua3NjYXBlOndpbmRvdy1tYXhpbWl6ZWQ9IjEiIGlua3NjYXBlOndpbmRvdy13aWR0aD0iMTkyMCIgaW5rc2NhcGU6d2luZG93LXg9Ii04IiBpbmtzY2FwZTp3aW5kb3cteT0iLTgiIGlua3NjYXBlOnpvb209IjUuMjE5MzE5NyIgb2JqZWN0dG9sZXJhbmNlPSIxMCIgcGFnZWNvbG9yPSIjZmZmZmZmIiBzaG93Z3JpZD0iZmFsc2UiPiYjeGE7CTwvc29kaXBvZGk6bmFtZWR2aWV3PiYjeGE7JiN4YTs8cGF0aCBpZD0icGF0aDk3MDE0IiBpbmtzY2FwZTpjb25uZWN0b3ItY3VydmF0dXJlPSIwIiBzdHlsZT0iZmlsbDojMDA3MmM2IiBkPSJtIDAsMTMuNjggdiA3Mi43NSBjIDAsNy41NSAxNi45MSwxMy42OCAzNy43NiwxMy42OCBWIDEzLjY4IGMgMCwwIC0zNy43NiwwIC0zNy43NiwwIHoiLz4mI3hhOyYjeGE7PHBhdGggaWQ9InBhdGg5NzAyMiIgaW5rc2NhcGU6Y29ubmVjdG9yLWN1cnZhdHVyZT0iMCIgc3R5bGU9ImZpbGw6IzAwNzJjNiIgZD0ibSAzNy4yNCwxMDAuMTEgaCAwLjUyIGMgMjAuODUsMCAzNy43NiwtNi4xMyAzNy43NiwtMTMuNjggViAxMy42OCBIIDM3LjI0IFoiLz4mI3hhOyYjeGE7PHBhdGggaWQ9InBhdGg5NzAzMCIgaW5rc2NhcGU6Y29ubmVjdG9yLWN1cnZhdHVyZT0iMCIgc3R5bGU9ImZpbGw6I2ZmZmZmZjtmaWxsLW9wYWNpdHk6MC4xNSIgZD0ibSAzNy4yNCwxMDAuMTEgaCAwLjUyIGMgMjAuODUsMCAzNy43NiwtNi4xMyAzNy43NiwtMTMuNjggViAxMy42OCBIIDM3LjI0IFoiLz4mI3hhOyYjeGE7PHBhdGggaWQ9InBhdGg5NzAzOCIgaW5rc2NhcGU6Y29ubmVjdG9yLWN1cnZhdHVyZT0iMCIgc3R5bGU9ImZpbGw6I2ZmZmZmZiIgZD0ibSA3NS41MiwxMy42OCBjIDAsNy41NSAtMTYuOTEsMTMuNjggLTM3Ljc2LDEzLjY4IEMgMTYuOTEsMjcuMzYgMCwyMS4yMyAwLDEzLjY4IDAsNi4xMyAxNi45MSwwIDM3Ljc2LDAgNTguNjEsMCA3NS41Miw2LjEzIDc1LjUyLDEzLjY4IFoiLz4mI3hhOyYjeGE7PHBhdGggaWQ9InBhdGg5NzA0NiIgaW5rc2NhcGU6Y29ubmVjdG9yLWN1cnZhdHVyZT0iMCIgc3R5bGU9ImZpbGw6IzdmYmEwMCIgZD0ibSA2Ny44LDEyLjg5IGMgMCw0Ljk5IC0xMy40NSw5LjAzIC0zMC4wNCw5LjAzIC0xNi41OSwwIC0zMC4wNCwtNC4wNCAtMzAuMDQsLTkuMDMgMCwtNC45OCAxMy40NSwtOS4wMiAzMC4wNCwtOS4wMiAxNi41OSwwIDMwLjA0LDQuMDQgMzAuMDQsOS4wMiB6Ii8+JiN4YTsmI3hhOzxwYXRoIGlkPSJwYXRoOTcwNTQiIGlua3NjYXBlOmNvbm5lY3Rvci1jdXJ2YXR1cmU9IjAiIHN0eWxlPSJmaWxsOiNiOGQ0MzIiIGQ9Ik0gNjEuNTEsMTguNDEgQyA2NS40NCwxNi44OCA2Ny44LDE0Ljk3IDY3LjgsMTIuOSA2Ny44LDcuOTEgNTQuMzUsMy44NyAzNy43NiwzLjg3IDIxLjE3LDMuODcgNy43Miw3LjkxIDcuNzIsMTIuOSBjIDAsMi4wNyAyLjM2LDMuOTggNi4zLDUuNTEgNS40OSwtMi4xNCAxNC4wNywtMy41MSAyMy43NCwtMy41MSA5LjY3LDAgMTguMjUsMS4zNyAyMy43NSwzLjUxIHoiLz4mI3hhOyYjeGE7PHBhdGggaWQ9InBhdGg5NzA2MiIgaW5rc2NhcGU6Y29ubmVjdG9yLWN1cnZhdHVyZT0iMCIgc3R5bGU9ImZpbGw6I2ZmZmZmZiIgZD0ibSAyNS43Nyw2NC4xOCBjIDAsMi4yNiAtMC44Miw0LjAxIC0yLjQ2LDUuMjUgLTEuNjQsMS4yNCAtMy45LDEuODcgLTYuNzksMS44NyAtMi40NiwwIC00LjUyLC0wLjQ1IC02LjE3LC0xLjMzIHYgLTUuMzIgYyAxLjksMS42MSA0LDIuNDIgNi4zLDIuNDIgMS4xLDAgMS45NiwtMC4yMiAyLjU3LC0wLjY2IDAuNiwtMC40NCAwLjksLTEuMDMgMC45LC0xLjc2IDAsLTAuNzIgLTAuMjksLTEuMzUgLTAuODcsLTEuODggLTAuNTgsLTAuNTMgLTEuNzcsLTEuMjIgLTMuNTUsLTIuMDYgLTMuNjMsLTEuNzEgLTUuNDUsLTQuMDQgLTUuNDUsLTYuOTggMCwtMi4xNCAwLjc5LC0zLjg1IDIuMzgsLTUuMTQgMS41OCwtMS4yOSAzLjY5LC0xLjk0IDYuMzEsLTEuOTQgMi4zMywwIDQuMjUsMC4zMSA1Ljc5LDAuOTEgdiA0Ljk3IGMgLTEuNjEsLTEuMTEgLTMuNDQsLTEuNjYgLTUuNDksLTEuNjYgLTEuMDMsMCAtMS44NCwwLjIyIC0yLjQ0LDAuNjYgLTAuNiwwLjQzIC0wLjksMS4wMiAtMC45LDEuNzUgMCwwLjc1IDAuMjQsMS4zNyAwLjczLDEuODUgMC40OCwwLjQ4IDEuNDcsMS4wOCAyLjk2LDEuNzkgMi4yMywxLjA1IDMuODIsMi4xMiA0Ljc2LDMuMjEgMC45NSwxLjA4IDEuNDIsMi40NCAxLjQyLDQuMDUgeiIvPiYjeGE7JiN4YTs8cGF0aCBpZD0icGF0aDk3MDcwIiBpbmtzY2FwZTpjb25uZWN0b3ItY3VydmF0dXJlPSIwIiBzdHlsZT0iZmlsbDojZmZmZmZmIiBkPSJtIDUxLjQxLDU4Ljc5IGMgMCwyLjgxIC0wLjY0LDUuMjQgLTEuOTEsNy4zIC0xLjI4LDIuMDYgLTMuMDcsMy41IC01LjM5LDQuMzQgbCA2LjkyLDYuNCBIIDQ0LjA1IEwgMzkuMTEsNzEuMjkgQyAzNyw3MS4yMSAzNS4wOSw3MC42NSAzMy4zOSw2OS42MSBjIC0xLjcsLTEuMDQgLTMuMDIsLTIuNDcgLTMuOTQsLTQuMjggLTAuOTMsLTEuODEgLTEuMzksLTMuODMgLTEuMzksLTYuMDUgMCwtMi40NyAwLjUsLTQuNjggMS41LC02LjYxIDEuMDEsLTEuOTMgMi40MSwtMy40MiA0LjIzLC00LjQ2IDEuODIsLTEuMDQgMy45LC0xLjU2IDYuMjUsLTEuNTYgMi4xOSwwIDQuMTYsMC41IDUuODksMS41MSAxLjczLDEuMDEgMy4wOCwyLjQ0IDQuMDQsNC4zIDAuOTYsMS44NiAxLjQ0LDMuOTcgMS40NCw2LjMzIHogbSAtNS42NSwwLjMgYyAwLC0yLjQxIC0wLjUyLC00LjMyIC0xLjU4LC01LjcyIC0xLjA1LC0xLjQgLTIuNDksLTIuMSAtNC4zMiwtMi4xIC0xLjg2LDAgLTMuMzUsMC43IC00LjQ3LDIuMSAtMS4xMiwxLjQxIC0xLjY4LDMuMjggLTEuNjgsNS42MiAwLDIuMzMgMC41NSw0LjE5IDEuNjUsNS41OCAxLjA5LDEuMzkgMi41NSwyLjA4IDQuMzYsMi4wOCAxLjg2LDAgMy4zMiwtMC42NyA0LjQxLC0yLjAyIDEuMDksLTEuMzQgMS42MywtMy4xOSAxLjYzLC01LjU0IHoiLz4mI3hhOyYjeGE7PHBhdGggaWQ9InBhdGg5NzA3OCIgaW5rc2NhcGU6Y29ubmVjdG9yLWN1cnZhdHVyZT0iMCIgc3R5bGU9ImZpbGw6I2ZmZmZmZiIgZD0iTSA2OS41NCw3MC44OCBIIDU1LjM1IFYgNDcuMDUgaCA1LjM3IHYgMTkuNDcgaCA4LjgyIHoiLz4mI3hhOzwvc3ZnPg==;" vertex="1" parent="1">
          <mxGeometry x="770" y="785.5" width="41" height="53" as="geometry" />
        </mxCell>
        <mxCell id="YkJw-nBbiL5EOXAajBYS-24" value="mqtt slave broker" style="shape=image;verticalLabelPosition=bottom;labelBackgroundColor=#ffffff;verticalAlign=top;aspect=fixed;imageAspect=0;image=data:image/svg+xml,PHN2ZyB4bWxuczpjYz0iaHR0cDovL2NyZWF0aXZlY29tbW9ucy5vcmcvbnMjIiB4bWxuczpkYz0iaHR0cDovL3B1cmwub3JnL2RjL2VsZW1lbnRzLzEuMS8iIHhtbG5zOmlua3NjYXBlPSJodHRwOi8vd3d3Lmlua3NjYXBlLm9yZy9uYW1lc3BhY2VzL2lua3NjYXBlIiB4bWxuczpyZGY9Imh0dHA6Ly93d3cudzMub3JnLzE5OTkvMDIvMjItcmRmLXN5bnRheC1ucyMiIHhtbG5zOnNvZGlwb2RpPSJodHRwOi8vc29kaXBvZGkuc291cmNlZm9yZ2UubmV0L0RURC9zb2RpcG9kaS0wLmR0ZCIgeG1sbnM6c3ZnPSJodHRwOi8vd3d3LnczLm9yZy8yMDAwL3N2ZyIgeG1sbnM9Imh0dHA6Ly93d3cudzMub3JnLzIwMDAvc3ZnIiB4bWxuczp4bGluaz0iaHR0cDovL3d3dy53My5vcmcvMTk5OS94bGluayIgdmVyc2lvbj0iMS4xIiBpZD0ic3ZnNzkzNCIgaW5rc2NhcGU6dmVyc2lvbj0iMC45Mi4zICgyNDA1NTQ2LCAyMDE4LTAzLTExKSIgc29kaXBvZGk6ZG9jbmFtZT0ic2VydmVyXzQuc3ZnIiB4PSIwcHgiIHk9IjBweCIgdmlld0JveD0iMCAwIDM5Ljk3IDYzLjUxIiBzdHlsZT0iZW5hYmxlLWJhY2tncm91bmQ6bmV3IDAgMCAzOS45NyA2My41MTsiIHhtbDpzcGFjZT0icHJlc2VydmUiPiYjeGE7PHNvZGlwb2RpOm5hbWVkdmlldyBib3JkZXJjb2xvcj0iIzY2NjY2NiIgYm9yZGVyb3BhY2l0eT0iMSIgZml0LW1hcmdpbi1ib3R0b209IjAiIGZpdC1tYXJnaW4tbGVmdD0iMCIgZml0LW1hcmdpbi1yaWdodD0iMCIgZml0LW1hcmdpbi10b3A9IjAiIGdyaWR0b2xlcmFuY2U9IjEwIiBndWlkZXRvbGVyYW5jZT0iMTAiIGlkPSJuYW1lZHZpZXc3OTM2IiBpbmtzY2FwZTpjdXJyZW50LWxheWVyPSJzdmc3OTM0IiBpbmtzY2FwZTpjeD0iMjYuNjQ4OTkzIiBpbmtzY2FwZTpjeT0iNDIuMzQwNDk4IiBpbmtzY2FwZTpwYWdlb3BhY2l0eT0iMCIgaW5rc2NhcGU6cGFnZXNoYWRvdz0iMiIgaW5rc2NhcGU6d2luZG93LWhlaWdodD0iMTAxNyIgaW5rc2NhcGU6d2luZG93LW1heGltaXplZD0iMSIgaW5rc2NhcGU6d2luZG93LXdpZHRoPSIxOTIwIiBpbmtzY2FwZTp3aW5kb3cteD0iLTgiIGlua3NjYXBlOndpbmRvdy15PSItOCIgaW5rc2NhcGU6em9vbT0iMTAuMjU5ODExIiBvYmplY3R0b2xlcmFuY2U9IjEwIiBwYWdlY29sb3I9IiNmZmZmZmYiIHNob3dncmlkPSJmYWxzZSI+JiN4YTsJPC9zb2RpcG9kaTpuYW1lZHZpZXc+JiN4YTs8ZyBpZD0iZzc5MzIiIHRyYW5zZm9ybT0idHJhbnNsYXRlKDAuMDY0NjMzLDAuMDY1MzI3ODcpIj4mI3hhOwk8dGl0bGUgaWQ9InRpdGxlNzkwNyI+UGFnZS0xPC90aXRsZT4mI3hhOwk8ZyBpZD0iZ3JvdXA3NjUzLTEiIHRyYW5zZm9ybT0idHJhbnNsYXRlKDAuMzEwMzY3LC0wLjMxMDM2NykiPiYjeGE7CQk8dGl0bGUgaWQ9InRpdGxlNzkwOSI+U2VydmVyICM0PC90aXRsZT4mI3hhOwkJPGcgaWQ9InNoYXBlNzY1NC0yIj4mI3hhOwkJCTx0aXRsZSBpZD0idGl0bGU3OTExIj5TaGVldC43NjU0PC90aXRsZT4mI3hhOwkJCSYjeGE7CQkJCTxwYXRoIGlkPSJwYXRoNzkxMyIgaW5rc2NhcGU6Y29ubmVjdG9yLWN1cnZhdHVyZT0iMCIgc3R5bGU9ImZpbGw6IzNGNTc2NTtzdHJva2U6IzNGNTc2NTtzdHJva2Utd2lkdGg6MC43NTtzdHJva2UtbGluZWNhcDpyb3VuZDtzdHJva2UtbGluZWpvaW46cm91bmQ7c3Ryb2tlLW1pdGVybGltaXQ6MzsiIGQ9IiAgICAgTTAsMC42MnY2Mi43NmgzOS4yMlYwLjYySDB6Ii8+JiN4YTsJCTwvZz4mI3hhOwkJPGcgaWQ9InNoYXBlNzY1NS00Ij4mI3hhOwkJCTx0aXRsZSBpZD0idGl0bGU3OTE2Ij5TaGVldC43NjU1PC90aXRsZT4mI3hhOwkJCSYjeGE7CQkJCTxwYXRoIGlkPSJwYXRoNzkxOCIgaW5rc2NhcGU6Y29ubmVjdG9yLWN1cnZhdHVyZT0iMCIgc3R5bGU9ImZpbGw6bm9uZTtzdHJva2U6I0ZGRkZGRjtzdHJva2Utd2lkdGg6MC42MjA3O3N0cm9rZS1saW5lY2FwOnJvdW5kO3N0cm9rZS1saW5lam9pbjpyb3VuZDtzdHJva2UtbWl0ZXJsaW1pdDozOyIgZD0iICAgICBNMCw2My4zOGgzOS4yMlYwLjYySDBWNjMuMzhMMCw2My4zOCIvPiYjeGE7CQk8L2c+JiN4YTsJCTxnIGlkPSJzaGFwZTc2NTYtNyIgdHJhbnNmb3JtPSJ0cmFuc2xhdGUoMjkuMzA3NywtMjYuNTE2NykiPiYjeGE7CQkJPHRpdGxlIGlkPSJ0aXRsZTc5MjEiPlNoZWV0Ljc2NTY8L3RpdGxlPiYjeGE7CQkJJiN4YTsJCQkJPHBhdGggaWQ9InBhdGg3OTIzIiBpbmtzY2FwZTpjb25uZWN0b3ItY3VydmF0dXJlPSIwIiBzdHlsZT0iZmlsbDojRkZGRkZGO3N0cm9rZTojRkZGRkZGO3N0cm9rZS13aWR0aDowLjc1O3N0cm9rZS1saW5lY2FwOnNxdWFyZTtzdHJva2UtbWl0ZXJsaW1pdDozOyIgZD0iICAgICBNNC43Niw2MC45N2MwLTEuMzUtMS4wOC0yLjQ1LTIuMzYtMi40NWMtMS4zMiwwLTIuNCwxLjEtMi40LDIuNDVjMCwxLjMxLDEuMDgsMi40MSwyLjQsMi40MUMzLjY4LDYzLjM4LDQuNzYsNjIuMjgsNC43Niw2MC45N3oiLz4mI3hhOwkJPC9nPiYjeGE7CQk8ZyBpZD0ic2hhcGU3NjU3LTkiIHRyYW5zZm9ybT0idHJhbnNsYXRlKDE0Ljk1MzcsLTEwLjI1NTMpIj4mI3hhOwkJCTx0aXRsZSBpZD0idGl0bGU3OTI2Ij5TaGVldC43NjU3PC90aXRsZT4mI3hhOwkJCTxwYXRoIGlkPSJwYXRoNzkyOCIgaW5rc2NhcGU6Y29ubmVjdG9yLWN1cnZhdHVyZT0iMCIgc3R5bGU9ImZpbGw6I0ZGRkZGRjsiIGQ9Ik0wLDYzLjM4aDE5LjExdi0xLjZIMFY2My4zOHogTTAsNTguNmgxOS4xMSAgICAgdi0xLjU1SDBWNTguNnogTTAsNTMuODZoMTkuMTF2LTEuNTlIMFY1My44NnoiLz4mI3hhOwkJPC9nPiYjeGE7CTwvZz4mI3hhOzwvZz4mI3hhOzwvc3ZnPg==;" vertex="1" parent="1">
          <mxGeometry x="649.9999999999999" y="780" width="40" height="64" as="geometry" />
        </mxCell>
        <mxCell id="YkJw-nBbiL5EOXAajBYS-26" value="master\slave" style="shape=image;verticalLabelPosition=bottom;labelBackgroundColor=#ffffff;verticalAlign=top;aspect=fixed;imageAspect=0;image=data:image/svg+xml,PHN2ZyB4bWxuczpkYz0iaHR0cDovL3B1cmwub3JnL2RjL2VsZW1lbnRzLzEuMS8iIHhtbG5zOmNjPSJodHRwOi8vY3JlYXRpdmVjb21tb25zLm9yZy9ucyMiIHhtbG5zOnJkZj0iaHR0cDovL3d3dy53My5vcmcvMTk5OS8wMi8yMi1yZGYtc3ludGF4LW5zIyIgeG1sbnM6c3ZnPSJodHRwOi8vd3d3LnczLm9yZy8yMDAwL3N2ZyIgeG1sbnM9Imh0dHA6Ly93d3cudzMub3JnLzIwMDAvc3ZnIiB4bWxuczpzb2RpcG9kaT0iaHR0cDovL3NvZGlwb2RpLnNvdXJjZWZvcmdlLm5ldC9EVEQvc29kaXBvZGktMC5kdGQiIHhtbG5zOmlua3NjYXBlPSJodHRwOi8vd3d3Lmlua3NjYXBlLm9yZy9uYW1lc3BhY2VzL2lua3NjYXBlIiB2ZXJzaW9uPSIxLjEiIGlkPSJzdmc5NzA4NCIgaW5rc2NhcGU6dmVyc2lvbj0iMC45Mi4zICgyNDA1NTQ2LCAyMDE4LTAzLTExKSIgc29kaXBvZGk6ZG9jbmFtZT0ic3FsX2RhdGFiYXNlLnN2ZyIgeD0iMHB4IiB5PSIwcHgiIHZpZXdCb3g9IjAgMCA3NS41MiAxMDAuMTEiIHhtbDpzcGFjZT0icHJlc2VydmUiIHdpZHRoPSI3NS41MTk5OTciIGhlaWdodD0iMTAwLjExIj48bWV0YWRhdGEgaWQ9Im1ldGFkYXRhMTcyNiI+PHJkZjpSREY+PGNjOldvcmsgcmRmOmFib3V0PSIiPjxkYzpmb3JtYXQ+aW1hZ2Uvc3ZnK3htbDwvZGM6Zm9ybWF0PjxkYzp0eXBlIHJkZjpyZXNvdXJjZT0iaHR0cDovL3B1cmwub3JnL2RjL2RjbWl0eXBlL1N0aWxsSW1hZ2UiLz48ZGM6dGl0bGUvPjwvY2M6V29yaz48L3JkZjpSREY+PC9tZXRhZGF0YT48ZGVmcyBpZD0iZGVmczE3MjQiPiYjeGE7CSYjeGE7JiN4YTsJJiN4YTsmI3hhOwkmI3hhOyYjeGE7CSYjeGE7JiN4YTsJJiN4YTsmI3hhOwkmI3hhOyYjeGE7CSYjeGE7JiN4YTsJJiN4YTsmI3hhOwkmI3hhOyYjeGE7CQkmI3hhOwkmI3hhOwkJJiN4YTsJJiN4YTsJCSYjeGE7CSYjeGE7CQkmI3hhOwkmI3hhOwkJJiN4YTsJJiN4YTsJCSYjeGE7CSYjeGE7CQkmI3hhOwkmI3hhOwkJJiN4YTsJPC9kZWZzPiYjeGE7PGZpbHRlciBpZD0iZmlsdGVyXzIiPiYjeGE7CTxmZUdhdXNzaWFuQmx1ciBpZD0iZmVHYXVzc2lhbkJsdXI5NzAwMSIgc3RkRGV2aWF0aW9uPSIyIi8+JiN4YTs8L2ZpbHRlcj4mI3hhOzxzb2RpcG9kaTpuYW1lZHZpZXcgYm9yZGVyY29sb3I9IiM2NjY2NjYiIGJvcmRlcm9wYWNpdHk9IjEiIGZpdC1tYXJnaW4tYm90dG9tPSIwIiBmaXQtbWFyZ2luLWxlZnQ9IjAiIGZpdC1tYXJnaW4tcmlnaHQ9IjAiIGZpdC1tYXJnaW4tdG9wPSIwIiBncmlkdG9sZXJhbmNlPSIxMCIgZ3VpZGV0b2xlcmFuY2U9IjEwIiBpZD0ibmFtZWR2aWV3OTcwODYiIGlua3NjYXBlOmN1cnJlbnQtbGF5ZXI9InN2Zzk3MDg0IiBpbmtzY2FwZTpjeD0iLTQ2LjkyMDI2NSIgaW5rc2NhcGU6Y3k9IjM4LjczMTY2NiIgaW5rc2NhcGU6cGFnZW9wYWNpdHk9IjAiIGlua3NjYXBlOnBhZ2VzaGFkb3c9IjIiIGlua3NjYXBlOndpbmRvdy1oZWlnaHQ9IjEwMTciIGlua3NjYXBlOndpbmRvdy1tYXhpbWl6ZWQ9IjEiIGlua3NjYXBlOndpbmRvdy13aWR0aD0iMTkyMCIgaW5rc2NhcGU6d2luZG93LXg9Ii04IiBpbmtzY2FwZTp3aW5kb3cteT0iLTgiIGlua3NjYXBlOnpvb209IjUuMjE5MzE5NyIgb2JqZWN0dG9sZXJhbmNlPSIxMCIgcGFnZWNvbG9yPSIjZmZmZmZmIiBzaG93Z3JpZD0iZmFsc2UiPiYjeGE7CTwvc29kaXBvZGk6bmFtZWR2aWV3PiYjeGE7JiN4YTs8cGF0aCBpZD0icGF0aDk3MDE0IiBpbmtzY2FwZTpjb25uZWN0b3ItY3VydmF0dXJlPSIwIiBzdHlsZT0iZmlsbDojMDA3MmM2IiBkPSJtIDAsMTMuNjggdiA3Mi43NSBjIDAsNy41NSAxNi45MSwxMy42OCAzNy43NiwxMy42OCBWIDEzLjY4IGMgMCwwIC0zNy43NiwwIC0zNy43NiwwIHoiLz4mI3hhOyYjeGE7PHBhdGggaWQ9InBhdGg5NzAyMiIgaW5rc2NhcGU6Y29ubmVjdG9yLWN1cnZhdHVyZT0iMCIgc3R5bGU9ImZpbGw6IzAwNzJjNiIgZD0ibSAzNy4yNCwxMDAuMTEgaCAwLjUyIGMgMjAuODUsMCAzNy43NiwtNi4xMyAzNy43NiwtMTMuNjggViAxMy42OCBIIDM3LjI0IFoiLz4mI3hhOyYjeGE7PHBhdGggaWQ9InBhdGg5NzAzMCIgaW5rc2NhcGU6Y29ubmVjdG9yLWN1cnZhdHVyZT0iMCIgc3R5bGU9ImZpbGw6I2ZmZmZmZjtmaWxsLW9wYWNpdHk6MC4xNSIgZD0ibSAzNy4yNCwxMDAuMTEgaCAwLjUyIGMgMjAuODUsMCAzNy43NiwtNi4xMyAzNy43NiwtMTMuNjggViAxMy42OCBIIDM3LjI0IFoiLz4mI3hhOyYjeGE7PHBhdGggaWQ9InBhdGg5NzAzOCIgaW5rc2NhcGU6Y29ubmVjdG9yLWN1cnZhdHVyZT0iMCIgc3R5bGU9ImZpbGw6I2ZmZmZmZiIgZD0ibSA3NS41MiwxMy42OCBjIDAsNy41NSAtMTYuOTEsMTMuNjggLTM3Ljc2LDEzLjY4IEMgMTYuOTEsMjcuMzYgMCwyMS4yMyAwLDEzLjY4IDAsNi4xMyAxNi45MSwwIDM3Ljc2LDAgNTguNjEsMCA3NS41Miw2LjEzIDc1LjUyLDEzLjY4IFoiLz4mI3hhOyYjeGE7PHBhdGggaWQ9InBhdGg5NzA0NiIgaW5rc2NhcGU6Y29ubmVjdG9yLWN1cnZhdHVyZT0iMCIgc3R5bGU9ImZpbGw6IzdmYmEwMCIgZD0ibSA2Ny44LDEyLjg5IGMgMCw0Ljk5IC0xMy40NSw5LjAzIC0zMC4wNCw5LjAzIC0xNi41OSwwIC0zMC4wNCwtNC4wNCAtMzAuMDQsLTkuMDMgMCwtNC45OCAxMy40NSwtOS4wMiAzMC4wNCwtOS4wMiAxNi41OSwwIDMwLjA0LDQuMDQgMzAuMDQsOS4wMiB6Ii8+JiN4YTsmI3hhOzxwYXRoIGlkPSJwYXRoOTcwNTQiIGlua3NjYXBlOmNvbm5lY3Rvci1jdXJ2YXR1cmU9IjAiIHN0eWxlPSJmaWxsOiNiOGQ0MzIiIGQ9Ik0gNjEuNTEsMTguNDEgQyA2NS40NCwxNi44OCA2Ny44LDE0Ljk3IDY3LjgsMTIuOSA2Ny44LDcuOTEgNTQuMzUsMy44NyAzNy43NiwzLjg3IDIxLjE3LDMuODcgNy43Miw3LjkxIDcuNzIsMTIuOSBjIDAsMi4wNyAyLjM2LDMuOTggNi4zLDUuNTEgNS40OSwtMi4xNCAxNC4wNywtMy41MSAyMy43NCwtMy41MSA5LjY3LDAgMTguMjUsMS4zNyAyMy43NSwzLjUxIHoiLz4mI3hhOyYjeGE7PHBhdGggaWQ9InBhdGg5NzA2MiIgaW5rc2NhcGU6Y29ubmVjdG9yLWN1cnZhdHVyZT0iMCIgc3R5bGU9ImZpbGw6I2ZmZmZmZiIgZD0ibSAyNS43Nyw2NC4xOCBjIDAsMi4yNiAtMC44Miw0LjAxIC0yLjQ2LDUuMjUgLTEuNjQsMS4yNCAtMy45LDEuODcgLTYuNzksMS44NyAtMi40NiwwIC00LjUyLC0wLjQ1IC02LjE3LC0xLjMzIHYgLTUuMzIgYyAxLjksMS42MSA0LDIuNDIgNi4zLDIuNDIgMS4xLDAgMS45NiwtMC4yMiAyLjU3LC0wLjY2IDAuNiwtMC40NCAwLjksLTEuMDMgMC45LC0xLjc2IDAsLTAuNzIgLTAuMjksLTEuMzUgLTAuODcsLTEuODggLTAuNTgsLTAuNTMgLTEuNzcsLTEuMjIgLTMuNTUsLTIuMDYgLTMuNjMsLTEuNzEgLTUuNDUsLTQuMDQgLTUuNDUsLTYuOTggMCwtMi4xNCAwLjc5LC0zLjg1IDIuMzgsLTUuMTQgMS41OCwtMS4yOSAzLjY5LC0xLjk0IDYuMzEsLTEuOTQgMi4zMywwIDQuMjUsMC4zMSA1Ljc5LDAuOTEgdiA0Ljk3IGMgLTEuNjEsLTEuMTEgLTMuNDQsLTEuNjYgLTUuNDksLTEuNjYgLTEuMDMsMCAtMS44NCwwLjIyIC0yLjQ0LDAuNjYgLTAuNiwwLjQzIC0wLjksMS4wMiAtMC45LDEuNzUgMCwwLjc1IDAuMjQsMS4zNyAwLjczLDEuODUgMC40OCwwLjQ4IDEuNDcsMS4wOCAyLjk2LDEuNzkgMi4yMywxLjA1IDMuODIsMi4xMiA0Ljc2LDMuMjEgMC45NSwxLjA4IDEuNDIsMi40NCAxLjQyLDQuMDUgeiIvPiYjeGE7JiN4YTs8cGF0aCBpZD0icGF0aDk3MDcwIiBpbmtzY2FwZTpjb25uZWN0b3ItY3VydmF0dXJlPSIwIiBzdHlsZT0iZmlsbDojZmZmZmZmIiBkPSJtIDUxLjQxLDU4Ljc5IGMgMCwyLjgxIC0wLjY0LDUuMjQgLTEuOTEsNy4zIC0xLjI4LDIuMDYgLTMuMDcsMy41IC01LjM5LDQuMzQgbCA2LjkyLDYuNCBIIDQ0LjA1IEwgMzkuMTEsNzEuMjkgQyAzNyw3MS4yMSAzNS4wOSw3MC42NSAzMy4zOSw2OS42MSBjIC0xLjcsLTEuMDQgLTMuMDIsLTIuNDcgLTMuOTQsLTQuMjggLTAuOTMsLTEuODEgLTEuMzksLTMuODMgLTEuMzksLTYuMDUgMCwtMi40NyAwLjUsLTQuNjggMS41LC02LjYxIDEuMDEsLTEuOTMgMi40MSwtMy40MiA0LjIzLC00LjQ2IDEuODIsLTEuMDQgMy45LC0xLjU2IDYuMjUsLTEuNTYgMi4xOSwwIDQuMTYsMC41IDUuODksMS41MSAxLjczLDEuMDEgMy4wOCwyLjQ0IDQuMDQsNC4zIDAuOTYsMS44NiAxLjQ0LDMuOTcgMS40NCw2LjMzIHogbSAtNS42NSwwLjMgYyAwLC0yLjQxIC0wLjUyLC00LjMyIC0xLjU4LC01LjcyIC0xLjA1LC0xLjQgLTIuNDksLTIuMSAtNC4zMiwtMi4xIC0xLjg2LDAgLTMuMzUsMC43IC00LjQ3LDIuMSAtMS4xMiwxLjQxIC0xLjY4LDMuMjggLTEuNjgsNS42MiAwLDIuMzMgMC41NSw0LjE5IDEuNjUsNS41OCAxLjA5LDEuMzkgMi41NSwyLjA4IDQuMzYsMi4wOCAxLjg2LDAgMy4zMiwtMC42NyA0LjQxLC0yLjAyIDEuMDksLTEuMzQgMS42MywtMy4xOSAxLjYzLC01LjU0IHoiLz4mI3hhOyYjeGE7PHBhdGggaWQ9InBhdGg5NzA3OCIgaW5rc2NhcGU6Y29ubmVjdG9yLWN1cnZhdHVyZT0iMCIgc3R5bGU9ImZpbGw6I2ZmZmZmZiIgZD0iTSA2OS41NCw3MC44OCBIIDU1LjM1IFYgNDcuMDUgaCA1LjM3IHYgMTkuNDcgaCA4LjgyIHoiLz4mI3hhOzwvc3ZnPg==;" vertex="1" parent="1">
          <mxGeometry x="330" y="640" width="41" height="53" as="geometry" />
        </mxCell>
        <mxCell id="YkJw-nBbiL5EOXAajBYS-33" style="edgeStyle=orthogonalEdgeStyle;rounded=0;orthogonalLoop=1;jettySize=auto;html=1;entryX=1;entryY=0.5;entryDx=0;entryDy=0;" edge="1" parent="1" source="YkJw-nBbiL5EOXAajBYS-30" target="YkJw-nBbiL5EOXAajBYS-26">
          <mxGeometry relative="1" as="geometry">
            <Array as="points">
              <mxPoint x="520" y="667" />
              <mxPoint x="436" y="667" />
            </Array>
          </mxGeometry>
        </mxCell>
        <mxCell id="YkJw-nBbiL5EOXAajBYS-63" style="edgeStyle=orthogonalEdgeStyle;rounded=0;orthogonalLoop=1;jettySize=auto;html=1;entryX=0.526;entryY=0;entryDx=0;entryDy=0;entryPerimeter=0;" edge="1" parent="1" source="YkJw-nBbiL5EOXAajBYS-30" target="YkJw-nBbiL5EOXAajBYS-38">
          <mxGeometry relative="1" as="geometry">
            <Array as="points">
              <mxPoint x="670" y="571" />
            </Array>
          </mxGeometry>
        </mxCell>
        <mxCell id="YkJw-nBbiL5EOXAajBYS-30" value="mqtt client" style="shape=image;verticalLabelPosition=bottom;labelBackgroundColor=#ffffff;verticalAlign=top;aspect=fixed;imageAspect=0;image=data:image/svg+xml,PHN2ZyB4bWxuczpjYz0iaHR0cDovL2NyZWF0aXZlY29tbW9ucy5vcmcvbnMjIiB4bWxuczpkYz0iaHR0cDovL3B1cmwub3JnL2RjL2VsZW1lbnRzLzEuMS8iIHhtbG5zOmlua3NjYXBlPSJodHRwOi8vd3d3Lmlua3NjYXBlLm9yZy9uYW1lc3BhY2VzL2lua3NjYXBlIiB4bWxuczpyZGY9Imh0dHA6Ly93d3cudzMub3JnLzE5OTkvMDIvMjItcmRmLXN5bnRheC1ucyMiIHhtbG5zOnNvZGlwb2RpPSJodHRwOi8vc29kaXBvZGkuc291cmNlZm9yZ2UubmV0L0RURC9zb2RpcG9kaS0wLmR0ZCIgeG1sbnM6c3ZnPSJodHRwOi8vd3d3LnczLm9yZy8yMDAwL3N2ZyIgeG1sbnM9Imh0dHA6Ly93d3cudzMub3JnLzIwMDAvc3ZnIiB4bWxuczp4bGluaz0iaHR0cDovL3d3dy53My5vcmcvMTk5OS94bGluayIgdmVyc2lvbj0iMS4xIiBpZD0ic3ZnNzkzNCIgaW5rc2NhcGU6dmVyc2lvbj0iMC45Mi4zICgyNDA1NTQ2LCAyMDE4LTAzLTExKSIgc29kaXBvZGk6ZG9jbmFtZT0ic2VydmVyXzQuc3ZnIiB4PSIwcHgiIHk9IjBweCIgdmlld0JveD0iMCAwIDM5Ljk3IDYzLjUxIiBzdHlsZT0iZW5hYmxlLWJhY2tncm91bmQ6bmV3IDAgMCAzOS45NyA2My41MTsiIHhtbDpzcGFjZT0icHJlc2VydmUiPiYjeGE7PHNvZGlwb2RpOm5hbWVkdmlldyBib3JkZXJjb2xvcj0iIzY2NjY2NiIgYm9yZGVyb3BhY2l0eT0iMSIgZml0LW1hcmdpbi1ib3R0b209IjAiIGZpdC1tYXJnaW4tbGVmdD0iMCIgZml0LW1hcmdpbi1yaWdodD0iMCIgZml0LW1hcmdpbi10b3A9IjAiIGdyaWR0b2xlcmFuY2U9IjEwIiBndWlkZXRvbGVyYW5jZT0iMTAiIGlkPSJuYW1lZHZpZXc3OTM2IiBpbmtzY2FwZTpjdXJyZW50LWxheWVyPSJzdmc3OTM0IiBpbmtzY2FwZTpjeD0iMjYuNjQ4OTkzIiBpbmtzY2FwZTpjeT0iNDIuMzQwNDk4IiBpbmtzY2FwZTpwYWdlb3BhY2l0eT0iMCIgaW5rc2NhcGU6cGFnZXNoYWRvdz0iMiIgaW5rc2NhcGU6d2luZG93LWhlaWdodD0iMTAxNyIgaW5rc2NhcGU6d2luZG93LW1heGltaXplZD0iMSIgaW5rc2NhcGU6d2luZG93LXdpZHRoPSIxOTIwIiBpbmtzY2FwZTp3aW5kb3cteD0iLTgiIGlua3NjYXBlOndpbmRvdy15PSItOCIgaW5rc2NhcGU6em9vbT0iMTAuMjU5ODExIiBvYmplY3R0b2xlcmFuY2U9IjEwIiBwYWdlY29sb3I9IiNmZmZmZmYiIHNob3dncmlkPSJmYWxzZSI+JiN4YTsJPC9zb2RpcG9kaTpuYW1lZHZpZXc+JiN4YTs8ZyBpZD0iZzc5MzIiIHRyYW5zZm9ybT0idHJhbnNsYXRlKDAuMDY0NjMzLDAuMDY1MzI3ODcpIj4mI3hhOwk8dGl0bGUgaWQ9InRpdGxlNzkwNyI+UGFnZS0xPC90aXRsZT4mI3hhOwk8ZyBpZD0iZ3JvdXA3NjUzLTEiIHRyYW5zZm9ybT0idHJhbnNsYXRlKDAuMzEwMzY3LC0wLjMxMDM2NykiPiYjeGE7CQk8dGl0bGUgaWQ9InRpdGxlNzkwOSI+U2VydmVyICM0PC90aXRsZT4mI3hhOwkJPGcgaWQ9InNoYXBlNzY1NC0yIj4mI3hhOwkJCTx0aXRsZSBpZD0idGl0bGU3OTExIj5TaGVldC43NjU0PC90aXRsZT4mI3hhOwkJCSYjeGE7CQkJCTxwYXRoIGlkPSJwYXRoNzkxMyIgaW5rc2NhcGU6Y29ubmVjdG9yLWN1cnZhdHVyZT0iMCIgc3R5bGU9ImZpbGw6IzNGNTc2NTtzdHJva2U6IzNGNTc2NTtzdHJva2Utd2lkdGg6MC43NTtzdHJva2UtbGluZWNhcDpyb3VuZDtzdHJva2UtbGluZWpvaW46cm91bmQ7c3Ryb2tlLW1pdGVybGltaXQ6MzsiIGQ9IiAgICAgTTAsMC42MnY2Mi43NmgzOS4yMlYwLjYySDB6Ii8+JiN4YTsJCTwvZz4mI3hhOwkJPGcgaWQ9InNoYXBlNzY1NS00Ij4mI3hhOwkJCTx0aXRsZSBpZD0idGl0bGU3OTE2Ij5TaGVldC43NjU1PC90aXRsZT4mI3hhOwkJCSYjeGE7CQkJCTxwYXRoIGlkPSJwYXRoNzkxOCIgaW5rc2NhcGU6Y29ubmVjdG9yLWN1cnZhdHVyZT0iMCIgc3R5bGU9ImZpbGw6bm9uZTtzdHJva2U6I0ZGRkZGRjtzdHJva2Utd2lkdGg6MC42MjA3O3N0cm9rZS1saW5lY2FwOnJvdW5kO3N0cm9rZS1saW5lam9pbjpyb3VuZDtzdHJva2UtbWl0ZXJsaW1pdDozOyIgZD0iICAgICBNMCw2My4zOGgzOS4yMlYwLjYySDBWNjMuMzhMMCw2My4zOCIvPiYjeGE7CQk8L2c+JiN4YTsJCTxnIGlkPSJzaGFwZTc2NTYtNyIgdHJhbnNmb3JtPSJ0cmFuc2xhdGUoMjkuMzA3NywtMjYuNTE2NykiPiYjeGE7CQkJPHRpdGxlIGlkPSJ0aXRsZTc5MjEiPlNoZWV0Ljc2NTY8L3RpdGxlPiYjeGE7CQkJJiN4YTsJCQkJPHBhdGggaWQ9InBhdGg3OTIzIiBpbmtzY2FwZTpjb25uZWN0b3ItY3VydmF0dXJlPSIwIiBzdHlsZT0iZmlsbDojRkZGRkZGO3N0cm9rZTojRkZGRkZGO3N0cm9rZS13aWR0aDowLjc1O3N0cm9rZS1saW5lY2FwOnNxdWFyZTtzdHJva2UtbWl0ZXJsaW1pdDozOyIgZD0iICAgICBNNC43Niw2MC45N2MwLTEuMzUtMS4wOC0yLjQ1LTIuMzYtMi40NWMtMS4zMiwwLTIuNCwxLjEtMi40LDIuNDVjMCwxLjMxLDEuMDgsMi40MSwyLjQsMi40MUMzLjY4LDYzLjM4LDQuNzYsNjIuMjgsNC43Niw2MC45N3oiLz4mI3hhOwkJPC9nPiYjeGE7CQk8ZyBpZD0ic2hhcGU3NjU3LTkiIHRyYW5zZm9ybT0idHJhbnNsYXRlKDE0Ljk1MzcsLTEwLjI1NTMpIj4mI3hhOwkJCTx0aXRsZSBpZD0idGl0bGU3OTI2Ij5TaGVldC43NjU3PC90aXRsZT4mI3hhOwkJCTxwYXRoIGlkPSJwYXRoNzkyOCIgaW5rc2NhcGU6Y29ubmVjdG9yLWN1cnZhdHVyZT0iMCIgc3R5bGU9ImZpbGw6I0ZGRkZGRjsiIGQ9Ik0wLDYzLjM4aDE5LjExdi0xLjZIMFY2My4zOHogTTAsNTguNmgxOS4xMSAgICAgdi0xLjU1SDBWNTguNnogTTAsNTMuODZoMTkuMTF2LTEuNTlIMFY1My44NnoiLz4mI3hhOwkJPC9nPiYjeGE7CTwvZz4mI3hhOzwvZz4mI3hhOzwvc3ZnPg==;" vertex="1" parent="1">
          <mxGeometry x="489.9999999999999" y="539" width="40" height="64" as="geometry" />
        </mxCell>
        <mxCell id="YkJw-nBbiL5EOXAajBYS-36" style="edgeStyle=orthogonalEdgeStyle;rounded=0;orthogonalLoop=1;jettySize=auto;html=1;" edge="1" parent="1" source="YkJw-nBbiL5EOXAajBYS-34" target="YkJw-nBbiL5EOXAajBYS-35">
          <mxGeometry relative="1" as="geometry" />
        </mxCell>
        <mxCell id="YkJw-nBbiL5EOXAajBYS-34" value="mqtt client : gate1" style="aspect=fixed;html=1;points=[];align=center;image;fontSize=12;image=img/lib/mscae/Application_Gateway.svg;" vertex="1" parent="1">
          <mxGeometry x="470" y="1020" width="50" height="50" as="geometry" />
        </mxCell>
        <mxCell id="YkJw-nBbiL5EOXAajBYS-35" value="senser:1001" style="aspect=fixed;html=1;points=[];align=center;image;fontSize=12;image=img/lib/mscae/Application_Insights.svg;" vertex="1" parent="1">
          <mxGeometry x="479" y="1130" width="32" height="50" as="geometry" />
        </mxCell>
        <mxCell id="YkJw-nBbiL5EOXAajBYS-42" value="UDP client" style="aspect=fixed;html=1;points=[];align=center;image;fontSize=12;image=img/lib/mscae/Device_Config.svg;" vertex="1" parent="1">
          <mxGeometry x="1046" y="1130" width="44" height="50" as="geometry" />
        </mxCell>
        <mxCell id="YkJw-nBbiL5EOXAajBYS-43" value="TCP client" style="aspect=fixed;html=1;points=[];align=center;image;fontSize=12;image=img/lib/mscae/Device_Config.svg;" vertex="1" parent="1">
          <mxGeometry x="1176" y="1130" width="44" height="50" as="geometry" />
        </mxCell>
        <mxCell id="YkJw-nBbiL5EOXAajBYS-44" value="mqtt client" style="shape=image;verticalLabelPosition=bottom;labelBackgroundColor=#ffffff;verticalAlign=top;aspect=fixed;imageAspect=0;image=data:image/svg+xml,PHN2ZyB4bWxuczpjYz0iaHR0cDovL2NyZWF0aXZlY29tbW9ucy5vcmcvbnMjIiB4bWxuczpkYz0iaHR0cDovL3B1cmwub3JnL2RjL2VsZW1lbnRzLzEuMS8iIHhtbG5zOmlua3NjYXBlPSJodHRwOi8vd3d3Lmlua3NjYXBlLm9yZy9uYW1lc3BhY2VzL2lua3NjYXBlIiB4bWxuczpyZGY9Imh0dHA6Ly93d3cudzMub3JnLzE5OTkvMDIvMjItcmRmLXN5bnRheC1ucyMiIHhtbG5zOnNvZGlwb2RpPSJodHRwOi8vc29kaXBvZGkuc291cmNlZm9yZ2UubmV0L0RURC9zb2RpcG9kaS0wLmR0ZCIgeG1sbnM6c3ZnPSJodHRwOi8vd3d3LnczLm9yZy8yMDAwL3N2ZyIgeG1sbnM9Imh0dHA6Ly93d3cudzMub3JnLzIwMDAvc3ZnIiB4bWxuczp4bGluaz0iaHR0cDovL3d3dy53My5vcmcvMTk5OS94bGluayIgdmVyc2lvbj0iMS4xIiBpZD0ic3ZnNzkzNCIgaW5rc2NhcGU6dmVyc2lvbj0iMC45Mi4zICgyNDA1NTQ2LCAyMDE4LTAzLTExKSIgc29kaXBvZGk6ZG9jbmFtZT0ic2VydmVyXzQuc3ZnIiB4PSIwcHgiIHk9IjBweCIgdmlld0JveD0iMCAwIDM5Ljk3IDYzLjUxIiBzdHlsZT0iZW5hYmxlLWJhY2tncm91bmQ6bmV3IDAgMCAzOS45NyA2My41MTsiIHhtbDpzcGFjZT0icHJlc2VydmUiPiYjeGE7PHNvZGlwb2RpOm5hbWVkdmlldyBib3JkZXJjb2xvcj0iIzY2NjY2NiIgYm9yZGVyb3BhY2l0eT0iMSIgZml0LW1hcmdpbi1ib3R0b209IjAiIGZpdC1tYXJnaW4tbGVmdD0iMCIgZml0LW1hcmdpbi1yaWdodD0iMCIgZml0LW1hcmdpbi10b3A9IjAiIGdyaWR0b2xlcmFuY2U9IjEwIiBndWlkZXRvbGVyYW5jZT0iMTAiIGlkPSJuYW1lZHZpZXc3OTM2IiBpbmtzY2FwZTpjdXJyZW50LWxheWVyPSJzdmc3OTM0IiBpbmtzY2FwZTpjeD0iMjYuNjQ4OTkzIiBpbmtzY2FwZTpjeT0iNDIuMzQwNDk4IiBpbmtzY2FwZTpwYWdlb3BhY2l0eT0iMCIgaW5rc2NhcGU6cGFnZXNoYWRvdz0iMiIgaW5rc2NhcGU6d2luZG93LWhlaWdodD0iMTAxNyIgaW5rc2NhcGU6d2luZG93LW1heGltaXplZD0iMSIgaW5rc2NhcGU6d2luZG93LXdpZHRoPSIxOTIwIiBpbmtzY2FwZTp3aW5kb3cteD0iLTgiIGlua3NjYXBlOndpbmRvdy15PSItOCIgaW5rc2NhcGU6em9vbT0iMTAuMjU5ODExIiBvYmplY3R0b2xlcmFuY2U9IjEwIiBwYWdlY29sb3I9IiNmZmZmZmYiIHNob3dncmlkPSJmYWxzZSI+JiN4YTsJPC9zb2RpcG9kaTpuYW1lZHZpZXc+JiN4YTs8ZyBpZD0iZzc5MzIiIHRyYW5zZm9ybT0idHJhbnNsYXRlKDAuMDY0NjMzLDAuMDY1MzI3ODcpIj4mI3hhOwk8dGl0bGUgaWQ9InRpdGxlNzkwNyI+UGFnZS0xPC90aXRsZT4mI3hhOwk8ZyBpZD0iZ3JvdXA3NjUzLTEiIHRyYW5zZm9ybT0idHJhbnNsYXRlKDAuMzEwMzY3LC0wLjMxMDM2NykiPiYjeGE7CQk8dGl0bGUgaWQ9InRpdGxlNzkwOSI+U2VydmVyICM0PC90aXRsZT4mI3hhOwkJPGcgaWQ9InNoYXBlNzY1NC0yIj4mI3hhOwkJCTx0aXRsZSBpZD0idGl0bGU3OTExIj5TaGVldC43NjU0PC90aXRsZT4mI3hhOwkJCSYjeGE7CQkJCTxwYXRoIGlkPSJwYXRoNzkxMyIgaW5rc2NhcGU6Y29ubmVjdG9yLWN1cnZhdHVyZT0iMCIgc3R5bGU9ImZpbGw6IzNGNTc2NTtzdHJva2U6IzNGNTc2NTtzdHJva2Utd2lkdGg6MC43NTtzdHJva2UtbGluZWNhcDpyb3VuZDtzdHJva2UtbGluZWpvaW46cm91bmQ7c3Ryb2tlLW1pdGVybGltaXQ6MzsiIGQ9IiAgICAgTTAsMC42MnY2Mi43NmgzOS4yMlYwLjYySDB6Ii8+JiN4YTsJCTwvZz4mI3hhOwkJPGcgaWQ9InNoYXBlNzY1NS00Ij4mI3hhOwkJCTx0aXRsZSBpZD0idGl0bGU3OTE2Ij5TaGVldC43NjU1PC90aXRsZT4mI3hhOwkJCSYjeGE7CQkJCTxwYXRoIGlkPSJwYXRoNzkxOCIgaW5rc2NhcGU6Y29ubmVjdG9yLWN1cnZhdHVyZT0iMCIgc3R5bGU9ImZpbGw6bm9uZTtzdHJva2U6I0ZGRkZGRjtzdHJva2Utd2lkdGg6MC42MjA3O3N0cm9rZS1saW5lY2FwOnJvdW5kO3N0cm9rZS1saW5lam9pbjpyb3VuZDtzdHJva2UtbWl0ZXJsaW1pdDozOyIgZD0iICAgICBNMCw2My4zOGgzOS4yMlYwLjYySDBWNjMuMzhMMCw2My4zOCIvPiYjeGE7CQk8L2c+JiN4YTsJCTxnIGlkPSJzaGFwZTc2NTYtNyIgdHJhbnNmb3JtPSJ0cmFuc2xhdGUoMjkuMzA3NywtMjYuNTE2NykiPiYjeGE7CQkJPHRpdGxlIGlkPSJ0aXRsZTc5MjEiPlNoZWV0Ljc2NTY8L3RpdGxlPiYjeGE7CQkJJiN4YTsJCQkJPHBhdGggaWQ9InBhdGg3OTIzIiBpbmtzY2FwZTpjb25uZWN0b3ItY3VydmF0dXJlPSIwIiBzdHlsZT0iZmlsbDojRkZGRkZGO3N0cm9rZTojRkZGRkZGO3N0cm9rZS13aWR0aDowLjc1O3N0cm9rZS1saW5lY2FwOnNxdWFyZTtzdHJva2UtbWl0ZXJsaW1pdDozOyIgZD0iICAgICBNNC43Niw2MC45N2MwLTEuMzUtMS4wOC0yLjQ1LTIuMzYtMi40NWMtMS4zMiwwLTIuNCwxLjEtMi40LDIuNDVjMCwxLjMxLDEuMDgsMi40MSwyLjQsMi40MUMzLjY4LDYzLjM4LDQuNzYsNjIuMjgsNC43Niw2MC45N3oiLz4mI3hhOwkJPC9nPiYjeGE7CQk8ZyBpZD0ic2hhcGU3NjU3LTkiIHRyYW5zZm9ybT0idHJhbnNsYXRlKDE0Ljk1MzcsLTEwLjI1NTMpIj4mI3hhOwkJCTx0aXRsZSBpZD0idGl0bGU3OTI2Ij5TaGVldC43NjU3PC90aXRsZT4mI3hhOwkJCTxwYXRoIGlkPSJwYXRoNzkyOCIgaW5rc2NhcGU6Y29ubmVjdG9yLWN1cnZhdHVyZT0iMCIgc3R5bGU9ImZpbGw6I0ZGRkZGRjsiIGQ9Ik0wLDYzLjM4aDE5LjExdi0xLjZIMFY2My4zOHogTTAsNTguNmgxOS4xMSAgICAgdi0xLjU1SDBWNTguNnogTTAsNTMuODZoMTkuMTF2LTEuNTlIMFY1My44NnoiLz4mI3hhOwkJPC9nPiYjeGE7CTwvZz4mI3hhOzwvZz4mI3hhOzwvc3ZnPg==;imageBackground=#FFFFFF;" vertex="1" parent="1">
          <mxGeometry x="1030" y="973" width="40" height="64" as="geometry" />
        </mxCell>
        <mxCell id="YkJw-nBbiL5EOXAajBYS-45" value="UDP server" style="shape=image;verticalLabelPosition=bottom;labelBackgroundColor=#ffffff;verticalAlign=top;aspect=fixed;imageAspect=0;image=data:image/svg+xml,PHN2ZyB4bWxuczpjYz0iaHR0cDovL2NyZWF0aXZlY29tbW9ucy5vcmcvbnMjIiB4bWxuczpkYz0iaHR0cDovL3B1cmwub3JnL2RjL2VsZW1lbnRzLzEuMS8iIHhtbG5zOmlua3NjYXBlPSJodHRwOi8vd3d3Lmlua3NjYXBlLm9yZy9uYW1lc3BhY2VzL2lua3NjYXBlIiB4bWxuczpyZGY9Imh0dHA6Ly93d3cudzMub3JnLzE5OTkvMDIvMjItcmRmLXN5bnRheC1ucyMiIHhtbG5zOnNvZGlwb2RpPSJodHRwOi8vc29kaXBvZGkuc291cmNlZm9yZ2UubmV0L0RURC9zb2RpcG9kaS0wLmR0ZCIgeG1sbnM6c3ZnPSJodHRwOi8vd3d3LnczLm9yZy8yMDAwL3N2ZyIgeG1sbnM9Imh0dHA6Ly93d3cudzMub3JnLzIwMDAvc3ZnIiB4bWxuczp4bGluaz0iaHR0cDovL3d3dy53My5vcmcvMTk5OS94bGluayIgdmVyc2lvbj0iMS4xIiBpZD0ic3ZnNzkzNCIgaW5rc2NhcGU6dmVyc2lvbj0iMC45Mi4zICgyNDA1NTQ2LCAyMDE4LTAzLTExKSIgc29kaXBvZGk6ZG9jbmFtZT0ic2VydmVyXzQuc3ZnIiB4PSIwcHgiIHk9IjBweCIgdmlld0JveD0iMCAwIDM5Ljk3IDYzLjUxIiBzdHlsZT0iZW5hYmxlLWJhY2tncm91bmQ6bmV3IDAgMCAzOS45NyA2My41MTsiIHhtbDpzcGFjZT0icHJlc2VydmUiPiYjeGE7PHNvZGlwb2RpOm5hbWVkdmlldyBib3JkZXJjb2xvcj0iIzY2NjY2NiIgYm9yZGVyb3BhY2l0eT0iMSIgZml0LW1hcmdpbi1ib3R0b209IjAiIGZpdC1tYXJnaW4tbGVmdD0iMCIgZml0LW1hcmdpbi1yaWdodD0iMCIgZml0LW1hcmdpbi10b3A9IjAiIGdyaWR0b2xlcmFuY2U9IjEwIiBndWlkZXRvbGVyYW5jZT0iMTAiIGlkPSJuYW1lZHZpZXc3OTM2IiBpbmtzY2FwZTpjdXJyZW50LWxheWVyPSJzdmc3OTM0IiBpbmtzY2FwZTpjeD0iMjYuNjQ4OTkzIiBpbmtzY2FwZTpjeT0iNDIuMzQwNDk4IiBpbmtzY2FwZTpwYWdlb3BhY2l0eT0iMCIgaW5rc2NhcGU6cGFnZXNoYWRvdz0iMiIgaW5rc2NhcGU6d2luZG93LWhlaWdodD0iMTAxNyIgaW5rc2NhcGU6d2luZG93LW1heGltaXplZD0iMSIgaW5rc2NhcGU6d2luZG93LXdpZHRoPSIxOTIwIiBpbmtzY2FwZTp3aW5kb3cteD0iLTgiIGlua3NjYXBlOndpbmRvdy15PSItOCIgaW5rc2NhcGU6em9vbT0iMTAuMjU5ODExIiBvYmplY3R0b2xlcmFuY2U9IjEwIiBwYWdlY29sb3I9IiNmZmZmZmYiIHNob3dncmlkPSJmYWxzZSI+JiN4YTsJPC9zb2RpcG9kaTpuYW1lZHZpZXc+JiN4YTs8ZyBpZD0iZzc5MzIiIHRyYW5zZm9ybT0idHJhbnNsYXRlKDAuMDY0NjMzLDAuMDY1MzI3ODcpIj4mI3hhOwk8dGl0bGUgaWQ9InRpdGxlNzkwNyI+UGFnZS0xPC90aXRsZT4mI3hhOwk8ZyBpZD0iZ3JvdXA3NjUzLTEiIHRyYW5zZm9ybT0idHJhbnNsYXRlKDAuMzEwMzY3LC0wLjMxMDM2NykiPiYjeGE7CQk8dGl0bGUgaWQ9InRpdGxlNzkwOSI+U2VydmVyICM0PC90aXRsZT4mI3hhOwkJPGcgaWQ9InNoYXBlNzY1NC0yIj4mI3hhOwkJCTx0aXRsZSBpZD0idGl0bGU3OTExIj5TaGVldC43NjU0PC90aXRsZT4mI3hhOwkJCSYjeGE7CQkJCTxwYXRoIGlkPSJwYXRoNzkxMyIgaW5rc2NhcGU6Y29ubmVjdG9yLWN1cnZhdHVyZT0iMCIgc3R5bGU9ImZpbGw6IzNGNTc2NTtzdHJva2U6IzNGNTc2NTtzdHJva2Utd2lkdGg6MC43NTtzdHJva2UtbGluZWNhcDpyb3VuZDtzdHJva2UtbGluZWpvaW46cm91bmQ7c3Ryb2tlLW1pdGVybGltaXQ6MzsiIGQ9IiAgICAgTTAsMC42MnY2Mi43NmgzOS4yMlYwLjYySDB6Ii8+JiN4YTsJCTwvZz4mI3hhOwkJPGcgaWQ9InNoYXBlNzY1NS00Ij4mI3hhOwkJCTx0aXRsZSBpZD0idGl0bGU3OTE2Ij5TaGVldC43NjU1PC90aXRsZT4mI3hhOwkJCSYjeGE7CQkJCTxwYXRoIGlkPSJwYXRoNzkxOCIgaW5rc2NhcGU6Y29ubmVjdG9yLWN1cnZhdHVyZT0iMCIgc3R5bGU9ImZpbGw6bm9uZTtzdHJva2U6I0ZGRkZGRjtzdHJva2Utd2lkdGg6MC42MjA3O3N0cm9rZS1saW5lY2FwOnJvdW5kO3N0cm9rZS1saW5lam9pbjpyb3VuZDtzdHJva2UtbWl0ZXJsaW1pdDozOyIgZD0iICAgICBNMCw2My4zOGgzOS4yMlYwLjYySDBWNjMuMzhMMCw2My4zOCIvPiYjeGE7CQk8L2c+JiN4YTsJCTxnIGlkPSJzaGFwZTc2NTYtNyIgdHJhbnNmb3JtPSJ0cmFuc2xhdGUoMjkuMzA3NywtMjYuNTE2NykiPiYjeGE7CQkJPHRpdGxlIGlkPSJ0aXRsZTc5MjEiPlNoZWV0Ljc2NTY8L3RpdGxlPiYjeGE7CQkJJiN4YTsJCQkJPHBhdGggaWQ9InBhdGg3OTIzIiBpbmtzY2FwZTpjb25uZWN0b3ItY3VydmF0dXJlPSIwIiBzdHlsZT0iZmlsbDojRkZGRkZGO3N0cm9rZTojRkZGRkZGO3N0cm9rZS13aWR0aDowLjc1O3N0cm9rZS1saW5lY2FwOnNxdWFyZTtzdHJva2UtbWl0ZXJsaW1pdDozOyIgZD0iICAgICBNNC43Niw2MC45N2MwLTEuMzUtMS4wOC0yLjQ1LTIuMzYtMi40NWMtMS4zMiwwLTIuNCwxLjEtMi40LDIuNDVjMCwxLjMxLDEuMDgsMi40MSwyLjQsMi40MUMzLjY4LDYzLjM4LDQuNzYsNjIuMjgsNC43Niw2MC45N3oiLz4mI3hhOwkJPC9nPiYjeGE7CQk8ZyBpZD0ic2hhcGU3NjU3LTkiIHRyYW5zZm9ybT0idHJhbnNsYXRlKDE0Ljk1MzcsLTEwLjI1NTMpIj4mI3hhOwkJCTx0aXRsZSBpZD0idGl0bGU3OTI2Ij5TaGVldC43NjU3PC90aXRsZT4mI3hhOwkJCTxwYXRoIGlkPSJwYXRoNzkyOCIgaW5rc2NhcGU6Y29ubmVjdG9yLWN1cnZhdHVyZT0iMCIgc3R5bGU9ImZpbGw6I0ZGRkZGRjsiIGQ9Ik0wLDYzLjM4aDE5LjExdi0xLjZIMFY2My4zOHogTTAsNTguNmgxOS4xMSAgICAgdi0xLjU1SDBWNTguNnogTTAsNTMuODZoMTkuMTF2LTEuNTlIMFY1My44NnoiLz4mI3hhOwkJPC9nPiYjeGE7CTwvZz4mI3hhOzwvZz4mI3hhOzwvc3ZnPg==;" vertex="1" parent="1">
          <mxGeometry x="1120" y="973" width="40" height="64" as="geometry" />
        </mxCell>
        <mxCell id="YkJw-nBbiL5EOXAajBYS-46" value="TCP server" style="shape=image;verticalLabelPosition=bottom;labelBackgroundColor=#ffffff;verticalAlign=top;aspect=fixed;imageAspect=0;image=data:image/svg+xml,PHN2ZyB4bWxuczpjYz0iaHR0cDovL2NyZWF0aXZlY29tbW9ucy5vcmcvbnMjIiB4bWxuczpkYz0iaHR0cDovL3B1cmwub3JnL2RjL2VsZW1lbnRzLzEuMS8iIHhtbG5zOmlua3NjYXBlPSJodHRwOi8vd3d3Lmlua3NjYXBlLm9yZy9uYW1lc3BhY2VzL2lua3NjYXBlIiB4bWxuczpyZGY9Imh0dHA6Ly93d3cudzMub3JnLzE5OTkvMDIvMjItcmRmLXN5bnRheC1ucyMiIHhtbG5zOnNvZGlwb2RpPSJodHRwOi8vc29kaXBvZGkuc291cmNlZm9yZ2UubmV0L0RURC9zb2RpcG9kaS0wLmR0ZCIgeG1sbnM6c3ZnPSJodHRwOi8vd3d3LnczLm9yZy8yMDAwL3N2ZyIgeG1sbnM9Imh0dHA6Ly93d3cudzMub3JnLzIwMDAvc3ZnIiB4bWxuczp4bGluaz0iaHR0cDovL3d3dy53My5vcmcvMTk5OS94bGluayIgdmVyc2lvbj0iMS4xIiBpZD0ic3ZnNzkzNCIgaW5rc2NhcGU6dmVyc2lvbj0iMC45Mi4zICgyNDA1NTQ2LCAyMDE4LTAzLTExKSIgc29kaXBvZGk6ZG9jbmFtZT0ic2VydmVyXzQuc3ZnIiB4PSIwcHgiIHk9IjBweCIgdmlld0JveD0iMCAwIDM5Ljk3IDYzLjUxIiBzdHlsZT0iZW5hYmxlLWJhY2tncm91bmQ6bmV3IDAgMCAzOS45NyA2My41MTsiIHhtbDpzcGFjZT0icHJlc2VydmUiPiYjeGE7PHNvZGlwb2RpOm5hbWVkdmlldyBib3JkZXJjb2xvcj0iIzY2NjY2NiIgYm9yZGVyb3BhY2l0eT0iMSIgZml0LW1hcmdpbi1ib3R0b209IjAiIGZpdC1tYXJnaW4tbGVmdD0iMCIgZml0LW1hcmdpbi1yaWdodD0iMCIgZml0LW1hcmdpbi10b3A9IjAiIGdyaWR0b2xlcmFuY2U9IjEwIiBndWlkZXRvbGVyYW5jZT0iMTAiIGlkPSJuYW1lZHZpZXc3OTM2IiBpbmtzY2FwZTpjdXJyZW50LWxheWVyPSJzdmc3OTM0IiBpbmtzY2FwZTpjeD0iMjYuNjQ4OTkzIiBpbmtzY2FwZTpjeT0iNDIuMzQwNDk4IiBpbmtzY2FwZTpwYWdlb3BhY2l0eT0iMCIgaW5rc2NhcGU6cGFnZXNoYWRvdz0iMiIgaW5rc2NhcGU6d2luZG93LWhlaWdodD0iMTAxNyIgaW5rc2NhcGU6d2luZG93LW1heGltaXplZD0iMSIgaW5rc2NhcGU6d2luZG93LXdpZHRoPSIxOTIwIiBpbmtzY2FwZTp3aW5kb3cteD0iLTgiIGlua3NjYXBlOndpbmRvdy15PSItOCIgaW5rc2NhcGU6em9vbT0iMTAuMjU5ODExIiBvYmplY3R0b2xlcmFuY2U9IjEwIiBwYWdlY29sb3I9IiNmZmZmZmYiIHNob3dncmlkPSJmYWxzZSI+JiN4YTsJPC9zb2RpcG9kaTpuYW1lZHZpZXc+JiN4YTs8ZyBpZD0iZzc5MzIiIHRyYW5zZm9ybT0idHJhbnNsYXRlKDAuMDY0NjMzLDAuMDY1MzI3ODcpIj4mI3hhOwk8dGl0bGUgaWQ9InRpdGxlNzkwNyI+UGFnZS0xPC90aXRsZT4mI3hhOwk8ZyBpZD0iZ3JvdXA3NjUzLTEiIHRyYW5zZm9ybT0idHJhbnNsYXRlKDAuMzEwMzY3LC0wLjMxMDM2NykiPiYjeGE7CQk8dGl0bGUgaWQ9InRpdGxlNzkwOSI+U2VydmVyICM0PC90aXRsZT4mI3hhOwkJPGcgaWQ9InNoYXBlNzY1NC0yIj4mI3hhOwkJCTx0aXRsZSBpZD0idGl0bGU3OTExIj5TaGVldC43NjU0PC90aXRsZT4mI3hhOwkJCSYjeGE7CQkJCTxwYXRoIGlkPSJwYXRoNzkxMyIgaW5rc2NhcGU6Y29ubmVjdG9yLWN1cnZhdHVyZT0iMCIgc3R5bGU9ImZpbGw6IzNGNTc2NTtzdHJva2U6IzNGNTc2NTtzdHJva2Utd2lkdGg6MC43NTtzdHJva2UtbGluZWNhcDpyb3VuZDtzdHJva2UtbGluZWpvaW46cm91bmQ7c3Ryb2tlLW1pdGVybGltaXQ6MzsiIGQ9IiAgICAgTTAsMC42MnY2Mi43NmgzOS4yMlYwLjYySDB6Ii8+JiN4YTsJCTwvZz4mI3hhOwkJPGcgaWQ9InNoYXBlNzY1NS00Ij4mI3hhOwkJCTx0aXRsZSBpZD0idGl0bGU3OTE2Ij5TaGVldC43NjU1PC90aXRsZT4mI3hhOwkJCSYjeGE7CQkJCTxwYXRoIGlkPSJwYXRoNzkxOCIgaW5rc2NhcGU6Y29ubmVjdG9yLWN1cnZhdHVyZT0iMCIgc3R5bGU9ImZpbGw6bm9uZTtzdHJva2U6I0ZGRkZGRjtzdHJva2Utd2lkdGg6MC42MjA3O3N0cm9rZS1saW5lY2FwOnJvdW5kO3N0cm9rZS1saW5lam9pbjpyb3VuZDtzdHJva2UtbWl0ZXJsaW1pdDozOyIgZD0iICAgICBNMCw2My4zOGgzOS4yMlYwLjYySDBWNjMuMzhMMCw2My4zOCIvPiYjeGE7CQk8L2c+JiN4YTsJCTxnIGlkPSJzaGFwZTc2NTYtNyIgdHJhbnNmb3JtPSJ0cmFuc2xhdGUoMjkuMzA3NywtMjYuNTE2NykiPiYjeGE7CQkJPHRpdGxlIGlkPSJ0aXRsZTc5MjEiPlNoZWV0Ljc2NTY8L3RpdGxlPiYjeGE7CQkJJiN4YTsJCQkJPHBhdGggaWQ9InBhdGg3OTIzIiBpbmtzY2FwZTpjb25uZWN0b3ItY3VydmF0dXJlPSIwIiBzdHlsZT0iZmlsbDojRkZGRkZGO3N0cm9rZTojRkZGRkZGO3N0cm9rZS13aWR0aDowLjc1O3N0cm9rZS1saW5lY2FwOnNxdWFyZTtzdHJva2UtbWl0ZXJsaW1pdDozOyIgZD0iICAgICBNNC43Niw2MC45N2MwLTEuMzUtMS4wOC0yLjQ1LTIuMzYtMi40NWMtMS4zMiwwLTIuNCwxLjEtMi40LDIuNDVjMCwxLjMxLDEuMDgsMi40MSwyLjQsMi40MUMzLjY4LDYzLjM4LDQuNzYsNjIuMjgsNC43Niw2MC45N3oiLz4mI3hhOwkJPC9nPiYjeGE7CQk8ZyBpZD0ic2hhcGU3NjU3LTkiIHRyYW5zZm9ybT0idHJhbnNsYXRlKDE0Ljk1MzcsLTEwLjI1NTMpIj4mI3hhOwkJCTx0aXRsZSBpZD0idGl0bGU3OTI2Ij5TaGVldC43NjU3PC90aXRsZT4mI3hhOwkJCTxwYXRoIGlkPSJwYXRoNzkyOCIgaW5rc2NhcGU6Y29ubmVjdG9yLWN1cnZhdHVyZT0iMCIgc3R5bGU9ImZpbGw6I0ZGRkZGRjsiIGQ9Ik0wLDYzLjM4aDE5LjExdi0xLjZIMFY2My4zOHogTTAsNTguNmgxOS4xMSAgICAgdi0xLjU1SDBWNTguNnogTTAsNTMuODZoMTkuMTF2LTEuNTlIMFY1My44NnoiLz4mI3hhOwkJPC9nPiYjeGE7CTwvZz4mI3hhOzwvZz4mI3hhOzwvc3ZnPg==;" vertex="1" parent="1">
          <mxGeometry x="1210" y="973" width="40" height="64" as="geometry" />
        </mxCell>
        <mxCell id="YkJw-nBbiL5EOXAajBYS-50" style="edgeStyle=orthogonalEdgeStyle;rounded=0;orthogonalLoop=1;jettySize=auto;html=1;" edge="1" parent="1" source="YkJw-nBbiL5EOXAajBYS-51" target="YkJw-nBbiL5EOXAajBYS-52">
          <mxGeometry relative="1" as="geometry" />
        </mxCell>
        <mxCell id="YkJw-nBbiL5EOXAajBYS-51" value="mqtt client : gate2" style="aspect=fixed;html=1;points=[];align=center;image;fontSize=12;image=img/lib/mscae/Application_Gateway.svg;" vertex="1" parent="1">
          <mxGeometry x="800" y="1020" width="50" height="50" as="geometry" />
        </mxCell>
        <mxCell id="YkJw-nBbiL5EOXAajBYS-52" value="senser" style="aspect=fixed;html=1;points=[];align=center;image;fontSize=12;image=img/lib/mscae/Application_Insights.svg;" vertex="1" parent="1">
          <mxGeometry x="809" y="1130" width="32" height="50" as="geometry" />
        </mxCell>
        <mxCell id="YkJw-nBbiL5EOXAajBYS-60" style="edgeStyle=orthogonalEdgeStyle;rounded=0;orthogonalLoop=1;jettySize=auto;html=1;entryX=0.563;entryY=-0.001;entryDx=0;entryDy=0;entryPerimeter=0;" edge="1" parent="1" source="YkJw-nBbiL5EOXAajBYS-38" target="YkJw-nBbiL5EOXAajBYS-48">
          <mxGeometry relative="1" as="geometry" />
        </mxCell>
        <mxCell id="YkJw-nBbiL5EOXAajBYS-64" style="edgeStyle=orthogonalEdgeStyle;rounded=0;orthogonalLoop=1;jettySize=auto;html=1;entryX=0.5;entryY=0;entryDx=0;entryDy=0;" edge="1" parent="1" source="YkJw-nBbiL5EOXAajBYS-65" target="YkJw-nBbiL5EOXAajBYS-71">
          <mxGeometry relative="1" as="geometry" />
        </mxCell>
        <mxCell id="YkJw-nBbiL5EOXAajBYS-65" value="app master server" style="shape=image;verticalLabelPosition=bottom;labelBackgroundColor=#ffffff;verticalAlign=top;aspect=fixed;imageAspect=0;image=data:image/svg+xml,PHN2ZyB4bWxuczpjYz0iaHR0cDovL2NyZWF0aXZlY29tbW9ucy5vcmcvbnMjIiB4bWxuczpkYz0iaHR0cDovL3B1cmwub3JnL2RjL2VsZW1lbnRzLzEuMS8iIHhtbG5zOmlua3NjYXBlPSJodHRwOi8vd3d3Lmlua3NjYXBlLm9yZy9uYW1lc3BhY2VzL2lua3NjYXBlIiB4bWxuczpyZGY9Imh0dHA6Ly93d3cudzMub3JnLzE5OTkvMDIvMjItcmRmLXN5bnRheC1ucyMiIHhtbG5zOnNvZGlwb2RpPSJodHRwOi8vc29kaXBvZGkuc291cmNlZm9yZ2UubmV0L0RURC9zb2RpcG9kaS0wLmR0ZCIgeG1sbnM6c3ZnPSJodHRwOi8vd3d3LnczLm9yZy8yMDAwL3N2ZyIgeG1sbnM9Imh0dHA6Ly93d3cudzMub3JnLzIwMDAvc3ZnIiB4bWxuczp4bGluaz0iaHR0cDovL3d3dy53My5vcmcvMTk5OS94bGluayIgdmVyc2lvbj0iMS4xIiBpZD0ic3ZnNzkzNCIgaW5rc2NhcGU6dmVyc2lvbj0iMC45Mi4zICgyNDA1NTQ2LCAyMDE4LTAzLTExKSIgc29kaXBvZGk6ZG9jbmFtZT0ic2VydmVyXzQuc3ZnIiB4PSIwcHgiIHk9IjBweCIgdmlld0JveD0iMCAwIDM5Ljk3IDYzLjUxIiBzdHlsZT0iZW5hYmxlLWJhY2tncm91bmQ6bmV3IDAgMCAzOS45NyA2My41MTsiIHhtbDpzcGFjZT0icHJlc2VydmUiPiYjeGE7PHNvZGlwb2RpOm5hbWVkdmlldyBib3JkZXJjb2xvcj0iIzY2NjY2NiIgYm9yZGVyb3BhY2l0eT0iMSIgZml0LW1hcmdpbi1ib3R0b209IjAiIGZpdC1tYXJnaW4tbGVmdD0iMCIgZml0LW1hcmdpbi1yaWdodD0iMCIgZml0LW1hcmdpbi10b3A9IjAiIGdyaWR0b2xlcmFuY2U9IjEwIiBndWlkZXRvbGVyYW5jZT0iMTAiIGlkPSJuYW1lZHZpZXc3OTM2IiBpbmtzY2FwZTpjdXJyZW50LWxheWVyPSJzdmc3OTM0IiBpbmtzY2FwZTpjeD0iMjYuNjQ4OTkzIiBpbmtzY2FwZTpjeT0iNDIuMzQwNDk4IiBpbmtzY2FwZTpwYWdlb3BhY2l0eT0iMCIgaW5rc2NhcGU6cGFnZXNoYWRvdz0iMiIgaW5rc2NhcGU6d2luZG93LWhlaWdodD0iMTAxNyIgaW5rc2NhcGU6d2luZG93LW1heGltaXplZD0iMSIgaW5rc2NhcGU6d2luZG93LXdpZHRoPSIxOTIwIiBpbmtzY2FwZTp3aW5kb3cteD0iLTgiIGlua3NjYXBlOndpbmRvdy15PSItOCIgaW5rc2NhcGU6em9vbT0iMTAuMjU5ODExIiBvYmplY3R0b2xlcmFuY2U9IjEwIiBwYWdlY29sb3I9IiNmZmZmZmYiIHNob3dncmlkPSJmYWxzZSI+JiN4YTsJPC9zb2RpcG9kaTpuYW1lZHZpZXc+JiN4YTs8ZyBpZD0iZzc5MzIiIHRyYW5zZm9ybT0idHJhbnNsYXRlKDAuMDY0NjMzLDAuMDY1MzI3ODcpIj4mI3hhOwk8dGl0bGUgaWQ9InRpdGxlNzkwNyI+UGFnZS0xPC90aXRsZT4mI3hhOwk8ZyBpZD0iZ3JvdXA3NjUzLTEiIHRyYW5zZm9ybT0idHJhbnNsYXRlKDAuMzEwMzY3LC0wLjMxMDM2NykiPiYjeGE7CQk8dGl0bGUgaWQ9InRpdGxlNzkwOSI+U2VydmVyICM0PC90aXRsZT4mI3hhOwkJPGcgaWQ9InNoYXBlNzY1NC0yIj4mI3hhOwkJCTx0aXRsZSBpZD0idGl0bGU3OTExIj5TaGVldC43NjU0PC90aXRsZT4mI3hhOwkJCSYjeGE7CQkJCTxwYXRoIGlkPSJwYXRoNzkxMyIgaW5rc2NhcGU6Y29ubmVjdG9yLWN1cnZhdHVyZT0iMCIgc3R5bGU9ImZpbGw6IzNGNTc2NTtzdHJva2U6IzNGNTc2NTtzdHJva2Utd2lkdGg6MC43NTtzdHJva2UtbGluZWNhcDpyb3VuZDtzdHJva2UtbGluZWpvaW46cm91bmQ7c3Ryb2tlLW1pdGVybGltaXQ6MzsiIGQ9IiAgICAgTTAsMC42MnY2Mi43NmgzOS4yMlYwLjYySDB6Ii8+JiN4YTsJCTwvZz4mI3hhOwkJPGcgaWQ9InNoYXBlNzY1NS00Ij4mI3hhOwkJCTx0aXRsZSBpZD0idGl0bGU3OTE2Ij5TaGVldC43NjU1PC90aXRsZT4mI3hhOwkJCSYjeGE7CQkJCTxwYXRoIGlkPSJwYXRoNzkxOCIgaW5rc2NhcGU6Y29ubmVjdG9yLWN1cnZhdHVyZT0iMCIgc3R5bGU9ImZpbGw6bm9uZTtzdHJva2U6I0ZGRkZGRjtzdHJva2Utd2lkdGg6MC42MjA3O3N0cm9rZS1saW5lY2FwOnJvdW5kO3N0cm9rZS1saW5lam9pbjpyb3VuZDtzdHJva2UtbWl0ZXJsaW1pdDozOyIgZD0iICAgICBNMCw2My4zOGgzOS4yMlYwLjYySDBWNjMuMzhMMCw2My4zOCIvPiYjeGE7CQk8L2c+JiN4YTsJCTxnIGlkPSJzaGFwZTc2NTYtNyIgdHJhbnNmb3JtPSJ0cmFuc2xhdGUoMjkuMzA3NywtMjYuNTE2NykiPiYjeGE7CQkJPHRpdGxlIGlkPSJ0aXRsZTc5MjEiPlNoZWV0Ljc2NTY8L3RpdGxlPiYjeGE7CQkJJiN4YTsJCQkJPHBhdGggaWQ9InBhdGg3OTIzIiBpbmtzY2FwZTpjb25uZWN0b3ItY3VydmF0dXJlPSIwIiBzdHlsZT0iZmlsbDojRkZGRkZGO3N0cm9rZTojRkZGRkZGO3N0cm9rZS13aWR0aDowLjc1O3N0cm9rZS1saW5lY2FwOnNxdWFyZTtzdHJva2UtbWl0ZXJsaW1pdDozOyIgZD0iICAgICBNNC43Niw2MC45N2MwLTEuMzUtMS4wOC0yLjQ1LTIuMzYtMi40NWMtMS4zMiwwLTIuNCwxLjEtMi40LDIuNDVjMCwxLjMxLDEuMDgsMi40MSwyLjQsMi40MUMzLjY4LDYzLjM4LDQuNzYsNjIuMjgsNC43Niw2MC45N3oiLz4mI3hhOwkJPC9nPiYjeGE7CQk8ZyBpZD0ic2hhcGU3NjU3LTkiIHRyYW5zZm9ybT0idHJhbnNsYXRlKDE0Ljk1MzcsLTEwLjI1NTMpIj4mI3hhOwkJCTx0aXRsZSBpZD0idGl0bGU3OTI2Ij5TaGVldC43NjU3PC90aXRsZT4mI3hhOwkJCTxwYXRoIGlkPSJwYXRoNzkyOCIgaW5rc2NhcGU6Y29ubmVjdG9yLWN1cnZhdHVyZT0iMCIgc3R5bGU9ImZpbGw6I0ZGRkZGRjsiIGQ9Ik0wLDYzLjM4aDE5LjExdi0xLjZIMFY2My4zOHogTTAsNTguNmgxOS4xMSAgICAgdi0xLjU1SDBWNTguNnogTTAsNTMuODZoMTkuMTF2LTEuNTlIMFY1My44NnoiLz4mI3hhOwkJPC9nPiYjeGE7CTwvZz4mI3hhOzwvZz4mI3hhOzwvc3ZnPg==;" vertex="1" parent="1">
          <mxGeometry x="909.9999999999999" y="543.5" width="40" height="64" as="geometry" />
        </mxCell>
        <mxCell id="YkJw-nBbiL5EOXAajBYS-66" style="edgeStyle=orthogonalEdgeStyle;rounded=0;orthogonalLoop=1;jettySize=auto;html=1;entryX=0.5;entryY=0;entryDx=0;entryDy=0;" edge="1" parent="1" source="YkJw-nBbiL5EOXAajBYS-68" target="YkJw-nBbiL5EOXAajBYS-65">
          <mxGeometry relative="1" as="geometry" />
        </mxCell>
        <mxCell id="YkJw-nBbiL5EOXAajBYS-67" style="edgeStyle=orthogonalEdgeStyle;rounded=0;orthogonalLoop=1;jettySize=auto;html=1;entryX=0.5;entryY=0;entryDx=0;entryDy=0;" edge="1" parent="1" source="YkJw-nBbiL5EOXAajBYS-68" target="YkJw-nBbiL5EOXAajBYS-70">
          <mxGeometry relative="1" as="geometry" />
        </mxCell>
        <mxCell id="YkJw-nBbiL5EOXAajBYS-68" value="ribbon" style="shape=image;verticalLabelPosition=bottom;labelBackgroundColor=#ffffff;verticalAlign=top;aspect=fixed;imageAspect=0;image=data:image/svg+xml,PHN2ZyB4bWxuczpjYz0iaHR0cDovL2NyZWF0aXZlY29tbW9ucy5vcmcvbnMjIiB4bWxuczpkYz0iaHR0cDovL3B1cmwub3JnL2RjL2VsZW1lbnRzLzEuMS8iIHhtbG5zOmlua3NjYXBlPSJodHRwOi8vd3d3Lmlua3NjYXBlLm9yZy9uYW1lc3BhY2VzL2lua3NjYXBlIiB4bWxuczpyZGY9Imh0dHA6Ly93d3cudzMub3JnLzE5OTkvMDIvMjItcmRmLXN5bnRheC1ucyMiIHhtbG5zOnNvZGlwb2RpPSJodHRwOi8vc29kaXBvZGkuc291cmNlZm9yZ2UubmV0L0RURC9zb2RpcG9kaS0wLmR0ZCIgeG1sbnM6c3ZnPSJodHRwOi8vd3d3LnczLm9yZy8yMDAwL3N2ZyIgeG1sbnM9Imh0dHA6Ly93d3cudzMub3JnLzIwMDAvc3ZnIiB4bWxuczp4bGluaz0iaHR0cDovL3d3dy53My5vcmcvMTk5OS94bGluayIgdmVyc2lvbj0iMS4xIiBpZD0ic3ZnNzkzNCIgaW5rc2NhcGU6dmVyc2lvbj0iMC45Mi4zICgyNDA1NTQ2LCAyMDE4LTAzLTExKSIgc29kaXBvZGk6ZG9jbmFtZT0ic2VydmVyXzQuc3ZnIiB4PSIwcHgiIHk9IjBweCIgdmlld0JveD0iMCAwIDM5Ljk3IDYzLjUxIiBzdHlsZT0iZW5hYmxlLWJhY2tncm91bmQ6bmV3IDAgMCAzOS45NyA2My41MTsiIHhtbDpzcGFjZT0icHJlc2VydmUiPiYjeGE7PHNvZGlwb2RpOm5hbWVkdmlldyBib3JkZXJjb2xvcj0iIzY2NjY2NiIgYm9yZGVyb3BhY2l0eT0iMSIgZml0LW1hcmdpbi1ib3R0b209IjAiIGZpdC1tYXJnaW4tbGVmdD0iMCIgZml0LW1hcmdpbi1yaWdodD0iMCIgZml0LW1hcmdpbi10b3A9IjAiIGdyaWR0b2xlcmFuY2U9IjEwIiBndWlkZXRvbGVyYW5jZT0iMTAiIGlkPSJuYW1lZHZpZXc3OTM2IiBpbmtzY2FwZTpjdXJyZW50LWxheWVyPSJzdmc3OTM0IiBpbmtzY2FwZTpjeD0iMjYuNjQ4OTkzIiBpbmtzY2FwZTpjeT0iNDIuMzQwNDk4IiBpbmtzY2FwZTpwYWdlb3BhY2l0eT0iMCIgaW5rc2NhcGU6cGFnZXNoYWRvdz0iMiIgaW5rc2NhcGU6d2luZG93LWhlaWdodD0iMTAxNyIgaW5rc2NhcGU6d2luZG93LW1heGltaXplZD0iMSIgaW5rc2NhcGU6d2luZG93LXdpZHRoPSIxOTIwIiBpbmtzY2FwZTp3aW5kb3cteD0iLTgiIGlua3NjYXBlOndpbmRvdy15PSItOCIgaW5rc2NhcGU6em9vbT0iMTAuMjU5ODExIiBvYmplY3R0b2xlcmFuY2U9IjEwIiBwYWdlY29sb3I9IiNmZmZmZmYiIHNob3dncmlkPSJmYWxzZSI+JiN4YTsJPC9zb2RpcG9kaTpuYW1lZHZpZXc+JiN4YTs8ZyBpZD0iZzc5MzIiIHRyYW5zZm9ybT0idHJhbnNsYXRlKDAuMDY0NjMzLDAuMDY1MzI3ODcpIj4mI3hhOwk8dGl0bGUgaWQ9InRpdGxlNzkwNyI+UGFnZS0xPC90aXRsZT4mI3hhOwk8ZyBpZD0iZ3JvdXA3NjUzLTEiIHRyYW5zZm9ybT0idHJhbnNsYXRlKDAuMzEwMzY3LC0wLjMxMDM2NykiPiYjeGE7CQk8dGl0bGUgaWQ9InRpdGxlNzkwOSI+U2VydmVyICM0PC90aXRsZT4mI3hhOwkJPGcgaWQ9InNoYXBlNzY1NC0yIj4mI3hhOwkJCTx0aXRsZSBpZD0idGl0bGU3OTExIj5TaGVldC43NjU0PC90aXRsZT4mI3hhOwkJCSYjeGE7CQkJCTxwYXRoIGlkPSJwYXRoNzkxMyIgaW5rc2NhcGU6Y29ubmVjdG9yLWN1cnZhdHVyZT0iMCIgc3R5bGU9ImZpbGw6IzNGNTc2NTtzdHJva2U6IzNGNTc2NTtzdHJva2Utd2lkdGg6MC43NTtzdHJva2UtbGluZWNhcDpyb3VuZDtzdHJva2UtbGluZWpvaW46cm91bmQ7c3Ryb2tlLW1pdGVybGltaXQ6MzsiIGQ9IiAgICAgTTAsMC42MnY2Mi43NmgzOS4yMlYwLjYySDB6Ii8+JiN4YTsJCTwvZz4mI3hhOwkJPGcgaWQ9InNoYXBlNzY1NS00Ij4mI3hhOwkJCTx0aXRsZSBpZD0idGl0bGU3OTE2Ij5TaGVldC43NjU1PC90aXRsZT4mI3hhOwkJCSYjeGE7CQkJCTxwYXRoIGlkPSJwYXRoNzkxOCIgaW5rc2NhcGU6Y29ubmVjdG9yLWN1cnZhdHVyZT0iMCIgc3R5bGU9ImZpbGw6bm9uZTtzdHJva2U6I0ZGRkZGRjtzdHJva2Utd2lkdGg6MC42MjA3O3N0cm9rZS1saW5lY2FwOnJvdW5kO3N0cm9rZS1saW5lam9pbjpyb3VuZDtzdHJva2UtbWl0ZXJsaW1pdDozOyIgZD0iICAgICBNMCw2My4zOGgzOS4yMlYwLjYySDBWNjMuMzhMMCw2My4zOCIvPiYjeGE7CQk8L2c+JiN4YTsJCTxnIGlkPSJzaGFwZTc2NTYtNyIgdHJhbnNmb3JtPSJ0cmFuc2xhdGUoMjkuMzA3NywtMjYuNTE2NykiPiYjeGE7CQkJPHRpdGxlIGlkPSJ0aXRsZTc5MjEiPlNoZWV0Ljc2NTY8L3RpdGxlPiYjeGE7CQkJJiN4YTsJCQkJPHBhdGggaWQ9InBhdGg3OTIzIiBpbmtzY2FwZTpjb25uZWN0b3ItY3VydmF0dXJlPSIwIiBzdHlsZT0iZmlsbDojRkZGRkZGO3N0cm9rZTojRkZGRkZGO3N0cm9rZS13aWR0aDowLjc1O3N0cm9rZS1saW5lY2FwOnNxdWFyZTtzdHJva2UtbWl0ZXJsaW1pdDozOyIgZD0iICAgICBNNC43Niw2MC45N2MwLTEuMzUtMS4wOC0yLjQ1LTIuMzYtMi40NWMtMS4zMiwwLTIuNCwxLjEtMi40LDIuNDVjMCwxLjMxLDEuMDgsMi40MSwyLjQsMi40MUMzLjY4LDYzLjM4LDQuNzYsNjIuMjgsNC43Niw2MC45N3oiLz4mI3hhOwkJPC9nPiYjeGE7CQk8ZyBpZD0ic2hhcGU3NjU3LTkiIHRyYW5zZm9ybT0idHJhbnNsYXRlKDE0Ljk1MzcsLTEwLjI1NTMpIj4mI3hhOwkJCTx0aXRsZSBpZD0idGl0bGU3OTI2Ij5TaGVldC43NjU3PC90aXRsZT4mI3hhOwkJCTxwYXRoIGlkPSJwYXRoNzkyOCIgaW5rc2NhcGU6Y29ubmVjdG9yLWN1cnZhdHVyZT0iMCIgc3R5bGU9ImZpbGw6I0ZGRkZGRjsiIGQ9Ik0wLDYzLjM4aDE5LjExdi0xLjZIMFY2My4zOHogTTAsNTguNmgxOS4xMSAgICAgdi0xLjU1SDBWNTguNnogTTAsNTMuODZoMTkuMTF2LTEuNTlIMFY1My44NnoiLz4mI3hhOwkJPC9nPiYjeGE7CTwvZz4mI3hhOzwvZz4mI3hhOzwvc3ZnPg==;" vertex="1" parent="1">
          <mxGeometry x="969.9999999999999" y="454.5" width="40" height="64" as="geometry" />
        </mxCell>
        <mxCell id="YkJw-nBbiL5EOXAajBYS-69" style="edgeStyle=orthogonalEdgeStyle;rounded=0;orthogonalLoop=1;jettySize=auto;html=1;entryX=0.5;entryY=0;entryDx=0;entryDy=0;" edge="1" parent="1" source="YkJw-nBbiL5EOXAajBYS-70" target="YkJw-nBbiL5EOXAajBYS-71">
          <mxGeometry relative="1" as="geometry" />
        </mxCell>
        <mxCell id="YkJw-nBbiL5EOXAajBYS-70" value="app slave server" style="shape=image;verticalLabelPosition=bottom;labelBackgroundColor=#ffffff;verticalAlign=top;aspect=fixed;imageAspect=0;image=data:image/svg+xml,PHN2ZyB4bWxuczpjYz0iaHR0cDovL2NyZWF0aXZlY29tbW9ucy5vcmcvbnMjIiB4bWxuczpkYz0iaHR0cDovL3B1cmwub3JnL2RjL2VsZW1lbnRzLzEuMS8iIHhtbG5zOmlua3NjYXBlPSJodHRwOi8vd3d3Lmlua3NjYXBlLm9yZy9uYW1lc3BhY2VzL2lua3NjYXBlIiB4bWxuczpyZGY9Imh0dHA6Ly93d3cudzMub3JnLzE5OTkvMDIvMjItcmRmLXN5bnRheC1ucyMiIHhtbG5zOnNvZGlwb2RpPSJodHRwOi8vc29kaXBvZGkuc291cmNlZm9yZ2UubmV0L0RURC9zb2RpcG9kaS0wLmR0ZCIgeG1sbnM6c3ZnPSJodHRwOi8vd3d3LnczLm9yZy8yMDAwL3N2ZyIgeG1sbnM9Imh0dHA6Ly93d3cudzMub3JnLzIwMDAvc3ZnIiB4bWxuczp4bGluaz0iaHR0cDovL3d3dy53My5vcmcvMTk5OS94bGluayIgdmVyc2lvbj0iMS4xIiBpZD0ic3ZnNzkzNCIgaW5rc2NhcGU6dmVyc2lvbj0iMC45Mi4zICgyNDA1NTQ2LCAyMDE4LTAzLTExKSIgc29kaXBvZGk6ZG9jbmFtZT0ic2VydmVyXzQuc3ZnIiB4PSIwcHgiIHk9IjBweCIgdmlld0JveD0iMCAwIDM5Ljk3IDYzLjUxIiBzdHlsZT0iZW5hYmxlLWJhY2tncm91bmQ6bmV3IDAgMCAzOS45NyA2My41MTsiIHhtbDpzcGFjZT0icHJlc2VydmUiPiYjeGE7PHNvZGlwb2RpOm5hbWVkdmlldyBib3JkZXJjb2xvcj0iIzY2NjY2NiIgYm9yZGVyb3BhY2l0eT0iMSIgZml0LW1hcmdpbi1ib3R0b209IjAiIGZpdC1tYXJnaW4tbGVmdD0iMCIgZml0LW1hcmdpbi1yaWdodD0iMCIgZml0LW1hcmdpbi10b3A9IjAiIGdyaWR0b2xlcmFuY2U9IjEwIiBndWlkZXRvbGVyYW5jZT0iMTAiIGlkPSJuYW1lZHZpZXc3OTM2IiBpbmtzY2FwZTpjdXJyZW50LWxheWVyPSJzdmc3OTM0IiBpbmtzY2FwZTpjeD0iMjYuNjQ4OTkzIiBpbmtzY2FwZTpjeT0iNDIuMzQwNDk4IiBpbmtzY2FwZTpwYWdlb3BhY2l0eT0iMCIgaW5rc2NhcGU6cGFnZXNoYWRvdz0iMiIgaW5rc2NhcGU6d2luZG93LWhlaWdodD0iMTAxNyIgaW5rc2NhcGU6d2luZG93LW1heGltaXplZD0iMSIgaW5rc2NhcGU6d2luZG93LXdpZHRoPSIxOTIwIiBpbmtzY2FwZTp3aW5kb3cteD0iLTgiIGlua3NjYXBlOndpbmRvdy15PSItOCIgaW5rc2NhcGU6em9vbT0iMTAuMjU5ODExIiBvYmplY3R0b2xlcmFuY2U9IjEwIiBwYWdlY29sb3I9IiNmZmZmZmYiIHNob3dncmlkPSJmYWxzZSI+JiN4YTsJPC9zb2RpcG9kaTpuYW1lZHZpZXc+JiN4YTs8ZyBpZD0iZzc5MzIiIHRyYW5zZm9ybT0idHJhbnNsYXRlKDAuMDY0NjMzLDAuMDY1MzI3ODcpIj4mI3hhOwk8dGl0bGUgaWQ9InRpdGxlNzkwNyI+UGFnZS0xPC90aXRsZT4mI3hhOwk8ZyBpZD0iZ3JvdXA3NjUzLTEiIHRyYW5zZm9ybT0idHJhbnNsYXRlKDAuMzEwMzY3LC0wLjMxMDM2NykiPiYjeGE7CQk8dGl0bGUgaWQ9InRpdGxlNzkwOSI+U2VydmVyICM0PC90aXRsZT4mI3hhOwkJPGcgaWQ9InNoYXBlNzY1NC0yIj4mI3hhOwkJCTx0aXRsZSBpZD0idGl0bGU3OTExIj5TaGVldC43NjU0PC90aXRsZT4mI3hhOwkJCSYjeGE7CQkJCTxwYXRoIGlkPSJwYXRoNzkxMyIgaW5rc2NhcGU6Y29ubmVjdG9yLWN1cnZhdHVyZT0iMCIgc3R5bGU9ImZpbGw6IzNGNTc2NTtzdHJva2U6IzNGNTc2NTtzdHJva2Utd2lkdGg6MC43NTtzdHJva2UtbGluZWNhcDpyb3VuZDtzdHJva2UtbGluZWpvaW46cm91bmQ7c3Ryb2tlLW1pdGVybGltaXQ6MzsiIGQ9IiAgICAgTTAsMC42MnY2Mi43NmgzOS4yMlYwLjYySDB6Ii8+JiN4YTsJCTwvZz4mI3hhOwkJPGcgaWQ9InNoYXBlNzY1NS00Ij4mI3hhOwkJCTx0aXRsZSBpZD0idGl0bGU3OTE2Ij5TaGVldC43NjU1PC90aXRsZT4mI3hhOwkJCSYjeGE7CQkJCTxwYXRoIGlkPSJwYXRoNzkxOCIgaW5rc2NhcGU6Y29ubmVjdG9yLWN1cnZhdHVyZT0iMCIgc3R5bGU9ImZpbGw6bm9uZTtzdHJva2U6I0ZGRkZGRjtzdHJva2Utd2lkdGg6MC42MjA3O3N0cm9rZS1saW5lY2FwOnJvdW5kO3N0cm9rZS1saW5lam9pbjpyb3VuZDtzdHJva2UtbWl0ZXJsaW1pdDozOyIgZD0iICAgICBNMCw2My4zOGgzOS4yMlYwLjYySDBWNjMuMzhMMCw2My4zOCIvPiYjeGE7CQk8L2c+JiN4YTsJCTxnIGlkPSJzaGFwZTc2NTYtNyIgdHJhbnNmb3JtPSJ0cmFuc2xhdGUoMjkuMzA3NywtMjYuNTE2NykiPiYjeGE7CQkJPHRpdGxlIGlkPSJ0aXRsZTc5MjEiPlNoZWV0Ljc2NTY8L3RpdGxlPiYjeGE7CQkJJiN4YTsJCQkJPHBhdGggaWQ9InBhdGg3OTIzIiBpbmtzY2FwZTpjb25uZWN0b3ItY3VydmF0dXJlPSIwIiBzdHlsZT0iZmlsbDojRkZGRkZGO3N0cm9rZTojRkZGRkZGO3N0cm9rZS13aWR0aDowLjc1O3N0cm9rZS1saW5lY2FwOnNxdWFyZTtzdHJva2UtbWl0ZXJsaW1pdDozOyIgZD0iICAgICBNNC43Niw2MC45N2MwLTEuMzUtMS4wOC0yLjQ1LTIuMzYtMi40NWMtMS4zMiwwLTIuNCwxLjEtMi40LDIuNDVjMCwxLjMxLDEuMDgsMi40MSwyLjQsMi40MUMzLjY4LDYzLjM4LDQuNzYsNjIuMjgsNC43Niw2MC45N3oiLz4mI3hhOwkJPC9nPiYjeGE7CQk8ZyBpZD0ic2hhcGU3NjU3LTkiIHRyYW5zZm9ybT0idHJhbnNsYXRlKDE0Ljk1MzcsLTEwLjI1NTMpIj4mI3hhOwkJCTx0aXRsZSBpZD0idGl0bGU3OTI2Ij5TaGVldC43NjU3PC90aXRsZT4mI3hhOwkJCTxwYXRoIGlkPSJwYXRoNzkyOCIgaW5rc2NhcGU6Y29ubmVjdG9yLWN1cnZhdHVyZT0iMCIgc3R5bGU9ImZpbGw6I0ZGRkZGRjsiIGQ9Ik0wLDYzLjM4aDE5LjExdi0xLjZIMFY2My4zOHogTTAsNTguNmgxOS4xMSAgICAgdi0xLjU1SDBWNTguNnogTTAsNTMuODZoMTkuMTF2LTEuNTlIMFY1My44NnoiLz4mI3hhOwkJPC9nPiYjeGE7CTwvZz4mI3hhOzwvZz4mI3hhOzwvc3ZnPg==;" vertex="1" parent="1">
          <mxGeometry x="1030" y="543.5" width="40" height="64" as="geometry" />
        </mxCell>
        <mxCell id="YkJw-nBbiL5EOXAajBYS-71" value="master\slave" style="shape=image;verticalLabelPosition=bottom;labelBackgroundColor=#ffffff;verticalAlign=top;aspect=fixed;imageAspect=0;image=data:image/svg+xml,PHN2ZyB4bWxuczpkYz0iaHR0cDovL3B1cmwub3JnL2RjL2VsZW1lbnRzLzEuMS8iIHhtbG5zOmNjPSJodHRwOi8vY3JlYXRpdmVjb21tb25zLm9yZy9ucyMiIHhtbG5zOnJkZj0iaHR0cDovL3d3dy53My5vcmcvMTk5OS8wMi8yMi1yZGYtc3ludGF4LW5zIyIgeG1sbnM6c3ZnPSJodHRwOi8vd3d3LnczLm9yZy8yMDAwL3N2ZyIgeG1sbnM9Imh0dHA6Ly93d3cudzMub3JnLzIwMDAvc3ZnIiB4bWxuczpzb2RpcG9kaT0iaHR0cDovL3NvZGlwb2RpLnNvdXJjZWZvcmdlLm5ldC9EVEQvc29kaXBvZGktMC5kdGQiIHhtbG5zOmlua3NjYXBlPSJodHRwOi8vd3d3Lmlua3NjYXBlLm9yZy9uYW1lc3BhY2VzL2lua3NjYXBlIiB2ZXJzaW9uPSIxLjEiIGlkPSJzdmc5NzA4NCIgaW5rc2NhcGU6dmVyc2lvbj0iMC45Mi4zICgyNDA1NTQ2LCAyMDE4LTAzLTExKSIgc29kaXBvZGk6ZG9jbmFtZT0ic3FsX2RhdGFiYXNlLnN2ZyIgeD0iMHB4IiB5PSIwcHgiIHZpZXdCb3g9IjAgMCA3NS41MiAxMDAuMTEiIHhtbDpzcGFjZT0icHJlc2VydmUiIHdpZHRoPSI3NS41MTk5OTciIGhlaWdodD0iMTAwLjExIj48bWV0YWRhdGEgaWQ9Im1ldGFkYXRhMTcyNiI+PHJkZjpSREY+PGNjOldvcmsgcmRmOmFib3V0PSIiPjxkYzpmb3JtYXQ+aW1hZ2Uvc3ZnK3htbDwvZGM6Zm9ybWF0PjxkYzp0eXBlIHJkZjpyZXNvdXJjZT0iaHR0cDovL3B1cmwub3JnL2RjL2RjbWl0eXBlL1N0aWxsSW1hZ2UiLz48ZGM6dGl0bGUvPjwvY2M6V29yaz48L3JkZjpSREY+PC9tZXRhZGF0YT48ZGVmcyBpZD0iZGVmczE3MjQiPiYjeGE7CSYjeGE7JiN4YTsJJiN4YTsmI3hhOwkmI3hhOyYjeGE7CSYjeGE7JiN4YTsJJiN4YTsmI3hhOwkmI3hhOyYjeGE7CSYjeGE7JiN4YTsJJiN4YTsmI3hhOwkmI3hhOyYjeGE7CQkmI3hhOwkmI3hhOwkJJiN4YTsJJiN4YTsJCSYjeGE7CSYjeGE7CQkmI3hhOwkmI3hhOwkJJiN4YTsJJiN4YTsJCSYjeGE7CSYjeGE7CQkmI3hhOwkmI3hhOwkJJiN4YTsJPC9kZWZzPiYjeGE7PGZpbHRlciBpZD0iZmlsdGVyXzIiPiYjeGE7CTxmZUdhdXNzaWFuQmx1ciBpZD0iZmVHYXVzc2lhbkJsdXI5NzAwMSIgc3RkRGV2aWF0aW9uPSIyIi8+JiN4YTs8L2ZpbHRlcj4mI3hhOzxzb2RpcG9kaTpuYW1lZHZpZXcgYm9yZGVyY29sb3I9IiM2NjY2NjYiIGJvcmRlcm9wYWNpdHk9IjEiIGZpdC1tYXJnaW4tYm90dG9tPSIwIiBmaXQtbWFyZ2luLWxlZnQ9IjAiIGZpdC1tYXJnaW4tcmlnaHQ9IjAiIGZpdC1tYXJnaW4tdG9wPSIwIiBncmlkdG9sZXJhbmNlPSIxMCIgZ3VpZGV0b2xlcmFuY2U9IjEwIiBpZD0ibmFtZWR2aWV3OTcwODYiIGlua3NjYXBlOmN1cnJlbnQtbGF5ZXI9InN2Zzk3MDg0IiBpbmtzY2FwZTpjeD0iLTQ2LjkyMDI2NSIgaW5rc2NhcGU6Y3k9IjM4LjczMTY2NiIgaW5rc2NhcGU6cGFnZW9wYWNpdHk9IjAiIGlua3NjYXBlOnBhZ2VzaGFkb3c9IjIiIGlua3NjYXBlOndpbmRvdy1oZWlnaHQ9IjEwMTciIGlua3NjYXBlOndpbmRvdy1tYXhpbWl6ZWQ9IjEiIGlua3NjYXBlOndpbmRvdy13aWR0aD0iMTkyMCIgaW5rc2NhcGU6d2luZG93LXg9Ii04IiBpbmtzY2FwZTp3aW5kb3cteT0iLTgiIGlua3NjYXBlOnpvb209IjUuMjE5MzE5NyIgb2JqZWN0dG9sZXJhbmNlPSIxMCIgcGFnZWNvbG9yPSIjZmZmZmZmIiBzaG93Z3JpZD0iZmFsc2UiPiYjeGE7CTwvc29kaXBvZGk6bmFtZWR2aWV3PiYjeGE7JiN4YTs8cGF0aCBpZD0icGF0aDk3MDE0IiBpbmtzY2FwZTpjb25uZWN0b3ItY3VydmF0dXJlPSIwIiBzdHlsZT0iZmlsbDojMDA3MmM2IiBkPSJtIDAsMTMuNjggdiA3Mi43NSBjIDAsNy41NSAxNi45MSwxMy42OCAzNy43NiwxMy42OCBWIDEzLjY4IGMgMCwwIC0zNy43NiwwIC0zNy43NiwwIHoiLz4mI3hhOyYjeGE7PHBhdGggaWQ9InBhdGg5NzAyMiIgaW5rc2NhcGU6Y29ubmVjdG9yLWN1cnZhdHVyZT0iMCIgc3R5bGU9ImZpbGw6IzAwNzJjNiIgZD0ibSAzNy4yNCwxMDAuMTEgaCAwLjUyIGMgMjAuODUsMCAzNy43NiwtNi4xMyAzNy43NiwtMTMuNjggViAxMy42OCBIIDM3LjI0IFoiLz4mI3hhOyYjeGE7PHBhdGggaWQ9InBhdGg5NzAzMCIgaW5rc2NhcGU6Y29ubmVjdG9yLWN1cnZhdHVyZT0iMCIgc3R5bGU9ImZpbGw6I2ZmZmZmZjtmaWxsLW9wYWNpdHk6MC4xNSIgZD0ibSAzNy4yNCwxMDAuMTEgaCAwLjUyIGMgMjAuODUsMCAzNy43NiwtNi4xMyAzNy43NiwtMTMuNjggViAxMy42OCBIIDM3LjI0IFoiLz4mI3hhOyYjeGE7PHBhdGggaWQ9InBhdGg5NzAzOCIgaW5rc2NhcGU6Y29ubmVjdG9yLWN1cnZhdHVyZT0iMCIgc3R5bGU9ImZpbGw6I2ZmZmZmZiIgZD0ibSA3NS41MiwxMy42OCBjIDAsNy41NSAtMTYuOTEsMTMuNjggLTM3Ljc2LDEzLjY4IEMgMTYuOTEsMjcuMzYgMCwyMS4yMyAwLDEzLjY4IDAsNi4xMyAxNi45MSwwIDM3Ljc2LDAgNTguNjEsMCA3NS41Miw2LjEzIDc1LjUyLDEzLjY4IFoiLz4mI3hhOyYjeGE7PHBhdGggaWQ9InBhdGg5NzA0NiIgaW5rc2NhcGU6Y29ubmVjdG9yLWN1cnZhdHVyZT0iMCIgc3R5bGU9ImZpbGw6IzdmYmEwMCIgZD0ibSA2Ny44LDEyLjg5IGMgMCw0Ljk5IC0xMy40NSw5LjAzIC0zMC4wNCw5LjAzIC0xNi41OSwwIC0zMC4wNCwtNC4wNCAtMzAuMDQsLTkuMDMgMCwtNC45OCAxMy40NSwtOS4wMiAzMC4wNCwtOS4wMiAxNi41OSwwIDMwLjA0LDQuMDQgMzAuMDQsOS4wMiB6Ii8+JiN4YTsmI3hhOzxwYXRoIGlkPSJwYXRoOTcwNTQiIGlua3NjYXBlOmNvbm5lY3Rvci1jdXJ2YXR1cmU9IjAiIHN0eWxlPSJmaWxsOiNiOGQ0MzIiIGQ9Ik0gNjEuNTEsMTguNDEgQyA2NS40NCwxNi44OCA2Ny44LDE0Ljk3IDY3LjgsMTIuOSA2Ny44LDcuOTEgNTQuMzUsMy44NyAzNy43NiwzLjg3IDIxLjE3LDMuODcgNy43Miw3LjkxIDcuNzIsMTIuOSBjIDAsMi4wNyAyLjM2LDMuOTggNi4zLDUuNTEgNS40OSwtMi4xNCAxNC4wNywtMy41MSAyMy43NCwtMy41MSA5LjY3LDAgMTguMjUsMS4zNyAyMy43NSwzLjUxIHoiLz4mI3hhOyYjeGE7PHBhdGggaWQ9InBhdGg5NzA2MiIgaW5rc2NhcGU6Y29ubmVjdG9yLWN1cnZhdHVyZT0iMCIgc3R5bGU9ImZpbGw6I2ZmZmZmZiIgZD0ibSAyNS43Nyw2NC4xOCBjIDAsMi4yNiAtMC44Miw0LjAxIC0yLjQ2LDUuMjUgLTEuNjQsMS4yNCAtMy45LDEuODcgLTYuNzksMS44NyAtMi40NiwwIC00LjUyLC0wLjQ1IC02LjE3LC0xLjMzIHYgLTUuMzIgYyAxLjksMS42MSA0LDIuNDIgNi4zLDIuNDIgMS4xLDAgMS45NiwtMC4yMiAyLjU3LC0wLjY2IDAuNiwtMC40NCAwLjksLTEuMDMgMC45LC0xLjc2IDAsLTAuNzIgLTAuMjksLTEuMzUgLTAuODcsLTEuODggLTAuNTgsLTAuNTMgLTEuNzcsLTEuMjIgLTMuNTUsLTIuMDYgLTMuNjMsLTEuNzEgLTUuNDUsLTQuMDQgLTUuNDUsLTYuOTggMCwtMi4xNCAwLjc5LC0zLjg1IDIuMzgsLTUuMTQgMS41OCwtMS4yOSAzLjY5LC0xLjk0IDYuMzEsLTEuOTQgMi4zMywwIDQuMjUsMC4zMSA1Ljc5LDAuOTEgdiA0Ljk3IGMgLTEuNjEsLTEuMTEgLTMuNDQsLTEuNjYgLTUuNDksLTEuNjYgLTEuMDMsMCAtMS44NCwwLjIyIC0yLjQ0LDAuNjYgLTAuNiwwLjQzIC0wLjksMS4wMiAtMC45LDEuNzUgMCwwLjc1IDAuMjQsMS4zNyAwLjczLDEuODUgMC40OCwwLjQ4IDEuNDcsMS4wOCAyLjk2LDEuNzkgMi4yMywxLjA1IDMuODIsMi4xMiA0Ljc2LDMuMjEgMC45NSwxLjA4IDEuNDIsMi40NCAxLjQyLDQuMDUgeiIvPiYjeGE7JiN4YTs8cGF0aCBpZD0icGF0aDk3MDcwIiBpbmtzY2FwZTpjb25uZWN0b3ItY3VydmF0dXJlPSIwIiBzdHlsZT0iZmlsbDojZmZmZmZmIiBkPSJtIDUxLjQxLDU4Ljc5IGMgMCwyLjgxIC0wLjY0LDUuMjQgLTEuOTEsNy4zIC0xLjI4LDIuMDYgLTMuMDcsMy41IC01LjM5LDQuMzQgbCA2LjkyLDYuNCBIIDQ0LjA1IEwgMzkuMTEsNzEuMjkgQyAzNyw3MS4yMSAzNS4wOSw3MC42NSAzMy4zOSw2OS42MSBjIC0xLjcsLTEuMDQgLTMuMDIsLTIuNDcgLTMuOTQsLTQuMjggLTAuOTMsLTEuODEgLTEuMzksLTMuODMgLTEuMzksLTYuMDUgMCwtMi40NyAwLjUsLTQuNjggMS41LC02LjYxIDEuMDEsLTEuOTMgMi40MSwtMy40MiA0LjIzLC00LjQ2IDEuODIsLTEuMDQgMy45LC0xLjU2IDYuMjUsLTEuNTYgMi4xOSwwIDQuMTYsMC41IDUuODksMS41MSAxLjczLDEuMDEgMy4wOCwyLjQ0IDQuMDQsNC4zIDAuOTYsMS44NiAxLjQ0LDMuOTcgMS40NCw2LjMzIHogbSAtNS42NSwwLjMgYyAwLC0yLjQxIC0wLjUyLC00LjMyIC0xLjU4LC01LjcyIC0xLjA1LC0xLjQgLTIuNDksLTIuMSAtNC4zMiwtMi4xIC0xLjg2LDAgLTMuMzUsMC43IC00LjQ3LDIuMSAtMS4xMiwxLjQxIC0xLjY4LDMuMjggLTEuNjgsNS42MiAwLDIuMzMgMC41NSw0LjE5IDEuNjUsNS41OCAxLjA5LDEuMzkgMi41NSwyLjA4IDQuMzYsMi4wOCAxLjg2LDAgMy4zMiwtMC42NyA0LjQxLC0yLjAyIDEuMDksLTEuMzQgMS42MywtMy4xOSAxLjYzLC01LjU0IHoiLz4mI3hhOyYjeGE7PHBhdGggaWQ9InBhdGg5NzA3OCIgaW5rc2NhcGU6Y29ubmVjdG9yLWN1cnZhdHVyZT0iMCIgc3R5bGU9ImZpbGw6I2ZmZmZmZiIgZD0iTSA2OS41NCw3MC44OCBIIDU1LjM1IFYgNDcuMDUgaCA1LjM3IHYgMTkuNDcgaCA4LjgyIHoiLz4mI3hhOzwvc3ZnPg==;" vertex="1" parent="1">
          <mxGeometry x="970" y="644.5" width="41" height="53" as="geometry" />
        </mxCell>
        <mxCell id="YkJw-nBbiL5EOXAajBYS-84" style="edgeStyle=orthogonalEdgeStyle;rounded=0;orthogonalLoop=1;jettySize=auto;html=1;entryX=0;entryY=0.5;entryDx=0;entryDy=0;" edge="1" parent="1" source="YkJw-nBbiL5EOXAajBYS-73" target="YkJw-nBbiL5EOXAajBYS-71">
          <mxGeometry relative="1" as="geometry">
            <Array as="points">
              <mxPoint x="840" y="671" />
            </Array>
          </mxGeometry>
        </mxCell>
        <mxCell id="YkJw-nBbiL5EOXAajBYS-86" style="edgeStyle=orthogonalEdgeStyle;rounded=0;orthogonalLoop=1;jettySize=auto;html=1;" edge="1" parent="1" source="YkJw-nBbiL5EOXAajBYS-73">
          <mxGeometry relative="1" as="geometry">
            <mxPoint x="670" y="760" as="targetPoint" />
            <Array as="points">
              <mxPoint x="670" y="571" />
            </Array>
          </mxGeometry>
        </mxCell>
        <mxCell id="YkJw-nBbiL5EOXAajBYS-73" value="mqtt client" style="shape=image;verticalLabelPosition=bottom;labelBackgroundColor=#ffffff;verticalAlign=top;aspect=fixed;imageAspect=0;image=data:image/svg+xml,PHN2ZyB4bWxuczpjYz0iaHR0cDovL2NyZWF0aXZlY29tbW9ucy5vcmcvbnMjIiB4bWxuczpkYz0iaHR0cDovL3B1cmwub3JnL2RjL2VsZW1lbnRzLzEuMS8iIHhtbG5zOmlua3NjYXBlPSJodHRwOi8vd3d3Lmlua3NjYXBlLm9yZy9uYW1lc3BhY2VzL2lua3NjYXBlIiB4bWxuczpyZGY9Imh0dHA6Ly93d3cudzMub3JnLzE5OTkvMDIvMjItcmRmLXN5bnRheC1ucyMiIHhtbG5zOnNvZGlwb2RpPSJodHRwOi8vc29kaXBvZGkuc291cmNlZm9yZ2UubmV0L0RURC9zb2RpcG9kaS0wLmR0ZCIgeG1sbnM6c3ZnPSJodHRwOi8vd3d3LnczLm9yZy8yMDAwL3N2ZyIgeG1sbnM9Imh0dHA6Ly93d3cudzMub3JnLzIwMDAvc3ZnIiB4bWxuczp4bGluaz0iaHR0cDovL3d3dy53My5vcmcvMTk5OS94bGluayIgdmVyc2lvbj0iMS4xIiBpZD0ic3ZnNzkzNCIgaW5rc2NhcGU6dmVyc2lvbj0iMC45Mi4zICgyNDA1NTQ2LCAyMDE4LTAzLTExKSIgc29kaXBvZGk6ZG9jbmFtZT0ic2VydmVyXzQuc3ZnIiB4PSIwcHgiIHk9IjBweCIgdmlld0JveD0iMCAwIDM5Ljk3IDYzLjUxIiBzdHlsZT0iZW5hYmxlLWJhY2tncm91bmQ6bmV3IDAgMCAzOS45NyA2My41MTsiIHhtbDpzcGFjZT0icHJlc2VydmUiPiYjeGE7PHNvZGlwb2RpOm5hbWVkdmlldyBib3JkZXJjb2xvcj0iIzY2NjY2NiIgYm9yZGVyb3BhY2l0eT0iMSIgZml0LW1hcmdpbi1ib3R0b209IjAiIGZpdC1tYXJnaW4tbGVmdD0iMCIgZml0LW1hcmdpbi1yaWdodD0iMCIgZml0LW1hcmdpbi10b3A9IjAiIGdyaWR0b2xlcmFuY2U9IjEwIiBndWlkZXRvbGVyYW5jZT0iMTAiIGlkPSJuYW1lZHZpZXc3OTM2IiBpbmtzY2FwZTpjdXJyZW50LWxheWVyPSJzdmc3OTM0IiBpbmtzY2FwZTpjeD0iMjYuNjQ4OTkzIiBpbmtzY2FwZTpjeT0iNDIuMzQwNDk4IiBpbmtzY2FwZTpwYWdlb3BhY2l0eT0iMCIgaW5rc2NhcGU6cGFnZXNoYWRvdz0iMiIgaW5rc2NhcGU6d2luZG93LWhlaWdodD0iMTAxNyIgaW5rc2NhcGU6d2luZG93LW1heGltaXplZD0iMSIgaW5rc2NhcGU6d2luZG93LXdpZHRoPSIxOTIwIiBpbmtzY2FwZTp3aW5kb3cteD0iLTgiIGlua3NjYXBlOndpbmRvdy15PSItOCIgaW5rc2NhcGU6em9vbT0iMTAuMjU5ODExIiBvYmplY3R0b2xlcmFuY2U9IjEwIiBwYWdlY29sb3I9IiNmZmZmZmYiIHNob3dncmlkPSJmYWxzZSI+JiN4YTsJPC9zb2RpcG9kaTpuYW1lZHZpZXc+JiN4YTs8ZyBpZD0iZzc5MzIiIHRyYW5zZm9ybT0idHJhbnNsYXRlKDAuMDY0NjMzLDAuMDY1MzI3ODcpIj4mI3hhOwk8dGl0bGUgaWQ9InRpdGxlNzkwNyI+UGFnZS0xPC90aXRsZT4mI3hhOwk8ZyBpZD0iZ3JvdXA3NjUzLTEiIHRyYW5zZm9ybT0idHJhbnNsYXRlKDAuMzEwMzY3LC0wLjMxMDM2NykiPiYjeGE7CQk8dGl0bGUgaWQ9InRpdGxlNzkwOSI+U2VydmVyICM0PC90aXRsZT4mI3hhOwkJPGcgaWQ9InNoYXBlNzY1NC0yIj4mI3hhOwkJCTx0aXRsZSBpZD0idGl0bGU3OTExIj5TaGVldC43NjU0PC90aXRsZT4mI3hhOwkJCSYjeGE7CQkJCTxwYXRoIGlkPSJwYXRoNzkxMyIgaW5rc2NhcGU6Y29ubmVjdG9yLWN1cnZhdHVyZT0iMCIgc3R5bGU9ImZpbGw6IzNGNTc2NTtzdHJva2U6IzNGNTc2NTtzdHJva2Utd2lkdGg6MC43NTtzdHJva2UtbGluZWNhcDpyb3VuZDtzdHJva2UtbGluZWpvaW46cm91bmQ7c3Ryb2tlLW1pdGVybGltaXQ6MzsiIGQ9IiAgICAgTTAsMC42MnY2Mi43NmgzOS4yMlYwLjYySDB6Ii8+JiN4YTsJCTwvZz4mI3hhOwkJPGcgaWQ9InNoYXBlNzY1NS00Ij4mI3hhOwkJCTx0aXRsZSBpZD0idGl0bGU3OTE2Ij5TaGVldC43NjU1PC90aXRsZT4mI3hhOwkJCSYjeGE7CQkJCTxwYXRoIGlkPSJwYXRoNzkxOCIgaW5rc2NhcGU6Y29ubmVjdG9yLWN1cnZhdHVyZT0iMCIgc3R5bGU9ImZpbGw6bm9uZTtzdHJva2U6I0ZGRkZGRjtzdHJva2Utd2lkdGg6MC42MjA3O3N0cm9rZS1saW5lY2FwOnJvdW5kO3N0cm9rZS1saW5lam9pbjpyb3VuZDtzdHJva2UtbWl0ZXJsaW1pdDozOyIgZD0iICAgICBNMCw2My4zOGgzOS4yMlYwLjYySDBWNjMuMzhMMCw2My4zOCIvPiYjeGE7CQk8L2c+JiN4YTsJCTxnIGlkPSJzaGFwZTc2NTYtNyIgdHJhbnNmb3JtPSJ0cmFuc2xhdGUoMjkuMzA3NywtMjYuNTE2NykiPiYjeGE7CQkJPHRpdGxlIGlkPSJ0aXRsZTc5MjEiPlNoZWV0Ljc2NTY8L3RpdGxlPiYjeGE7CQkJJiN4YTsJCQkJPHBhdGggaWQ9InBhdGg3OTIzIiBpbmtzY2FwZTpjb25uZWN0b3ItY3VydmF0dXJlPSIwIiBzdHlsZT0iZmlsbDojRkZGRkZGO3N0cm9rZTojRkZGRkZGO3N0cm9rZS13aWR0aDowLjc1O3N0cm9rZS1saW5lY2FwOnNxdWFyZTtzdHJva2UtbWl0ZXJsaW1pdDozOyIgZD0iICAgICBNNC43Niw2MC45N2MwLTEuMzUtMS4wOC0yLjQ1LTIuMzYtMi40NWMtMS4zMiwwLTIuNCwxLjEtMi40LDIuNDVjMCwxLjMxLDEuMDgsMi40MSwyLjQsMi40MUMzLjY4LDYzLjM4LDQuNzYsNjIuMjgsNC43Niw2MC45N3oiLz4mI3hhOwkJPC9nPiYjeGE7CQk8ZyBpZD0ic2hhcGU3NjU3LTkiIHRyYW5zZm9ybT0idHJhbnNsYXRlKDE0Ljk1MzcsLTEwLjI1NTMpIj4mI3hhOwkJCTx0aXRsZSBpZD0idGl0bGU3OTI2Ij5TaGVldC43NjU3PC90aXRsZT4mI3hhOwkJCTxwYXRoIGlkPSJwYXRoNzkyOCIgaW5rc2NhcGU6Y29ubmVjdG9yLWN1cnZhdHVyZT0iMCIgc3R5bGU9ImZpbGw6I0ZGRkZGRjsiIGQ9Ik0wLDYzLjM4aDE5LjExdi0xLjZIMFY2My4zOHogTTAsNTguNmgxOS4xMSAgICAgdi0xLjU1SDBWNTguNnogTTAsNTMuODZoMTkuMTF2LTEuNTlIMFY1My44NnoiLz4mI3hhOwkJPC9nPiYjeGE7CTwvZz4mI3hhOzwvZz4mI3hhOzwvc3ZnPg==;" vertex="1" parent="1">
          <mxGeometry x="820" y="543.5" width="40" height="64" as="geometry" />
        </mxCell>
        <mxCell id="YkJw-nBbiL5EOXAajBYS-91" style="edgeStyle=orthogonalEdgeStyle;rounded=0;orthogonalLoop=1;jettySize=auto;html=1;entryX=0.5;entryY=0;entryDx=0;entryDy=0;" edge="1" parent="1" source="YkJw-nBbiL5EOXAajBYS-88" target="YkJw-nBbiL5EOXAajBYS-5">
          <mxGeometry relative="1" as="geometry" />
        </mxCell>
        <mxCell id="YkJw-nBbiL5EOXAajBYS-88" value="system1" style="shape=image;verticalLabelPosition=bottom;labelBackgroundColor=#ffffff;verticalAlign=top;aspect=fixed;imageAspect=0;image=data:image/svg+xml,PHN2ZyB4bWxuczpjYz0iaHR0cDovL2NyZWF0aXZlY29tbW9ucy5vcmcvbnMjIiB4bWxuczpkYz0iaHR0cDovL3B1cmwub3JnL2RjL2VsZW1lbnRzLzEuMS8iIHhtbG5zOmlua3NjYXBlPSJodHRwOi8vd3d3Lmlua3NjYXBlLm9yZy9uYW1lc3BhY2VzL2lua3NjYXBlIiB4bWxuczpyZGY9Imh0dHA6Ly93d3cudzMub3JnLzE5OTkvMDIvMjItcmRmLXN5bnRheC1ucyMiIHhtbG5zOnNvZGlwb2RpPSJodHRwOi8vc29kaXBvZGkuc291cmNlZm9yZ2UubmV0L0RURC9zb2RpcG9kaS0wLmR0ZCIgeG1sbnM6c3ZnPSJodHRwOi8vd3d3LnczLm9yZy8yMDAwL3N2ZyIgeG1sbnM9Imh0dHA6Ly93d3cudzMub3JnLzIwMDAvc3ZnIiB4bWxuczp4bGluaz0iaHR0cDovL3d3dy53My5vcmcvMTk5OS94bGluayIgdmVyc2lvbj0iMS4xIiBpZD0ic3ZnMTA2MjkiIGlua3NjYXBlOnZlcnNpb249IjAuOTIuMyAoMjQwNTU0NiwgMjAxOC0wMy0xMSkiIHNvZGlwb2RpOmRvY25hbWU9IndlYl9hcHBsaWNhdGlvbi5zdmciIHg9IjBweCIgeT0iMHB4IiB2aWV3Qm94PSIwIDAgNjMuNDkgNDMuOTgiIHN0eWxlPSJlbmFibGUtYmFja2dyb3VuZDpuZXcgMCAwIDYzLjQ5IDQzLjk4OyIgeG1sOnNwYWNlPSJwcmVzZXJ2ZSI+JiN4YTs8c29kaXBvZGk6bmFtZWR2aWV3IGJvcmRlcmNvbG9yPSIjNjY2NjY2IiBib3JkZXJvcGFjaXR5PSIxIiBmaXQtbWFyZ2luLWJvdHRvbT0iMCIgZml0LW1hcmdpbi1sZWZ0PSIwIiBmaXQtbWFyZ2luLXJpZ2h0PSIwIiBmaXQtbWFyZ2luLXRvcD0iMCIgZ3JpZHRvbGVyYW5jZT0iMTAiIGd1aWRldG9sZXJhbmNlPSIxMCIgaWQ9Im5hbWVkdmlldzEwNjMxIiBpbmtzY2FwZTpjdXJyZW50LWxheWVyPSJzdmcxMDYyOSIgaW5rc2NhcGU6Y3g9IjQyLjg1MzQzMyIgaW5rc2NhcGU6Y3k9IjIyLjQxNzU4MyIgaW5rc2NhcGU6cGFnZW9wYWNpdHk9IjAiIGlua3NjYXBlOnBhZ2VzaGFkb3c9IjIiIGlua3NjYXBlOndpbmRvdy1oZWlnaHQ9IjEwMTciIGlua3NjYXBlOndpbmRvdy1tYXhpbWl6ZWQ9IjEiIGlua3NjYXBlOndpbmRvdy13aWR0aD0iMTkyMCIgaW5rc2NhcGU6d2luZG93LXg9Ii04IiBpbmtzY2FwZTp3aW5kb3cteT0iLTgiIGlua3NjYXBlOnpvb209IjkuODMwNjYzOSIgb2JqZWN0dG9sZXJhbmNlPSIxMCIgcGFnZWNvbG9yPSIjZmZmZmZmIiBzaG93Z3JpZD0iZmFsc2UiPiYjeGE7CTwvc29kaXBvZGk6bmFtZWR2aWV3PiYjeGE7PGcgaWQ9ImcxMDYyNyIgdHJhbnNmb3JtPSJ0cmFuc2xhdGUoLTcuMjQxNDQzMWUtNSwtMC4wMDMzNikiPiYjeGE7CTx0aXRsZSBpZD0idGl0bGUxMDUzNiI+UGFnZS0xPC90aXRsZT4mI3hhOwk8ZyBpZD0iZ3JvdXA0MzM1LTEiPiYjeGE7CQk8dGl0bGUgaWQ9InRpdGxlMTA1MzgiPldlYiBBcHBsaWNhdGlvbjwvdGl0bGU+JiN4YTsJCTxnIGlkPSJncm91cDQzMzYtMiIgdHJhbnNmb3JtPSJ0cmFuc2xhdGUoMCwtOS4yNjY2NCkiPiYjeGE7CQkJPHRpdGxlIGlkPSJ0aXRsZTEwNTQwIj5XZWJzaXRlcyAjMjwvdGl0bGU+JiN4YTsJCQk8ZyBpZD0iZ3JvdXA0MzM3LTMiPiYjeGE7CQkJCTx0aXRsZSBpZD0idGl0bGUxMDU0MiI+TG9naWMgQXBwcyAjMTwvdGl0bGU+JiN4YTsJCQkJPGcgaWQ9InNoYXBlNDMzOC00Ij4mI3hhOwkJCQkJPHRpdGxlIGlkPSJ0aXRsZTEwNTQ0Ij5TaGVldC40MzM4PC90aXRsZT4mI3hhOwkJCQkJPHBhdGggaWQ9InBhdGgxMDU0NiIgaW5rc2NhcGU6Y29ubmVjdG9yLWN1cnZhdHVyZT0iMCIgc3R5bGU9ImZpbGw6IzNGNTc2NTsiIGQ9Ik00OS4yNyw5LjI3Yy00Ny4zOCwwLTQ3LjM4LDAtNDcuMzgsMCAgICAgICBDMC4zMiw5LjI3LDAsOS42NCwwLDExLjIyYzAsMzMuNjYsMCwzMy42NiwwLDMzLjY2YzAsMS41OCwwLjMyLDEuODksMS44OSwxLjg5YzQ3LjM4LDAsNDcuMzgsMCw0Ny4zOCwwICAgICAgIGMxLjY0LDAsMS45NS0wLjMxLDEuOTUtMS44OWMwLTMzLjY2LDAtMzMuNjYsMC0zMy42NkM1MS4yMiw5LjY0LDUwLjkxLDkuMjcsNDkuMjcsOS4yN3oiLz4mI3hhOwkJCQk8L2c+JiN4YTsJCQkJPGcgaWQ9InNoYXBlNDMzOS02IiB0cmFuc2Zvcm09InRyYW5zbGF0ZSgxLjI2MDAzLC0xLjc2MTk4KSI+JiN4YTsJCQkJCTx0aXRsZSBpZD0idGl0bGUxMDU0OSI+U2hlZXQuNDMzOTwvdGl0bGU+JiN4YTsJCQkJCTxwYXRoIGlkPSJwYXRoMTA1NTEiIGlua3NjYXBlOmNvbm5lY3Rvci1jdXJ2YXR1cmU9IjAiIHN0eWxlPSJmaWxsOiMwMEIwNTA7IiBkPSJNMCwxOC4wOHYyOC42OWg0OC43VjE4LjA4SDB6Ii8+JiN4YTsJCQkJPC9nPiYjeGE7CQkJCTxnIGlkPSJzaGFwZTQzNDAtOCIgdHJhbnNmb3JtPSJ0cmFuc2xhdGUoMS4zMjMwMywtMzEuNDYzOSkiPiYjeGE7CQkJCQk8dGl0bGUgaWQ9InRpdGxlMTA1NTQiPlNoZWV0LjQzNDA8L3RpdGxlPiYjeGE7CQkJCQk8cGF0aCBpZD0icGF0aDEwNTU2IiBpbmtzY2FwZTpjb25uZWN0b3ItY3VydmF0dXJlPSIwIiBzdHlsZT0iZmlsbDojMjZBOUUwOyIgZD0iTTUuMSw0NC4yNWMwLDEuNDUtMS4xMywyLjUyLTIuNTIsMi41MiAgICAgICBDMS4yLDQ2Ljc3LDAsNDUuNywwLDQ0LjI1YzAtMS4zOCwxLjItMi41MSwyLjU4LTIuNTFDMy45Nyw0MS43NCw1LjEsNDIuODcsNS4xLDQ0LjI1eiIvPiYjeGE7CQkJCTwvZz4mI3hhOwkJCQk8ZyBpZD0ic2hhcGU0MzQxLTEwIiB0cmFuc2Zvcm09InRyYW5zbGF0ZSgyLjM5NDA1LC0zMi44NDg0KSI+JiN4YTsJCQkJCTx0aXRsZSBpZD0idGl0bGUxMDU1OSI+U2hlZXQuNDM0MTwvdGl0bGU+JiN4YTsJCQkJCTxwYXRoIGlkPSJwYXRoMTA1NjEiIGlua3NjYXBlOmNvbm5lY3Rvci1jdXJ2YXR1cmU9IjAiIHN0eWxlPSJmaWxsOiNGRkZGRkY7IiBkPSJNMS4wMSw0NS4zOWwwLjg4LTAuODJIMS4yTDAsNDUuNjRsMS4yLDEuMTMgICAgICAgaDAuNjlsLTAuODgtMC44OGgyLjAxdi0wLjVIMS4wMXoiLz4mI3hhOwkJCQk8L2c+JiN4YTsJCQkJPGcgaWQ9InNoYXBlNDM0Mi0xMiIgdHJhbnNmb3JtPSJ0cmFuc2xhdGUoNy4zNzExNiwtMzIuODQ4NCkiPiYjeGE7CQkJCQk8dGl0bGUgaWQ9InRpdGxlMTA1NjQiPlNoZWV0LjQzNDI8L3RpdGxlPiYjeGE7CQkJCQk8cGF0aCBpZD0icGF0aDEwNTY2IiBpbmtzY2FwZTpjb25uZWN0b3ItY3VydmF0dXJlPSIwIiBzdHlsZT0iZmlsbDojRkZGRkZGOyIgZD0iTTAsNDQuMzh2Mi4zOWg0Mi42NXYtMi4zOUgweiIvPiYjeGE7CQkJCTwvZz4mI3hhOwkJCQk8ZyBpZD0ic2hhcGU0MzQzLTE0IiB0cmFuc2Zvcm09InRyYW5zbGF0ZSgxMy4xNjczLC0xMC45NDk1KSI+JiN4YTsJCQkJCTx0aXRsZSBpZD0idGl0bGUxMDU2OSI+U2hlZXQuNDM0MzwvdGl0bGU+JiN4YTsJCQkJCTxwYXRoIGlkPSJwYXRoMTA1NzEiIGlua3NjYXBlOmNvbm5lY3Rvci1jdXJ2YXR1cmU9IjAiIHN0eWxlPSJmaWxsOiNGRkZGRkY7IiBkPSJNMjQsNDEuM2MwLTEuMjYtMS0yLjMzLTIuMzMtMi4zMyAgICAgICBjLTMuNTMsMC0zLjUzLDAtMy41MywwYy0zLjA4LTMuMDItMy4wOC0zLjAyLTMuMDgtMy4wMmMtNy41NiwwLTcuNTYsMC03LjU2LDBjLTMuMjIsMy4wOC0zLjIyLDMuMDgtMy4yMiwzLjA4ICAgICAgIGMtMS45NSwwLjE5LTMuNTIsMS44My0zLjUyLDMuODRjMCwwLjc2LDAsMC43NiwwLDAuNzZjLTAuNzYsMC0wLjc2LDAtMC43NiwwYzAsMS41MSwwLDEuNTEsMCwxLjUxYzMuMjgsMCwzLjI4LDAsMy4yOCwwICAgICAgIGMwLjMxLDAuOTQsMS4xOSwxLjYzLDIuMiwxLjYzczEuODMtMC42OSwyLjE0LTEuNjNjOS41OCwwLDkuNTgsMCw5LjU4LDBjMC4zOCwwLjk0LDEuMiwxLjYzLDIuMiwxLjYzICAgICAgIGMxLjAxLDAsMS44My0wLjY5LDIuMjEtMS42M2MzLjE1LDAsMy4xNSwwLDMuMTUsMGMwLTEuNTEsMC0xLjUxLDAtMS41MWMtMC43NiwwLTAuNzYsMC0wLjc2LDBWNDEuM3ogTTIyLjQ5LDQxLjMgICAgICAgYzAsMi4zMywwLDIuMzMsMCwyLjMzYy0wLjg4LDAtMC44OCwwLTAuODgsMGMtMC4zOC0wLjg5LTEuMi0xLjU4LTIuMjEtMS41OGMtMSwwLTEuODIsMC42OS0yLjIsMS41OGMtNi4zNiwwLTYuMzYsMC02LjM2LDAgICAgICAgYzAtMy4wOSwwLTMuMDksMC0zLjA5YzEwLjgzLDAsMTAuODMsMCwxMC44MywwQzIyLjE4LDQwLjU0LDIyLjQ5LDQwLjg2LDIyLjQ5LDQxLjN6IE0xNS45NCwzOC45N2MtNS4xLDAtNS4xLDAtNS4xLDAgICAgICAgYzAtMS41MSwwLTEuNTEsMC0xLjUxYzMuNTksMCwzLjU5LDAsMy41OSwwTDE1Ljk0LDM4Ljk3eiBNOC4wNiwzNy40NmMxLjI2LDAsMS4yNiwwLDEuMjYsMGMwLDEuNTEsMCwxLjUxLDAsMS41MSAgICAgICBjLTIuNzcsMC0yLjc3LDAtMi43NywwTDguMDYsMzcuNDZ6IE0yLjMzLDQyLjg3YzAtMS4zMiwxLjAxLTIuMzMsMi40LTIuMzNjNC41OSwwLDQuNTksMCw0LjU5LDBjMCwzLjA5LDAsMy4wOSwwLDMuMDkgICAgICAgYy0xLjcsMC0xLjcsMC0xLjcsMGMtMC4zMS0wLjg5LTEuMTMtMS41OC0yLjE0LTEuNThzLTEuODksMC42OS0yLjIsMS41OGMtMC45NSwwLTAuOTUsMC0wLjk1LDBWNDIuODd6IE01LjQ4LDQ1LjE0ICAgICAgIGMtMC40NCwwLTAuNzUtMC4zMi0wLjc1LTAuNzZjMC0wLjM4LDAuMzEtMC43NSwwLjc1LTAuNzVjMC4zOCwwLDAuNzYsMC4zNywwLjc2LDAuNzVDNi4yNCw0NC44Miw1Ljg2LDQ1LjE0LDUuNDgsNDUuMTR6ICAgICAgICBNMTkuNCw0NS4xNGMtMC40NCwwLTAuNzUtMC4zMi0wLjc1LTAuNzZjMC0wLjM4LDAuMzEtMC43NSwwLjc1LTAuNzVjMC40NSwwLDAuNzYsMC4zNywwLjc2LDAuNzUgICAgICAgQzIwLjE2LDQ0LjgyLDE5Ljg1LDQ1LjE0LDE5LjQsNDUuMTR6Ii8+JiN4YTsJCQkJPC9nPiYjeGE7CQkJCTxnIGlkPSJzaGFwZTQzNDQtMTYiIHRyYW5zZm9ybT0idHJhbnNsYXRlKDEuMDk4MjUsLTEuNzMzMDUpIj4mI3hhOwkJCQkJPHRpdGxlIGlkPSJ0aXRsZTEwNTc0Ij5TaGVldC40MzQ0PC90aXRsZT4mI3hhOwkJCQkJPHBhdGggaWQ9InBhdGgxMDU3NiIgaW5rc2NhcGU6Y29ubmVjdG9yLWN1cnZhdHVyZT0iMCIgc3R5bGU9ImZpbGw6IzAwQjBGMDsiIGQ9Ik0wLDE4LjA3djI4LjdoNDguNzd2LTI4LjdIMHoiLz4mI3hhOwkJCQk8L2c+JiN4YTsJCQk8L2c+JiN4YTsJCTwvZz4mI3hhOwkJPGcgaWQ9Imdyb3VwNDM0NS0xOCIgdHJhbnNmb3JtPSJ0cmFuc2xhdGUoMzQuMjEyMikiPiYjeGE7CQkJPHRpdGxlIGlkPSJ0aXRsZTEwNTgxIj5XZWIgU2VydmljZS43ODY8L3RpdGxlPiYjeGE7CQkJPGcgaWQ9InNoYXBlNDM0Ni0xOSIgdHJhbnNmb3JtPSJ0cmFuc2xhdGUoNC4zODM0OSwtNy4zOTYyMSkiPiYjeGE7CQkJCTx0aXRsZSBpZD0idGl0bGUxMDU4MyI+cGF0aDk2MTA8L3RpdGxlPiYjeGE7CQkJCSYjeGE7CQkJCQk8cGF0aCBpZD0icGF0aDEwNTg1IiBpbmtzY2FwZTpjb25uZWN0b3ItY3VydmF0dXJlPSIwIiBzdHlsZT0iZmlsbDojRkZGRkZGO3N0cm9rZTojNTU2QThBO3N0cm9rZS13aWR0aDowLjc1O3N0cm9rZS1taXRlcmxpbWl0OjM7IiBkPSIgICAgICBNMjQuNTIsMzYuNjJjMCw3LjkzLTYuNDMsMTQuMzYtMTQuMzYsMTQuMzZTLTQuMiw0NC41NS00LjIsMzYuNjJjMC03LjkzLDYuNDItMTQuMzYsMTQuMzUtMTQuMzYgICAgICBDMTguMDgsMjIuMjYsMjQuNTEsMjguNjksMjQuNTIsMzYuNjJ6Ii8+JiN4YTsJCQk8L2c+JiN4YTsJCQk8ZyBpZD0ic2hhcGU0MzQ3LTIxIiB0cmFuc2Zvcm09InRyYW5zbGF0ZSgwLjE3NzIxNiwtMy4xODk5NCkiPiYjeGE7CQkJCTx0aXRsZSBpZD0idGl0bGUxMDU4OCI+cGF0aDk2MTI8L3RpdGxlPiYjeGE7CQkJCTxwYXRoIGlkPSJwYXRoMTA1OTAiIGlua3NjYXBlOmNvbm5lY3Rvci1jdXJ2YXR1cmU9IjAiIHN0eWxlPSJmaWxsOiNBQ0U4Rjk7IiBkPSJNMjguNzIsMzIuNDFjLTAuMSw3LjkzLTYuNjEsMTQuMjgtMTQuNTQsMTQuMTggICAgICBDNi4zOSw0Ni41LDAuMSw0MC4yLDAsMzIuNDFIMjguNzJ6Ii8+JiN4YTsJCQk8L2c+JiN4YTsJCQk8ZyBpZD0ic2hhcGU0MzQ4LTIzIiB0cmFuc2Zvcm09InRyYW5zbGF0ZSgxLjA5Mzg4LC03LjE4MDE1KSI+JiN4YTsJCQkJPHRpdGxlIGlkPSJ0aXRsZTEwNTkzIj5wYXRoOTYxNDwvdGl0bGU+JiN4YTsJCQkJPHBhdGggaWQ9InBhdGgxMDU5NSIgaW5rc2NhcGU6Y29ubmVjdG9yLWN1cnZhdHVyZT0iMCIgc3R5bGU9ImZpbGw6IzU1NkE4QTsiIGQ9Ik0xMy40NCwyMi45NmM3LjQzLDAsMTMuNDUsNi4wMSwxMy40NSwxMy40NCAgICAgIHMtNi4wMSwxMy40NS0xMy40NCwxMy40NVMwLDQzLjgzLDAsMzYuNDFjMCwwLDAtMC4wMSwwLTAuMDFDMCwyOC45OCw2LjAyLDIyLjk2LDEzLjQ0LDIyLjk2eiBNMTMuNDQsMjEuNzMgICAgICBjLTguMSwwLTE0LjY3LDYuNTctMTQuNjYsMTQuNjdjMCw4LjEsNi41NywxNC42NywxNC42NywxNC42NmM4LjEsMCwxNC42Ni02LjU3LDE0LjY2LTE0LjY2QzI4LjExLDI4LjMsMjEuNTUsMjEuNzMsMTMuNDQsMjEuNzMgICAgICBDMTMuNDQsMjEuNzMsMTMuNDQsMjEuNzMsMTMuNDQsMjEuNzN6Ii8+JiN4YTsJCQk8L2c+JiN4YTsJCQk8ZyBpZD0iZ3JvdXA0MzQ5LTI1IiB0cmFuc2Zvcm09InRyYW5zbGF0ZSgwLC0yLjg4NDM4KSI+JiN4YTsJCQkJPHRpdGxlIGlkPSJ0aXRsZTEwNTk4Ij5nOTYyMDwvdGl0bGU+JiN4YTsJCQkJPGcgaWQ9InNoYXBlNDM1MC0yNiIgdHJhbnNmb3JtPSJ0cmFuc2xhdGUoNy44MTYxKSI+JiN4YTsJCQkJCTx0aXRsZSBpZD0idGl0bGUxMDYwMCI+cGF0aDk2MTY8L3RpdGxlPiYjeGE7CQkJCQk8cGF0aCBpZD0icGF0aDEwNjAyIiBpbmtzY2FwZTpjb25uZWN0b3ItY3VydmF0dXJlPSIwIiBzdHlsZT0iZmlsbDojNTU2QThBOyIgZD0iTTYuNDIsMTguODNjMi40NCwwLDUuMTksNS43MSw1LjE5LDEzLjM1ICAgICAgIGMwLDcuNjUtMi43NSwxMy4zNy01LjE5LDEzLjM3Yy0yLjQ1LDAtNS4yLTUuNzEtNS4yLTEzLjM2QzEuMjIsMjQuNTUsMy45NywxOC44Myw2LjQyLDE4LjgzeiBNNi40MiwxNy42ICAgICAgIEMyLjg3LDE3LjYsMCwyNC4xMywwLDMyLjE4YzAsOC4wNiwyLjg3LDE0LjU5LDYuNDIsMTQuNTljMy41NCwwLDYuNDEtNi41Myw2LjQxLTE0LjU4UzkuOTYsMTcuNiw2LjQyLDE3LjZ6Ii8+JiN4YTsJCQkJPC9nPiYjeGE7CQkJCTxnIGlkPSJzaGFwZTQzNTEtMjgiIHRyYW5zZm9ybT0idHJhbnNsYXRlKDAsLTE0LjY2NjcpIj4mI3hhOwkJCQkJPHRpdGxlIGlkPSJ0aXRsZTEwNjA1Ij5saW5lOTYxODwvdGl0bGU+JiN4YTsJCQkJCSYjeGE7CQkJCQkJPHBhdGggaWQ9InBhdGgxMDYwNyIgaW5rc2NhcGU6Y29ubmVjdG9yLWN1cnZhdHVyZT0iMCIgc3R5bGU9ImZpbGw6bm9uZTtzdHJva2U6IzU1NkE4QTtzdHJva2Utd2lkdGg6MS41O3N0cm9rZS1taXRlcmxpbWl0OjM7IiBkPSIgICAgICAgTTAsNDYuNzdoMjguNTkiLz4mI3hhOwkJCQk8L2c+JiN4YTsJCQk8L2c+JiN4YTsJCQk8ZyBpZD0ic2hhcGU0MzUyLTMxIiB0cmFuc2Zvcm09InRyYW5zbGF0ZSgzLjU0NDQ0LC0yNC44ODQ0KSI+JiN4YTsJCQkJPHRpdGxlIGlkPSJ0aXRsZTEwNjExIj5wYXRoOTYyMjwvdGl0bGU+JiN4YTsJCQkJPHBhdGggaWQ9InBhdGgxMDYxMyIgaW5rc2NhcGU6Y29ubmVjdG9yLWN1cnZhdHVyZT0iMCIgc3R5bGU9ImZpbGw6bm9uZTsiIGQ9Ik0wLDQ1LjEyYzIuNjgsMS4wNCw2LjYyLDEuNjUsMTAuOTksMS42NSAgICAgIGM0LjM4LDAsOC4zMS0wLjYxLDExLTEuNjVIMHoiLz4mI3hhOwkJCQkmI3hhOwkJCQkJPHBhdGggaWQ9InBhdGgxMDYxNSIgaW5rc2NhcGU6Y29ubmVjdG9yLWN1cnZhdHVyZT0iMCIgc3R5bGU9ImZpbGw6bm9uZTtzdHJva2U6IzU1NkE4QTtzdHJva2Utd2lkdGg6MS41O3N0cm9rZS1taXRlcmxpbWl0OjM7IiBkPSIgICAgICBNMCw0NS4xMmMyLjY4LDEuMDQsNi42MiwxLjY1LDEwLjk5LDEuNjVjNC4zOCwwLDguMzEtMC42MSwxMS0xLjY1Ii8+JiN4YTsJCQk8L2c+JiN4YTsJCQk8ZyBpZD0ic2hhcGU0MzUzLTM0IiB0cmFuc2Zvcm09InRyYW5zbGF0ZSgzLjU0NDQ0LC04LjU2MTYpIj4mI3hhOwkJCQk8dGl0bGUgaWQ9InRpdGxlMTA2MTgiPnBhdGg5NjI0PC90aXRsZT4mI3hhOwkJCQk8cGF0aCBpZD0icGF0aDEwNjIwIiBpbmtzY2FwZTpjb25uZWN0b3ItY3VydmF0dXJlPSIwIiBzdHlsZT0iZmlsbDpub25lOyIgZD0iTTAsNDYuNzdjMi42OC0xLjA0LDYuNjItMS42NSwxMC45OS0xLjY1ICAgICAgYzQuMzgsMCw4LjMxLDAuNjEsMTEsMS42NUgweiIvPiYjeGE7CQkJCSYjeGE7CQkJCQk8cGF0aCBpZD0icGF0aDEwNjIyIiBpbmtzY2FwZTpjb25uZWN0b3ItY3VydmF0dXJlPSIwIiBzdHlsZT0iZmlsbDpub25lO3N0cm9rZTojNTU2QThBO3N0cm9rZS13aWR0aDoxLjU7c3Ryb2tlLW1pdGVybGltaXQ6MzsiIGQ9IiAgICAgIE0wLDQ2Ljc3YzIuNjgtMS4wNCw2LjYyLTEuNjUsMTAuOTktMS42NWM0LjM4LDAsOC4zMSwwLjYxLDExLDEuNjUiLz4mI3hhOwkJCTwvZz4mI3hhOwkJPC9nPiYjeGE7CTwvZz4mI3hhOzwvZz4mI3hhOzwvc3ZnPg==;" vertex="1" parent="1">
          <mxGeometry x="330" y="190" width="63" height="44" as="geometry" />
        </mxCell>
        <mxCell id="YkJw-nBbiL5EOXAajBYS-90" style="edgeStyle=orthogonalEdgeStyle;rounded=0;orthogonalLoop=1;jettySize=auto;html=1;entryX=0.5;entryY=0;entryDx=0;entryDy=0;" edge="1" parent="1" source="YkJw-nBbiL5EOXAajBYS-89" target="YkJw-nBbiL5EOXAajBYS-5">
          <mxGeometry relative="1" as="geometry" />
        </mxCell>
        <mxCell id="YkJw-nBbiL5EOXAajBYS-89" value="system2" style="shape=image;verticalLabelPosition=bottom;labelBackgroundColor=#ffffff;verticalAlign=top;aspect=fixed;imageAspect=0;image=data:image/svg+xml,PHN2ZyB4bWxuczpjYz0iaHR0cDovL2NyZWF0aXZlY29tbW9ucy5vcmcvbnMjIiB4bWxuczpkYz0iaHR0cDovL3B1cmwub3JnL2RjL2VsZW1lbnRzLzEuMS8iIHhtbG5zOmlua3NjYXBlPSJodHRwOi8vd3d3Lmlua3NjYXBlLm9yZy9uYW1lc3BhY2VzL2lua3NjYXBlIiB4bWxuczpyZGY9Imh0dHA6Ly93d3cudzMub3JnLzE5OTkvMDIvMjItcmRmLXN5bnRheC1ucyMiIHhtbG5zOnNvZGlwb2RpPSJodHRwOi8vc29kaXBvZGkuc291cmNlZm9yZ2UubmV0L0RURC9zb2RpcG9kaS0wLmR0ZCIgeG1sbnM6c3ZnPSJodHRwOi8vd3d3LnczLm9yZy8yMDAwL3N2ZyIgeG1sbnM9Imh0dHA6Ly93d3cudzMub3JnLzIwMDAvc3ZnIiB4bWxuczp4bGluaz0iaHR0cDovL3d3dy53My5vcmcvMTk5OS94bGluayIgdmVyc2lvbj0iMS4xIiBpZD0ic3ZnMTA2MjkiIGlua3NjYXBlOnZlcnNpb249IjAuOTIuMyAoMjQwNTU0NiwgMjAxOC0wMy0xMSkiIHNvZGlwb2RpOmRvY25hbWU9IndlYl9hcHBsaWNhdGlvbi5zdmciIHg9IjBweCIgeT0iMHB4IiB2aWV3Qm94PSIwIDAgNjMuNDkgNDMuOTgiIHN0eWxlPSJlbmFibGUtYmFja2dyb3VuZDpuZXcgMCAwIDYzLjQ5IDQzLjk4OyIgeG1sOnNwYWNlPSJwcmVzZXJ2ZSI+JiN4YTs8c29kaXBvZGk6bmFtZWR2aWV3IGJvcmRlcmNvbG9yPSIjNjY2NjY2IiBib3JkZXJvcGFjaXR5PSIxIiBmaXQtbWFyZ2luLWJvdHRvbT0iMCIgZml0LW1hcmdpbi1sZWZ0PSIwIiBmaXQtbWFyZ2luLXJpZ2h0PSIwIiBmaXQtbWFyZ2luLXRvcD0iMCIgZ3JpZHRvbGVyYW5jZT0iMTAiIGd1aWRldG9sZXJhbmNlPSIxMCIgaWQ9Im5hbWVkdmlldzEwNjMxIiBpbmtzY2FwZTpjdXJyZW50LWxheWVyPSJzdmcxMDYyOSIgaW5rc2NhcGU6Y3g9IjQyLjg1MzQzMyIgaW5rc2NhcGU6Y3k9IjIyLjQxNzU4MyIgaW5rc2NhcGU6cGFnZW9wYWNpdHk9IjAiIGlua3NjYXBlOnBhZ2VzaGFkb3c9IjIiIGlua3NjYXBlOndpbmRvdy1oZWlnaHQ9IjEwMTciIGlua3NjYXBlOndpbmRvdy1tYXhpbWl6ZWQ9IjEiIGlua3NjYXBlOndpbmRvdy13aWR0aD0iMTkyMCIgaW5rc2NhcGU6d2luZG93LXg9Ii04IiBpbmtzY2FwZTp3aW5kb3cteT0iLTgiIGlua3NjYXBlOnpvb209IjkuODMwNjYzOSIgb2JqZWN0dG9sZXJhbmNlPSIxMCIgcGFnZWNvbG9yPSIjZmZmZmZmIiBzaG93Z3JpZD0iZmFsc2UiPiYjeGE7CTwvc29kaXBvZGk6bmFtZWR2aWV3PiYjeGE7PGcgaWQ9ImcxMDYyNyIgdHJhbnNmb3JtPSJ0cmFuc2xhdGUoLTcuMjQxNDQzMWUtNSwtMC4wMDMzNikiPiYjeGE7CTx0aXRsZSBpZD0idGl0bGUxMDUzNiI+UGFnZS0xPC90aXRsZT4mI3hhOwk8ZyBpZD0iZ3JvdXA0MzM1LTEiPiYjeGE7CQk8dGl0bGUgaWQ9InRpdGxlMTA1MzgiPldlYiBBcHBsaWNhdGlvbjwvdGl0bGU+JiN4YTsJCTxnIGlkPSJncm91cDQzMzYtMiIgdHJhbnNmb3JtPSJ0cmFuc2xhdGUoMCwtOS4yNjY2NCkiPiYjeGE7CQkJPHRpdGxlIGlkPSJ0aXRsZTEwNTQwIj5XZWJzaXRlcyAjMjwvdGl0bGU+JiN4YTsJCQk8ZyBpZD0iZ3JvdXA0MzM3LTMiPiYjeGE7CQkJCTx0aXRsZSBpZD0idGl0bGUxMDU0MiI+TG9naWMgQXBwcyAjMTwvdGl0bGU+JiN4YTsJCQkJPGcgaWQ9InNoYXBlNDMzOC00Ij4mI3hhOwkJCQkJPHRpdGxlIGlkPSJ0aXRsZTEwNTQ0Ij5TaGVldC40MzM4PC90aXRsZT4mI3hhOwkJCQkJPHBhdGggaWQ9InBhdGgxMDU0NiIgaW5rc2NhcGU6Y29ubmVjdG9yLWN1cnZhdHVyZT0iMCIgc3R5bGU9ImZpbGw6IzNGNTc2NTsiIGQ9Ik00OS4yNyw5LjI3Yy00Ny4zOCwwLTQ3LjM4LDAtNDcuMzgsMCAgICAgICBDMC4zMiw5LjI3LDAsOS42NCwwLDExLjIyYzAsMzMuNjYsMCwzMy42NiwwLDMzLjY2YzAsMS41OCwwLjMyLDEuODksMS44OSwxLjg5YzQ3LjM4LDAsNDcuMzgsMCw0Ny4zOCwwICAgICAgIGMxLjY0LDAsMS45NS0wLjMxLDEuOTUtMS44OWMwLTMzLjY2LDAtMzMuNjYsMC0zMy42NkM1MS4yMiw5LjY0LDUwLjkxLDkuMjcsNDkuMjcsOS4yN3oiLz4mI3hhOwkJCQk8L2c+JiN4YTsJCQkJPGcgaWQ9InNoYXBlNDMzOS02IiB0cmFuc2Zvcm09InRyYW5zbGF0ZSgxLjI2MDAzLC0xLjc2MTk4KSI+JiN4YTsJCQkJCTx0aXRsZSBpZD0idGl0bGUxMDU0OSI+U2hlZXQuNDMzOTwvdGl0bGU+JiN4YTsJCQkJCTxwYXRoIGlkPSJwYXRoMTA1NTEiIGlua3NjYXBlOmNvbm5lY3Rvci1jdXJ2YXR1cmU9IjAiIHN0eWxlPSJmaWxsOiMwMEIwNTA7IiBkPSJNMCwxOC4wOHYyOC42OWg0OC43VjE4LjA4SDB6Ii8+JiN4YTsJCQkJPC9nPiYjeGE7CQkJCTxnIGlkPSJzaGFwZTQzNDAtOCIgdHJhbnNmb3JtPSJ0cmFuc2xhdGUoMS4zMjMwMywtMzEuNDYzOSkiPiYjeGE7CQkJCQk8dGl0bGUgaWQ9InRpdGxlMTA1NTQiPlNoZWV0LjQzNDA8L3RpdGxlPiYjeGE7CQkJCQk8cGF0aCBpZD0icGF0aDEwNTU2IiBpbmtzY2FwZTpjb25uZWN0b3ItY3VydmF0dXJlPSIwIiBzdHlsZT0iZmlsbDojMjZBOUUwOyIgZD0iTTUuMSw0NC4yNWMwLDEuNDUtMS4xMywyLjUyLTIuNTIsMi41MiAgICAgICBDMS4yLDQ2Ljc3LDAsNDUuNywwLDQ0LjI1YzAtMS4zOCwxLjItMi41MSwyLjU4LTIuNTFDMy45Nyw0MS43NCw1LjEsNDIuODcsNS4xLDQ0LjI1eiIvPiYjeGE7CQkJCTwvZz4mI3hhOwkJCQk8ZyBpZD0ic2hhcGU0MzQxLTEwIiB0cmFuc2Zvcm09InRyYW5zbGF0ZSgyLjM5NDA1LC0zMi44NDg0KSI+JiN4YTsJCQkJCTx0aXRsZSBpZD0idGl0bGUxMDU1OSI+U2hlZXQuNDM0MTwvdGl0bGU+JiN4YTsJCQkJCTxwYXRoIGlkPSJwYXRoMTA1NjEiIGlua3NjYXBlOmNvbm5lY3Rvci1jdXJ2YXR1cmU9IjAiIHN0eWxlPSJmaWxsOiNGRkZGRkY7IiBkPSJNMS4wMSw0NS4zOWwwLjg4LTAuODJIMS4yTDAsNDUuNjRsMS4yLDEuMTMgICAgICAgaDAuNjlsLTAuODgtMC44OGgyLjAxdi0wLjVIMS4wMXoiLz4mI3hhOwkJCQk8L2c+JiN4YTsJCQkJPGcgaWQ9InNoYXBlNDM0Mi0xMiIgdHJhbnNmb3JtPSJ0cmFuc2xhdGUoNy4zNzExNiwtMzIuODQ4NCkiPiYjeGE7CQkJCQk8dGl0bGUgaWQ9InRpdGxlMTA1NjQiPlNoZWV0LjQzNDI8L3RpdGxlPiYjeGE7CQkJCQk8cGF0aCBpZD0icGF0aDEwNTY2IiBpbmtzY2FwZTpjb25uZWN0b3ItY3VydmF0dXJlPSIwIiBzdHlsZT0iZmlsbDojRkZGRkZGOyIgZD0iTTAsNDQuMzh2Mi4zOWg0Mi42NXYtMi4zOUgweiIvPiYjeGE7CQkJCTwvZz4mI3hhOwkJCQk8ZyBpZD0ic2hhcGU0MzQzLTE0IiB0cmFuc2Zvcm09InRyYW5zbGF0ZSgxMy4xNjczLC0xMC45NDk1KSI+JiN4YTsJCQkJCTx0aXRsZSBpZD0idGl0bGUxMDU2OSI+U2hlZXQuNDM0MzwvdGl0bGU+JiN4YTsJCQkJCTxwYXRoIGlkPSJwYXRoMTA1NzEiIGlua3NjYXBlOmNvbm5lY3Rvci1jdXJ2YXR1cmU9IjAiIHN0eWxlPSJmaWxsOiNGRkZGRkY7IiBkPSJNMjQsNDEuM2MwLTEuMjYtMS0yLjMzLTIuMzMtMi4zMyAgICAgICBjLTMuNTMsMC0zLjUzLDAtMy41MywwYy0zLjA4LTMuMDItMy4wOC0zLjAyLTMuMDgtMy4wMmMtNy41NiwwLTcuNTYsMC03LjU2LDBjLTMuMjIsMy4wOC0zLjIyLDMuMDgtMy4yMiwzLjA4ICAgICAgIGMtMS45NSwwLjE5LTMuNTIsMS44My0zLjUyLDMuODRjMCwwLjc2LDAsMC43NiwwLDAuNzZjLTAuNzYsMC0wLjc2LDAtMC43NiwwYzAsMS41MSwwLDEuNTEsMCwxLjUxYzMuMjgsMCwzLjI4LDAsMy4yOCwwICAgICAgIGMwLjMxLDAuOTQsMS4xOSwxLjYzLDIuMiwxLjYzczEuODMtMC42OSwyLjE0LTEuNjNjOS41OCwwLDkuNTgsMCw5LjU4LDBjMC4zOCwwLjk0LDEuMiwxLjYzLDIuMiwxLjYzICAgICAgIGMxLjAxLDAsMS44My0wLjY5LDIuMjEtMS42M2MzLjE1LDAsMy4xNSwwLDMuMTUsMGMwLTEuNTEsMC0xLjUxLDAtMS41MWMtMC43NiwwLTAuNzYsMC0wLjc2LDBWNDEuM3ogTTIyLjQ5LDQxLjMgICAgICAgYzAsMi4zMywwLDIuMzMsMCwyLjMzYy0wLjg4LDAtMC44OCwwLTAuODgsMGMtMC4zOC0wLjg5LTEuMi0xLjU4LTIuMjEtMS41OGMtMSwwLTEuODIsMC42OS0yLjIsMS41OGMtNi4zNiwwLTYuMzYsMC02LjM2LDAgICAgICAgYzAtMy4wOSwwLTMuMDksMC0zLjA5YzEwLjgzLDAsMTAuODMsMCwxMC44MywwQzIyLjE4LDQwLjU0LDIyLjQ5LDQwLjg2LDIyLjQ5LDQxLjN6IE0xNS45NCwzOC45N2MtNS4xLDAtNS4xLDAtNS4xLDAgICAgICAgYzAtMS41MSwwLTEuNTEsMC0xLjUxYzMuNTksMCwzLjU5LDAsMy41OSwwTDE1Ljk0LDM4Ljk3eiBNOC4wNiwzNy40NmMxLjI2LDAsMS4yNiwwLDEuMjYsMGMwLDEuNTEsMCwxLjUxLDAsMS41MSAgICAgICBjLTIuNzcsMC0yLjc3LDAtMi43NywwTDguMDYsMzcuNDZ6IE0yLjMzLDQyLjg3YzAtMS4zMiwxLjAxLTIuMzMsMi40LTIuMzNjNC41OSwwLDQuNTksMCw0LjU5LDBjMCwzLjA5LDAsMy4wOSwwLDMuMDkgICAgICAgYy0xLjcsMC0xLjcsMC0xLjcsMGMtMC4zMS0wLjg5LTEuMTMtMS41OC0yLjE0LTEuNThzLTEuODksMC42OS0yLjIsMS41OGMtMC45NSwwLTAuOTUsMC0wLjk1LDBWNDIuODd6IE01LjQ4LDQ1LjE0ICAgICAgIGMtMC40NCwwLTAuNzUtMC4zMi0wLjc1LTAuNzZjMC0wLjM4LDAuMzEtMC43NSwwLjc1LTAuNzVjMC4zOCwwLDAuNzYsMC4zNywwLjc2LDAuNzVDNi4yNCw0NC44Miw1Ljg2LDQ1LjE0LDUuNDgsNDUuMTR6ICAgICAgICBNMTkuNCw0NS4xNGMtMC40NCwwLTAuNzUtMC4zMi0wLjc1LTAuNzZjMC0wLjM4LDAuMzEtMC43NSwwLjc1LTAuNzVjMC40NSwwLDAuNzYsMC4zNywwLjc2LDAuNzUgICAgICAgQzIwLjE2LDQ0LjgyLDE5Ljg1LDQ1LjE0LDE5LjQsNDUuMTR6Ii8+JiN4YTsJCQkJPC9nPiYjeGE7CQkJCTxnIGlkPSJzaGFwZTQzNDQtMTYiIHRyYW5zZm9ybT0idHJhbnNsYXRlKDEuMDk4MjUsLTEuNzMzMDUpIj4mI3hhOwkJCQkJPHRpdGxlIGlkPSJ0aXRsZTEwNTc0Ij5TaGVldC40MzQ0PC90aXRsZT4mI3hhOwkJCQkJPHBhdGggaWQ9InBhdGgxMDU3NiIgaW5rc2NhcGU6Y29ubmVjdG9yLWN1cnZhdHVyZT0iMCIgc3R5bGU9ImZpbGw6IzAwQjBGMDsiIGQ9Ik0wLDE4LjA3djI4LjdoNDguNzd2LTI4LjdIMHoiLz4mI3hhOwkJCQk8L2c+JiN4YTsJCQk8L2c+JiN4YTsJCTwvZz4mI3hhOwkJPGcgaWQ9Imdyb3VwNDM0NS0xOCIgdHJhbnNmb3JtPSJ0cmFuc2xhdGUoMzQuMjEyMikiPiYjeGE7CQkJPHRpdGxlIGlkPSJ0aXRsZTEwNTgxIj5XZWIgU2VydmljZS43ODY8L3RpdGxlPiYjeGE7CQkJPGcgaWQ9InNoYXBlNDM0Ni0xOSIgdHJhbnNmb3JtPSJ0cmFuc2xhdGUoNC4zODM0OSwtNy4zOTYyMSkiPiYjeGE7CQkJCTx0aXRsZSBpZD0idGl0bGUxMDU4MyI+cGF0aDk2MTA8L3RpdGxlPiYjeGE7CQkJCSYjeGE7CQkJCQk8cGF0aCBpZD0icGF0aDEwNTg1IiBpbmtzY2FwZTpjb25uZWN0b3ItY3VydmF0dXJlPSIwIiBzdHlsZT0iZmlsbDojRkZGRkZGO3N0cm9rZTojNTU2QThBO3N0cm9rZS13aWR0aDowLjc1O3N0cm9rZS1taXRlcmxpbWl0OjM7IiBkPSIgICAgICBNMjQuNTIsMzYuNjJjMCw3LjkzLTYuNDMsMTQuMzYtMTQuMzYsMTQuMzZTLTQuMiw0NC41NS00LjIsMzYuNjJjMC03LjkzLDYuNDItMTQuMzYsMTQuMzUtMTQuMzYgICAgICBDMTguMDgsMjIuMjYsMjQuNTEsMjguNjksMjQuNTIsMzYuNjJ6Ii8+JiN4YTsJCQk8L2c+JiN4YTsJCQk8ZyBpZD0ic2hhcGU0MzQ3LTIxIiB0cmFuc2Zvcm09InRyYW5zbGF0ZSgwLjE3NzIxNiwtMy4xODk5NCkiPiYjeGE7CQkJCTx0aXRsZSBpZD0idGl0bGUxMDU4OCI+cGF0aDk2MTI8L3RpdGxlPiYjeGE7CQkJCTxwYXRoIGlkPSJwYXRoMTA1OTAiIGlua3NjYXBlOmNvbm5lY3Rvci1jdXJ2YXR1cmU9IjAiIHN0eWxlPSJmaWxsOiNBQ0U4Rjk7IiBkPSJNMjguNzIsMzIuNDFjLTAuMSw3LjkzLTYuNjEsMTQuMjgtMTQuNTQsMTQuMTggICAgICBDNi4zOSw0Ni41LDAuMSw0MC4yLDAsMzIuNDFIMjguNzJ6Ii8+JiN4YTsJCQk8L2c+JiN4YTsJCQk8ZyBpZD0ic2hhcGU0MzQ4LTIzIiB0cmFuc2Zvcm09InRyYW5zbGF0ZSgxLjA5Mzg4LC03LjE4MDE1KSI+JiN4YTsJCQkJPHRpdGxlIGlkPSJ0aXRsZTEwNTkzIj5wYXRoOTYxNDwvdGl0bGU+JiN4YTsJCQkJPHBhdGggaWQ9InBhdGgxMDU5NSIgaW5rc2NhcGU6Y29ubmVjdG9yLWN1cnZhdHVyZT0iMCIgc3R5bGU9ImZpbGw6IzU1NkE4QTsiIGQ9Ik0xMy40NCwyMi45NmM3LjQzLDAsMTMuNDUsNi4wMSwxMy40NSwxMy40NCAgICAgIHMtNi4wMSwxMy40NS0xMy40NCwxMy40NVMwLDQzLjgzLDAsMzYuNDFjMCwwLDAtMC4wMSwwLTAuMDFDMCwyOC45OCw2LjAyLDIyLjk2LDEzLjQ0LDIyLjk2eiBNMTMuNDQsMjEuNzMgICAgICBjLTguMSwwLTE0LjY3LDYuNTctMTQuNjYsMTQuNjdjMCw4LjEsNi41NywxNC42NywxNC42NywxNC42NmM4LjEsMCwxNC42Ni02LjU3LDE0LjY2LTE0LjY2QzI4LjExLDI4LjMsMjEuNTUsMjEuNzMsMTMuNDQsMjEuNzMgICAgICBDMTMuNDQsMjEuNzMsMTMuNDQsMjEuNzMsMTMuNDQsMjEuNzN6Ii8+JiN4YTsJCQk8L2c+JiN4YTsJCQk8ZyBpZD0iZ3JvdXA0MzQ5LTI1IiB0cmFuc2Zvcm09InRyYW5zbGF0ZSgwLC0yLjg4NDM4KSI+JiN4YTsJCQkJPHRpdGxlIGlkPSJ0aXRsZTEwNTk4Ij5nOTYyMDwvdGl0bGU+JiN4YTsJCQkJPGcgaWQ9InNoYXBlNDM1MC0yNiIgdHJhbnNmb3JtPSJ0cmFuc2xhdGUoNy44MTYxKSI+JiN4YTsJCQkJCTx0aXRsZSBpZD0idGl0bGUxMDYwMCI+cGF0aDk2MTY8L3RpdGxlPiYjeGE7CQkJCQk8cGF0aCBpZD0icGF0aDEwNjAyIiBpbmtzY2FwZTpjb25uZWN0b3ItY3VydmF0dXJlPSIwIiBzdHlsZT0iZmlsbDojNTU2QThBOyIgZD0iTTYuNDIsMTguODNjMi40NCwwLDUuMTksNS43MSw1LjE5LDEzLjM1ICAgICAgIGMwLDcuNjUtMi43NSwxMy4zNy01LjE5LDEzLjM3Yy0yLjQ1LDAtNS4yLTUuNzEtNS4yLTEzLjM2QzEuMjIsMjQuNTUsMy45NywxOC44Myw2LjQyLDE4LjgzeiBNNi40MiwxNy42ICAgICAgIEMyLjg3LDE3LjYsMCwyNC4xMywwLDMyLjE4YzAsOC4wNiwyLjg3LDE0LjU5LDYuNDIsMTQuNTljMy41NCwwLDYuNDEtNi41Myw2LjQxLTE0LjU4UzkuOTYsMTcuNiw2LjQyLDE3LjZ6Ii8+JiN4YTsJCQkJPC9nPiYjeGE7CQkJCTxnIGlkPSJzaGFwZTQzNTEtMjgiIHRyYW5zZm9ybT0idHJhbnNsYXRlKDAsLTE0LjY2NjcpIj4mI3hhOwkJCQkJPHRpdGxlIGlkPSJ0aXRsZTEwNjA1Ij5saW5lOTYxODwvdGl0bGU+JiN4YTsJCQkJCSYjeGE7CQkJCQkJPHBhdGggaWQ9InBhdGgxMDYwNyIgaW5rc2NhcGU6Y29ubmVjdG9yLWN1cnZhdHVyZT0iMCIgc3R5bGU9ImZpbGw6bm9uZTtzdHJva2U6IzU1NkE4QTtzdHJva2Utd2lkdGg6MS41O3N0cm9rZS1taXRlcmxpbWl0OjM7IiBkPSIgICAgICAgTTAsNDYuNzdoMjguNTkiLz4mI3hhOwkJCQk8L2c+JiN4YTsJCQk8L2c+JiN4YTsJCQk8ZyBpZD0ic2hhcGU0MzUyLTMxIiB0cmFuc2Zvcm09InRyYW5zbGF0ZSgzLjU0NDQ0LC0yNC44ODQ0KSI+JiN4YTsJCQkJPHRpdGxlIGlkPSJ0aXRsZTEwNjExIj5wYXRoOTYyMjwvdGl0bGU+JiN4YTsJCQkJPHBhdGggaWQ9InBhdGgxMDYxMyIgaW5rc2NhcGU6Y29ubmVjdG9yLWN1cnZhdHVyZT0iMCIgc3R5bGU9ImZpbGw6bm9uZTsiIGQ9Ik0wLDQ1LjEyYzIuNjgsMS4wNCw2LjYyLDEuNjUsMTAuOTksMS42NSAgICAgIGM0LjM4LDAsOC4zMS0wLjYxLDExLTEuNjVIMHoiLz4mI3hhOwkJCQkmI3hhOwkJCQkJPHBhdGggaWQ9InBhdGgxMDYxNSIgaW5rc2NhcGU6Y29ubmVjdG9yLWN1cnZhdHVyZT0iMCIgc3R5bGU9ImZpbGw6bm9uZTtzdHJva2U6IzU1NkE4QTtzdHJva2Utd2lkdGg6MS41O3N0cm9rZS1taXRlcmxpbWl0OjM7IiBkPSIgICAgICBNMCw0NS4xMmMyLjY4LDEuMDQsNi42MiwxLjY1LDEwLjk5LDEuNjVjNC4zOCwwLDguMzEtMC42MSwxMS0xLjY1Ii8+JiN4YTsJCQk8L2c+JiN4YTsJCQk8ZyBpZD0ic2hhcGU0MzUzLTM0IiB0cmFuc2Zvcm09InRyYW5zbGF0ZSgzLjU0NDQ0LC04LjU2MTYpIj4mI3hhOwkJCQk8dGl0bGUgaWQ9InRpdGxlMTA2MTgiPnBhdGg5NjI0PC90aXRsZT4mI3hhOwkJCQk8cGF0aCBpZD0icGF0aDEwNjIwIiBpbmtzY2FwZTpjb25uZWN0b3ItY3VydmF0dXJlPSIwIiBzdHlsZT0iZmlsbDpub25lOyIgZD0iTTAsNDYuNzdjMi42OC0xLjA0LDYuNjItMS42NSwxMC45OS0xLjY1ICAgICAgYzQuMzgsMCw4LjMxLDAuNjEsMTEsMS42NUgweiIvPiYjeGE7CQkJCSYjeGE7CQkJCQk8cGF0aCBpZD0icGF0aDEwNjIyIiBpbmtzY2FwZTpjb25uZWN0b3ItY3VydmF0dXJlPSIwIiBzdHlsZT0iZmlsbDpub25lO3N0cm9rZTojNTU2QThBO3N0cm9rZS13aWR0aDoxLjU7c3Ryb2tlLW1pdGVybGltaXQ6MzsiIGQ9IiAgICAgIE0wLDQ2Ljc3YzIuNjgtMS4wNCw2LjYyLTEuNjUsMTAuOTktMS42NWM0LjM4LDAsOC4zMSwwLjYxLDExLDEuNjUiLz4mI3hhOwkJCTwvZz4mI3hhOwkJPC9nPiYjeGE7CTwvZz4mI3hhOzwvZz4mI3hhOzwvc3ZnPg==;" vertex="1" parent="1">
          <mxGeometry x="970" y="190" width="63" height="44" as="geometry" />
        </mxCell>
        <mxCell id="YkJw-nBbiL5EOXAajBYS-93" value="media sever" style="aspect=fixed;html=1;points=[];align=center;image;fontSize=12;image=img/lib/mscae/WebHosting.svg;" vertex="1" parent="1">
          <mxGeometry x="1400" y="184" width="50" height="50" as="geometry" />
        </mxCell>
        <mxCell id="YkJw-nBbiL5EOXAajBYS-94" value="" style="endArrow=none;dashed=1;html=1;" edge="1" parent="1">
          <mxGeometry width="50" height="50" relative="1" as="geometry">
            <mxPoint x="100" y="284" as="sourcePoint" />
            <mxPoint x="1270" y="284" as="targetPoint" />
          </mxGeometry>
        </mxCell>
        <mxCell id="YkJw-nBbiL5EOXAajBYS-95" value="" style="endArrow=none;dashed=1;html=1;dashPattern=1 3;strokeWidth=2;" edge="1" parent="1">
          <mxGeometry width="50" height="50" relative="1" as="geometry">
            <mxPoint x="1320" y="1200" as="sourcePoint" />
            <mxPoint x="1320" y="110" as="targetPoint" />
          </mxGeometry>
        </mxCell>
        <mxCell id="YkJw-nBbiL5EOXAajBYS-97" value="post:device1/open?sn=1001" style="text;html=1;strokeColor=none;fillColor=none;align=center;verticalAlign=middle;whiteSpace=wrap;rounded=0;" vertex="1" parent="1">
          <mxGeometry x="450" y="224" width="180" height="10" as="geometry" />
        </mxCell>
        <mxCell id="YkJw-nBbiL5EOXAajBYS-98" value="post:device2/info?sn=2001" style="text;html=1;strokeColor=none;fillColor=none;align=center;verticalAlign=middle;whiteSpace=wrap;rounded=0;" vertex="1" parent="1">
          <mxGeometry x="750" y="224" width="180" height="10" as="geometry" />
        </mxCell>
        <mxCell id="YkJw-nBbiL5EOXAajBYS-99" value="device1/*" style="text;html=1;strokeColor=none;fillColor=none;align=center;verticalAlign=middle;whiteSpace=wrap;rounded=0;" vertex="1" parent="1">
          <mxGeometry x="275.5" y="350" width="150" height="10" as="geometry" />
        </mxCell>
        <mxCell id="YkJw-nBbiL5EOXAajBYS-100" value="device2/*" style="text;html=1;strokeColor=none;fillColor=none;align=center;verticalAlign=middle;whiteSpace=wrap;rounded=0;" vertex="1" parent="1">
          <mxGeometry x="910" y="350" width="150" height="10" as="geometry" />
        </mxCell>
        <mxCell id="YkJw-nBbiL5EOXAajBYS-101" value="post:open?id=1" style="text;html=1;strokeColor=none;fillColor=none;align=center;verticalAlign=middle;whiteSpace=wrap;rounded=0;" vertex="1" parent="1">
          <mxGeometry x="260.5" y="160" width="180" height="10" as="geometry" />
        </mxCell>
        <mxCell id="YkJw-nBbiL5EOXAajBYS-102" value="post:info?id=2" style="text;html=1;strokeColor=none;fillColor=none;align=center;verticalAlign=middle;whiteSpace=wrap;rounded=0;" vertex="1" parent="1">
          <mxGeometry x="877" y="160" width="230" height="10" as="geometry" />
        </mxCell>
        <mxCell id="YkJw-nBbiL5EOXAajBYS-103" style="edgeStyle=none;rounded=0;orthogonalLoop=1;jettySize=auto;html=1;exitX=0.5;exitY=1;exitDx=0;exitDy=0;" edge="1" parent="1" source="YkJw-nBbiL5EOXAajBYS-102" target="YkJw-nBbiL5EOXAajBYS-102">
          <mxGeometry relative="1" as="geometry" />
        </mxCell>
        <mxCell id="YkJw-nBbiL5EOXAajBYS-105" value="app1/control/gate1/1001/open" style="text;html=1;strokeColor=none;fillColor=none;align=center;verticalAlign=middle;whiteSpace=wrap;rounded=0;" vertex="1" parent="1">
          <mxGeometry x="390" y="500" width="265" height="20" as="geometry" />
        </mxCell>
        <mxCell id="YkJw-nBbiL5EOXAajBYS-108" value="app1/control/gate1/#/#" style="text;html=1;strokeColor=none;fillColor=none;align=center;verticalAlign=middle;whiteSpace=wrap;rounded=0;" vertex="1" parent="1">
          <mxGeometry x="350" y="920" width="265" height="20" as="geometry" />
        </mxCell>
        <mxCell id="YkJw-nBbiL5EOXAajBYS-110" value="app1/control/gate2/#/#" style="text;html=1;strokeColor=none;fillColor=none;align=center;verticalAlign=middle;whiteSpace=wrap;rounded=0;" vertex="1" parent="1">
          <mxGeometry x="690" y="900" width="265" height="20" as="geometry" />
        </mxCell>
        <mxCell id="YkJw-nBbiL5EOXAajBYS-111" value="app1/info/gate2/#/#" style="text;html=1;strokeColor=none;fillColor=none;align=center;verticalAlign=middle;whiteSpace=wrap;rounded=0;" vertex="1" parent="1">
          <mxGeometry x="690" y="920" width="265" height="20" as="geometry" />
        </mxCell>
      </root>
    </mxGraphModel>
  </diagram>
</mxfile>
